<?xml version="1.0" encoding="UTF-8" standalone="no"?>
<!DOCTYPE svg PUBLIC "-//W3C//DTD SVG 1.1//EN" "http://www.w3.org/Graphics/SVG/1.1/DTD/svg11.dtd">
<svg width="100%" height="100%" viewBox="0 0 133 133" version="1.1" xmlns="http://www.w3.org/2000/svg" xmlns:xlink="http://www.w3.org/1999/xlink" xml:space="preserve" xmlns:serif="http://www.serif.com/" style="fill-rule:evenodd;clip-rule:evenodd;stroke-linecap:round;stroke-linejoin:round;stroke-miterlimit:1.5;">
    <g transform="matrix(1,0,0,1,-2022.739245,-1616.734607)">
        <path id="egg-icon" d="M2085.156,1665.067C2097.198,1665.067 2106.974,1675.004 2106.974,1687.244C2106.974,1699.483 2097.198,1709.42 2085.156,1709.42C2073.114,1709.42 2063.337,1699.483 2063.337,1687.244C2063.337,1675.004 2073.114,1665.067 2085.156,1665.067ZM2054.823,1624.036C2054.823,1624.036 2028.171,1631.387 2033.851,1665.067C2033.851,1665.067 2037.175,1682.022 2030.293,1693.252C2025.263,1701.459 2018.661,1746.044 2069.216,1744.926C2069.216,1744.926 2080.253,1745.604 2098.273,1731.923C2109.234,1723.602 2125.34,1735.055 2138.314,1721.633C2138.314,1721.633 2161.213,1702.377 2145.472,1671.526C2139.129,1659.093 2120.195,1659.446 2112.589,1647.143C2112.589,1647.143 2093.469,1610.101 2054.823,1624.036Z" style="fill:current-color;stroke:current-color;"/>
    </g>
</svg>
