<?xml version="1.0" encoding="UTF-8" standalone="no"?>
<!DOCTYPE svg PUBLIC "-//W3C//DTD SVG 1.1//EN" "http://www.w3.org/Graphics/SVG/1.1/DTD/svg11.dtd">
<svg width="100%" height="100%" viewBox="0 0 73 74" version="1.1" xmlns="http://www.w3.org/2000/svg" xmlns:xlink="http://www.w3.org/1999/xlink" xml:space="preserve" xmlns:serif="http://www.serif.com/" style="fill-rule:evenodd;clip-rule:evenodd;stroke-linecap:round;stroke-linejoin:round;stroke-miterlimit:1.5;">
    <g transform="matrix(1,0,0,1,-2506.718908,-284.18396)">
        <g id="rabbit-icon">
            <g id="idle">
                <path d="M2521.329,341.853C2520.355,342.155 2519.321,342.318 2518.248,342.318C2512.505,342.318 2507.843,337.655 2507.843,331.912C2507.843,326.169 2512.505,321.507 2518.248,321.507C2521.934,321.507 2525.176,323.428 2527.024,326.323M2555.87,344.698C2557.468,342.798 2559.69,340.89 2562.545,340.103C2567.281,338.798 2572.567,339.351 2572.567,339.351C2572.567,339.351 2578.514,339.426 2578.063,330.694C2578.063,330.694 2578.271,319.568 2571.202,312.622C2567.994,309.47 2563.288,307.179 2556.384,307.179L2542.962,294.099C2542.962,294.099 2538.602,290.351 2534.119,294.833C2534.119,294.833 2529.857,299.977 2533.825,303.946L2547.526,317.646L2545.665,317.478C2545.665,317.478 2534.371,316.193 2527.024,326.323C2525.076,329.009 2523.406,332.497 2522.297,337.025C2522.297,337.025 2521.494,339.078 2521.329,341.853C2520.986,347.642 2523.418,356.572 2541.697,356.572L2555.663,356.572M2545.73,338.67C2545.73,338.67 2553.743,336.796 2555.87,344.698C2556.474,346.941 2556.394,351.868 2555.663,356.572M2556.384,307.179L2556.384,295.888C2556.384,295.888 2556.964,289.229 2564.772,289.229C2564.772,289.229 2571.202,288.77 2571.202,294.97L2571.202,312.622M2555.663,356.572L2564.074,356.572" style="fill:none;stroke:current-color;"/>
                <circle cx="2564.074" cy="325.138" r="2.241" style="fill:current-color;stroke:current-color;"/>
            </g>
            <g id="step" transform="matrix(1,0,0,1,0,2)">
                <path d="M2521.329,335.94C2520.355,336.242 2519.321,336.404 2518.248,336.404C2512.505,336.404 2507.843,331.742 2507.843,325.999C2507.843,320.256 2512.505,315.593 2518.248,315.593C2521.934,315.593 2525.176,317.514 2527.024,320.409M2556.384,301.265L2556.384,289.975C2556.384,289.975 2556.964,283.315 2564.772,283.315C2564.772,283.315 2571.202,282.856 2571.202,289.056L2571.202,306.708M2555.87,338.785C2557.468,336.884 2559.69,334.977 2562.545,334.19C2567.281,332.885 2572.567,333.437 2572.567,333.437C2572.567,333.437 2578.514,333.513 2578.063,324.78C2578.063,324.78 2578.271,313.654 2571.202,306.708C2567.994,303.556 2563.288,301.265 2556.384,301.265L2542.962,288.185C2542.962,288.185 2538.602,284.437 2534.119,288.92C2534.119,288.92 2529.857,294.064 2533.825,298.032L2547.526,311.733L2545.665,311.565C2545.665,311.565 2534.371,310.279 2527.024,320.409C2525.076,323.095 2523.406,326.584 2522.297,331.112C2522.297,331.112 2521.494,333.165 2521.329,335.94C2520.986,341.728 2520.606,346.567 2539.119,351.505L2548.439,353.52C2552.109,347.875 2556.474,341.028 2555.87,338.785C2553.743,330.882 2545.73,332.756 2545.73,332.756M2548.439,353.52L2556.135,354.572" style="fill:none;stroke:current-color;"/>
                <g transform="matrix(1,0,0,1,0,-4.956804)">
                    <circle cx="2564.074" cy="325.138" r="2.241" style="fill:current-color;stroke:current-color;"/>
                </g>
            </g>
        </g>
    </g>
</svg>
