<?xml version="1.0" encoding="UTF-8" standalone="no"?>
<!DOCTYPE svg PUBLIC "-//W3C//DTD SVG 1.1//EN" "http://www.w3.org/Graphics/SVG/1.1/DTD/svg11.dtd">
<svg width="100%" height="100%" viewBox="0 0 97 88" version="1.1" xmlns="http://www.w3.org/2000/svg" xmlns:xlink="http://www.w3.org/1999/xlink" xml:space="preserve" xmlns:serif="http://www.serif.com/" style="fill-rule:evenodd;clip-rule:evenodd;stroke-linecap:round;stroke-linejoin:round;stroke-miterlimit:1.5;">
    <g transform="matrix(1,0,0,1,-2585.942617,-1630.948245)">
        <g id="roe-icon" transform="matrix(1,0,0,1,0,13.003045)">
            <path d="M2634.564,1622.112C2641.525,1622.112 2647.177,1627.764 2647.177,1634.725C2647.177,1641.686 2641.525,1647.338 2634.564,1647.338C2627.603,1647.338 2621.951,1641.686 2621.951,1634.725C2621.951,1627.764 2627.603,1622.112 2634.564,1622.112ZM2618.7,1647.338C2625.662,1647.338 2631.313,1652.989 2631.313,1659.951C2631.313,1666.912 2625.662,1672.564 2618.7,1672.564C2611.739,1672.564 2606.087,1666.912 2606.087,1659.951C2606.087,1652.989 2611.739,1647.338 2618.7,1647.338ZM2634.346,1675.632C2641.307,1675.632 2646.959,1681.284 2646.959,1688.245C2646.959,1695.207 2641.307,1700.858 2634.346,1700.858C2627.384,1700.858 2621.733,1695.207 2621.733,1688.245C2621.733,1681.284 2627.384,1675.632 2634.346,1675.632ZM2602.722,1675.632C2609.684,1675.632 2615.335,1681.284 2615.335,1688.245C2615.335,1695.207 2609.684,1700.858 2602.722,1700.858C2595.761,1700.858 2590.109,1695.207 2590.109,1688.245C2590.109,1681.284 2595.761,1675.632 2602.722,1675.632ZM2665.969,1675.632C2672.93,1675.632 2678.582,1681.284 2678.582,1688.245C2678.582,1695.207 2672.93,1700.858 2665.969,1700.858C2659.008,1700.858 2653.356,1695.207 2653.356,1688.245C2653.356,1681.284 2659.008,1675.632 2665.969,1675.632ZM2650.428,1647.338C2657.389,1647.338 2663.041,1652.989 2663.041,1659.951C2663.041,1666.912 2657.389,1672.564 2650.428,1672.564C2643.467,1672.564 2637.815,1666.912 2637.815,1659.951C2637.815,1652.989 2643.467,1647.338 2650.428,1647.338Z" style="fill:current-color;stroke:current-color;"/>
        </g>
    </g>
</svg>
