<?xml version="1.0" encoding="UTF-8" standalone="no"?>
<!DOCTYPE svg PUBLIC "-//W3C//DTD SVG 1.1//EN" "http://www.w3.org/Graphics/SVG/1.1/DTD/svg11.dtd">
<svg width="100%" height="100%" viewBox="0 0 132 89" version="1.1" xmlns="http://www.w3.org/2000/svg" xmlns:xlink="http://www.w3.org/1999/xlink" xml:space="preserve" xmlns:serif="http://www.serif.com/" style="fill-rule:evenodd;clip-rule:evenodd;stroke-linecap:round;stroke-linejoin:round;stroke-miterlimit:1.5;">
    <g transform="matrix(1,0,0,1,-2338.90307,-1751.649283)">
        <path id="salmon-icon" d="M2373.555,1804.741C2372.237,1816.729 2367.118,1836.206 2347.761,1836.206C2347.761,1836.206 2336.381,1820.953 2349.122,1795.563C2349.122,1795.563 2337.59,1774.673 2346.363,1755.816C2346.363,1755.816 2369.488,1756.822 2373.412,1786.535M2466.686,1796.011C2466.686,1796.011 2458.298,1758.322 2418.592,1758.322C2418.592,1758.322 2383.919,1759.601 2368.54,1796.011C2368.54,1796.011 2384.478,1832.421 2421.388,1832.421C2421.388,1832.421 2454.663,1833.98 2466.686,1796.011ZM2429.441,1759.348C2421.253,1773.876 2410.894,1801.713 2427.735,1831.931M2368.54,1796.011L2418.731,1796.011M2379.655,1812.613L2420.293,1812.613M2378.639,1779.286L2421.235,1779.286M2442.41,1791.498L2442.41,1799.678" style="fill:current-color;stroke:current-color;"/>
    </g>
</svg>
