<?xml version="1.0" encoding="UTF-8" standalone="no"?>
<!DOCTYPE svg PUBLIC "-//W3C//DTD SVG 1.1//EN" "http://www.w3.org/Graphics/SVG/1.1/DTD/svg11.dtd">
<svg width="100%" height="100%" viewBox="0 0 132 89" version="1.1" xmlns="http://www.w3.org/2000/svg" xmlns:xlink="http://www.w3.org/1999/xlink" xml:space="preserve" xmlns:serif="http://www.serif.com/" style="fill-rule:evenodd;clip-rule:evenodd;stroke-linecap:round;stroke-linejoin:round;stroke-miterlimit:1.5;">
    <g transform="matrix(1,0,0,1,-2338.90307,-1639.010141)">
        <path id="tuna-icon" d="M2373.555,1692.102C2372.237,1704.09 2367.118,1723.567 2347.761,1723.567C2347.761,1723.567 2336.381,1708.314 2349.122,1682.924C2349.122,1682.924 2337.59,1662.034 2346.363,1643.177C2346.363,1643.177 2369.488,1644.183 2373.412,1673.896M2466.686,1683.372C2466.686,1683.372 2458.298,1645.683 2418.592,1645.683C2418.592,1645.683 2383.919,1646.962 2368.54,1683.372C2368.54,1683.372 2384.478,1719.782 2421.388,1719.782C2421.388,1719.782 2454.663,1721.34 2466.686,1683.372ZM2429.441,1646.709C2421.253,1661.237 2410.894,1689.074 2427.735,1719.292M2412.497,1646.54C2404.354,1660.916 2393.94,1688.555 2410.336,1718.638M2391.009,1655.531C2385.35,1668.801 2381.167,1687.708 2388.687,1708.448M2442.41,1680.982L2442.41,1689.163" style="fill:current-color;stroke:current-color;"/>
    </g>
</svg>
