<?xml version="1.0" encoding="UTF-8" standalone="no"?>
<!DOCTYPE svg PUBLIC "-//W3C//DTD SVG 1.1//EN" "http://www.w3.org/Graphics/SVG/1.1/DTD/svg11.dtd">
<svg width="100%" height="100%" viewBox="0 0 74 45" version="1.1" xmlns="http://www.w3.org/2000/svg" xmlns:xlink="http://www.w3.org/1999/xlink" xml:space="preserve" xmlns:serif="http://www.serif.com/" style="fill-rule:evenodd;clip-rule:evenodd;stroke-linecap:round;stroke-linejoin:round;stroke-miterlimit:1.5;">
    <g transform="matrix(1,0,0,1,-1683.918384,-301.956143)">
        <g id="turtle-icon">
            <path id="idle" d="M1685.042,331.555L1741.992,331.555C1741.992,331.555 1742.911,303.08 1711.91,303.08C1711.91,303.08 1685.042,304.458 1685.042,331.555ZM1738.577,317.317L1750.719,317.317C1750.719,317.317 1756.23,317.777 1756.23,324.895C1756.23,324.895 1756.588,331.555 1750.756,331.555L1737.305,331.555M1694.738,309.635L1705.963,317.317L1721.348,317.317L1732.532,309.606M1699.714,331.555L1705.982,317.317M1721.392,317.288L1727.296,331.596M1685.042,327.379L1685.042,342.112C1685.042,343.027 1685.406,343.905 1686.053,344.552C1686.7,345.199 1687.578,345.563 1688.493,345.563C1690.842,345.563 1693.939,345.563 1696.288,345.563C1698.194,345.563 1699.739,344.018 1699.739,342.112C1699.739,337.964 1699.739,331.555 1699.739,331.555M1727.296,331.555L1727.296,343.121C1727.296,344.47 1728.389,345.563 1729.738,345.563C1732.534,345.563 1737.075,345.563 1739.774,345.563C1741.001,345.563 1741.995,344.569 1741.995,343.342C1741.995,339.333 1741.995,331.298 1741.995,331.298" style="fill:none;stroke:current-color;"/>
            <path id="step" d="M1685.042,333.555L1741.992,333.555C1741.992,333.555 1742.911,305.08 1711.91,305.08C1711.91,305.08 1685.042,306.458 1685.042,333.555ZM1738.577,319.317L1750.719,319.317C1750.719,319.317 1756.23,319.777 1756.23,326.895C1756.23,326.895 1756.588,333.555 1750.756,333.555L1737.305,333.555M1694.738,311.635L1705.963,319.317L1721.348,319.317L1732.532,311.606M1699.714,333.555L1705.982,319.317M1721.392,319.288L1727.296,333.596M1727.296,333.555L1727.296,343.121C1727.296,344.47 1728.389,345.563 1729.738,345.563L1739.774,345.563C1740.958,345.563 1741.925,344.637 1741.992,343.47C1741.994,343.428 1741.995,343.385 1741.995,343.342L1741.995,331.298M1685.042,333.555L1685.042,342.112C1685.042,343.027 1685.406,343.905 1686.053,344.552C1686.7,345.199 1687.578,345.563 1688.493,345.563L1696.288,345.563C1697.712,345.563 1698.934,344.701 1699.461,343.47C1699.64,343.053 1699.739,342.594 1699.739,342.112L1699.739,333.499M1744.738,333.555L1746.403,340.028C1746.615,340.85 1746.444,341.727 1745.942,342.401C1745.44,343.075 1744.663,343.47 1743.84,343.47L1741.992,343.47M1702.999,333.555L1704.664,340.028C1704.876,340.85 1704.705,341.727 1704.203,342.401C1703.701,343.075 1702.924,343.47 1702.1,343.47L1699.461,343.47" style="fill:none;stroke:current-color;"/>
        </g>
    </g>
</svg>
