<?xml version="1.0" encoding="UTF-8" standalone="no"?>
<!DOCTYPE svg PUBLIC "-//W3C//DTD SVG 1.1//EN" "http://www.w3.org/Graphics/SVG/1.1/DTD/svg11.dtd">
<svg width="100%" height="100%" viewBox="0 0 112 101" version="1.1" xmlns="http://www.w3.org/2000/svg" xmlns:xlink="http://www.w3.org/1999/xlink" xml:space="preserve" xmlns:serif="http://www.serif.com/" style="fill-rule:evenodd;clip-rule:evenodd;stroke-linecap:round;stroke-linejoin:round;stroke-miterlimit:1.5;">
    <g transform="matrix(1,0,0,1,-2572.097507,-1754.210697)">
        <path id="uni-icon" d="M2627.609,1767.983C2648.306,1767.983 2665.109,1784.786 2665.109,1805.483C2665.109,1826.18 2648.306,1842.983 2627.609,1842.983C2606.912,1842.983 2590.109,1826.18 2590.109,1805.483C2590.109,1784.786 2606.912,1767.983 2627.609,1767.983ZM2594.676,1805.483L2576.264,1805.483M2678.935,1805.483L2660.524,1805.483M2627.609,1837.956L2627.609,1850.828M2627.609,1758.377L2627.609,1771.25M2604.941,1828.506L2591.922,1841.525M2664.522,1768.925L2651.503,1781.944M2651.191,1828.18L2660.293,1837.282M2594.92,1771.91L2604.022,1781.012M2628.222,1804.313L2628.222,1806.313M2628.222,1821.309L2628.222,1824.278M2628.222,1786.172L2628.222,1789.141M2612.065,1814.816L2609.065,1816.816M2644.379,1814.816L2647.379,1816.816M2612.065,1797.15L2609.065,1795.15M2644.379,1797.15L2647.379,1795.15" style="fill:current-color;stroke:current-color;"/>
    </g>
</svg>
