<?xml version="1.0" encoding="UTF-8" standalone="no"?>
<!DOCTYPE svg PUBLIC "-//W3C//DTD SVG 1.1//EN" "http://www.w3.org/Graphics/SVG/1.1/DTD/svg11.dtd">
<svg width="100%" height="100%" viewBox="0 0 598 347" version="1.1" xmlns="http://www.w3.org/2000/svg" xmlns:xlink="http://www.w3.org/1999/xlink" xml:space="preserve" xmlns:serif="http://www.serif.com/" style="fill-rule:evenodd;clip-rule:evenodd;">
    <g transform="matrix(1,0,0,1,-1521.067048,-578.833223)">
        <g id="egg" transform="matrix(1.53029,0,0,1.53029,-1230.203047,-818.486734)">
            <g id="plate-shadow" transform="matrix(0.656695,0,0,0.656695,1799.228824,997.22376)">
                <g id="plate-shadow1" serif:id="plate-shadow">
                    <ellipse id="plate-shadow2" serif:id="plate-shadow" cx="295.704" cy="110.569" rx="295.704" ry="105.987" style="fill:rgb(55,48,48);"/>
                </g>
            </g>
            <g id="sushi-base">
                <g id="plate-base" transform="matrix(0.656695,0,0,0.656695,1798.899163,996.637036)">
                    <g id="plate-base1" serif:id="plate-base">
                        <path id="plate-base2" serif:id="plate-base" d="M295.706,0.5C377.321,0.5 451.187,12.358 504.632,31.514C531.356,41.092 552.949,52.486 567.85,65.113C582.753,77.742 590.91,91.557 590.91,105.987C590.91,120.417 582.753,134.231 567.85,146.86C552.949,159.488 531.356,170.882 504.632,180.461C451.187,199.617 377.32,211.475 295.706,211.475C214.092,211.475 140.225,199.617 86.78,180.461C60.056,170.882 38.465,159.488 23.564,146.86C8.66,134.231 0.502,120.418 0.502,105.987C0.502,91.557 8.66,77.742 23.564,65.113C38.465,52.486 60.056,41.092 86.78,31.514C140.225,12.358 214.092,0.5 295.706,0.5Z" style="fill:rgb(239,234,231);fill-rule:nonzero;stroke:rgb(55,48,48);stroke-width:1px;"/>
                    </g>
                </g>
                <g id="sushi-shadow" transform="matrix(0.579797,0,0,0.582157,943.16057,610.866827)">
                    <path d="M1824.77,689.723C1771.731,723.391 1575.114,778.086 1601.199,791.128C1634.31,807.683 1642.744,815.907 1754.459,844.834C1778.901,851.162 1822.719,840.913 1943.052,779.942C1972.654,764.943 2071.878,731.482 2045.126,720.834C1973.16,692.191 1981.107,693.619 1922.903,679.589C1901.337,674.391 1840.587,693.153 1824.77,689.723Z" style="fill:current-color;"/>
                </g>
                <g id="base" transform="matrix(0.887258,0,0,0.890869,229.892056,114.385444)">
                    <g id="color" transform="matrix(0.653471,0,0,0.653471,803.901922,557.300352)">
                        <path d="M1942.195,623.332C1942.973,623.337 1943.833,623.365 1944.788,623.408C1957.12,623.969 1954.041,635.697 1954.052,636.175C1959.566,638.834 1968.352,643.77 1969.725,651.024C1979.073,642.241 1985.856,648.344 1984.812,663.389C1985.92,663.524 1995.751,664.721 1997.41,669.382C2000.072,676.861 1995.752,683.901 1999.03,684.744C2020.149,690.175 1997.003,705.229 2002.549,706.977C2024.834,713.998 2003.317,727.546 1989.614,725.786C1984.821,729.231 1975.517,729.311 1974.339,729.321C1975.244,729.594 1985.44,732.665 1981.043,739.041C1976.774,745.23 1951.013,746.894 1948.199,747.204C1958.99,766.714 1925.195,760.975 1922.941,760.592C1931.696,774.782 1910.835,780.572 1893.368,773.141C1890.052,778.954 1875.371,774.591 1870.531,773.661C1877.146,778.817 1879.375,780.714 1873.174,786.244C1866.143,792.515 1851.366,787.828 1849.564,787.256C1853.576,803.037 1837.835,805.09 1825.046,802.554C1820.169,806.89 1807.688,808.741 1806.235,808.956C1817.023,812.011 1815.441,817.343 1806.419,823.727C1793.496,832.873 1786.454,818.414 1785.362,816.776C1772.843,833.346 1756.718,809.343 1753.484,800.723C1751.588,801.02 1749.359,801.231 1746.749,801.335C1748.227,808.64 1747.597,811.24 1740.168,810.097C1730.228,808.568 1725.621,793.776 1725.059,791.974C1712.874,798.393 1711.156,793.649 1702.795,777.284C1702.151,778.491 1695.42,791.104 1685.982,780.435C1679.399,772.993 1679.644,783.287 1670.229,786.468C1667.578,787.364 1643.779,784.568 1668.418,763.864C1653.044,769.193 1648.69,758.012 1659.284,739.307C1649.927,735.633 1645.942,730.837 1656.247,713.038C1640.294,702.067 1653.261,695.737 1666.501,690.805C1653.991,678.793 1674.711,675.069 1678.973,674.029C1678.261,673.625 1669.274,668.513 1673.357,665.472C1679.561,660.852 1689.612,659.758 1697.286,659.686C1697.787,663.334 1698.594,668.335 1699.097,675.573C1700.247,676.138 1701.406,676.702 1702.57,677.263C1703.835,677.874 1705.107,678.481 1706.383,679.085C1706.658,684.066 1707.417,691.541 1709.509,691.787C1711.68,692.043 1711.906,685.356 1711.867,681.647C1733.792,691.765 1755.202,700.171 1759.018,700.732C1759.171,700.755 1759.33,700.772 1759.495,700.783C1759.735,702.836 1760.069,705.178 1760.52,707.276C1761.25,710.679 1762.286,713.442 1763.715,713.303C1765.569,713.122 1766.081,709.811 1766.108,706.24C1766.126,703.88 1765.932,701.405 1765.773,699.646C1770.79,698.042 1777.496,694.938 1785.304,691.433C1785.388,695.392 1786.105,700.409 1787.526,701.505C1791.081,704.247 1790.857,694.031 1790.56,689.097C1792.259,688.351 1794,687.598 1795.776,686.848C1797.401,687.461 1799.364,688.154 1801.576,688.842C1813.913,694.081 1833.075,698.447 1847.841,685.158C1854.496,679.168 1859.494,670.145 1835.815,659.93C1836.737,659.013 1837.532,658.08 1838.184,657.145C1839.346,657.558 1840.434,657.957 1841.438,658.338C1857.523,664.447 1870.693,668.579 1882.443,671.915C1883.958,672.345 1885.45,672.762 1886.921,673.168C1888.809,673.689 1890.664,674.193 1892.492,674.684C1909.694,666.52 1935.852,657.876 1940.305,654.391C1941.575,653.397 1942.239,651.484 1942.543,648.636C1942.645,647.686 1942.706,646.631 1942.737,645.471C1943.521,641.502 1942.65,634.74 1942.195,623.332Z" style="fill:rgb(244,244,243);"/>
                    </g>
                    <path id="outline" d="M1992.704,1075.615C1993.191,1075.526 1997.448,1074.752 1997.778,1079.156C1997.852,1080.139 1997.357,1080.999 1996.517,1081.746C1993.329,1084.58 1985.173,1085.789 1984.224,1085.93C1991.273,1087.926 1990.24,1091.41 1984.345,1095.582C1975.899,1101.559 1971.298,1092.11 1970.584,1091.04C1962.403,1101.868 1951.866,1086.183 1949.753,1080.55C1960.596,1078.853 1954.822,1072.886 1954.192,1072.256M1958.002,1018.808C1956.571,1018.536 1955.293,1018.699 1954.35,1019.485M1952.718,1025.24C1952.726,1025.428 1952.738,1025.62 1952.752,1025.817C1951.033,1026.191 1939.969,1027.687 1943.416,1033.503M2065.349,1004.075C2066.699,1003.746 2067.89,1003.741 2068.697,1004.044C2072.509,1005.474 2067.572,1014.248 2067.137,1015.021C2072.053,1017.134 2073.939,1017.556 2071.471,1022.26C2068.988,1026.992 2065.069,1024.73 2064.353,1024.523M2073.019,964.63C2073.54,964.632 2074.119,964.65 2074.765,964.679C2082.823,965.046 2080.811,972.71 2080.818,973.023C2084.421,974.76 2090.163,977.985 2091.06,982.726C2090.536,983.218 2089.999,983.783 2089.452,984.421C2083.578,982.078 2079.491,979.962 2078.488,987.713M2091.06,982.726C2097.168,976.986 2101.601,980.974 2100.919,990.806C2101.643,990.894 2108.067,991.676 2109.151,994.722C2110.891,999.61 2108.068,1004.21 2110.21,1004.761C2124.011,1008.309 2108.886,1018.147 2112.51,1019.289C2127.072,1023.877 2113.011,1032.731 2104.057,1031.58M2041.163,1062.526C2038.996,1066.324 2029.402,1063.473 2026.239,1062.865C2030.562,1066.234 2032.019,1067.474 2027.967,1071.088C2023.372,1075.186 2013.716,1072.123 2012.538,1071.75C2015.16,1082.062 2004.873,1083.403 1996.517,1081.746M1949.753,1080.55C1948.513,1080.744 1947.057,1080.882 1945.352,1080.95C1946.318,1085.723 1945.906,1087.422 1941.051,1086.675C1934.556,1085.676 1931.545,1076.01 1931.178,1074.833C1923.216,1079.027 1922.093,1075.927 1916.629,1065.233C1916.208,1066.022 1911.81,1074.264 1905.642,1067.292C1901.34,1062.429 1901.501,1069.156 1895.348,1071.234C1893.615,1071.82 1878.064,1069.993 1894.164,1056.464C1884.118,1059.945 1881.273,1052.639 1888.196,1040.416C1882.081,1038.015 1879.477,1034.881 1886.212,1023.25C1875.786,1016.081 1884.26,1011.944 1892.912,1008.721C1884.737,1000.872 1898.277,998.439 1901.062,997.759C1900.597,997.494 1894.724,994.154 1897.392,992.167C1901.446,989.148 1908.014,988.433 1913.029,988.386M1981.708,1054.237C1981.193,1054.753 1976.252,1059.693 1979.19,1062.998C1982.18,1066.363 1988.131,1059.807 1988.681,1059.202M1898.479,1027.954C1894.919,1023.343 1892.283,1012.688 1905.598,1019.193M2036.436,1059.881C2048.25,1068.357 2067.033,1064.933 2060.488,1054.325C2061.961,1054.576 2084.045,1058.326 2076.993,1045.576C2078.832,1045.374 2095.667,1044.287 2098.456,1040.242C2101.329,1036.076 2094.666,1034.069 2094.075,1033.891C2095.13,1033.882 2106.176,1033.786 2105.902,1028.05C2105.64,1022.534 2095.066,1023.779 2094.07,1023.896C2095.778,1022.448 2099.711,1020.697 2097.653,1016.296C2095.905,1012.559 2095.281,1012.854 2091.155,1013.047" style="fill:none;stroke:rgb(82,72,72);stroke-width:1.53px;stroke-linecap:round;stroke-linejoin:round;stroke-miterlimit:1.5;"/>
                </g>
                <g id="room" transform="matrix(0.887258,0,0,0.890869,229.892056,114.385444)">
                    <g id="color1" serif:id="color">
                        <g>
                            <path d="M1996.356,933.436C1997.864,938.644 1998.618,948.498 1997.542,949.728C1997.536,949.735 1997.516,949.749 1997.482,949.772C1996.483,950.437 1983.657,957.769 1982.594,956.098C1982.281,955.606 1982.078,953.652 1981.798,951.191C1981.444,948.067 1980.966,944.126 1979.985,941.32C1979.594,940.199 1979.122,939.26 1978.545,938.626C1978.617,938.547 1992.233,930.044 1994.492,930.238C1995.177,930.297 1995.815,931.567 1996.356,933.436ZM2030.075,974.077C2017.956,971.43 2020.553,967.432 2021.159,966.549C2023.611,962.978 2030.944,962.863 2035.517,963.228C2034.506,964.063 2033.653,964.914 2033.009,965.772C2031.513,967.768 2030.595,970.807 2030.075,974.077Z" style="fill:rgb(132,215,108);"/>
                            <path d="M1979.985,941.32C1980.966,944.126 1981.444,948.067 1981.798,951.191C1980.398,951.808 1979.38,952.319 1977.85,953.128C1977.587,953.268 1977.339,953.417 1977.106,953.576C1975.867,949.05 1975.498,944.569 1979.985,941.32ZM1974.537,956.64C1983.336,959.766 1984.53,959.628 1995.162,963.852C2009.426,969.519 2020.742,972.829 2029.854,975.675C2029.519,978.476 2029.447,981.349 2029.528,983.805C2009.09,977.208 2004.579,976.702 1987.817,969.809C1983.489,968.029 1978.431,966.17 1973.755,964.494C1973.489,962.413 1973.324,959.265 1974.537,956.64ZM2029.854,975.675C2020.742,972.829 2009.426,969.519 1995.162,963.852C1984.53,959.628 1983.336,959.766 1974.537,956.64C1975.079,955.466 1975.898,954.397 1977.106,953.576C1977.339,953.417 1977.587,953.268 1977.85,953.128C1979.38,952.319 1980.398,951.808 1981.798,951.191C1982.078,953.652 1982.281,955.606 1982.594,956.098C1983.657,957.769 1996.483,950.437 1997.482,949.772C2004.182,951.873 2012.429,954.398 2020.145,956.735C2026.659,958.707 2032.793,960.546 2037.299,961.884C2036.663,962.326 2036.067,962.775 2035.517,963.228C2030.944,962.863 2023.611,962.978 2021.159,966.549C2020.553,967.432 2017.956,971.43 2030.075,974.077C2029.991,974.604 2029.917,975.138 2029.854,975.675ZM2023.957,942.94C2020.253,946.6 2020.016,951.045 2020.145,956.735C2012.429,954.398 2004.182,951.873 1997.482,949.772C1997.516,949.749 1997.536,949.735 1997.542,949.728C1998.618,948.498 1997.864,938.644 1996.356,933.436C2002.737,935.684 2013.277,939.3 2023.957,942.94ZM2037.299,961.884C2032.793,960.546 2026.659,958.707 2020.145,956.735C2020.016,951.045 2020.253,946.6 2023.957,942.94C2035.942,947.025 2048.104,951.141 2054.764,953.392L2055.002,953.473C2049.246,955.492 2042.145,958.507 2037.299,961.884ZM2005.102,986.726C2007.633,983.097 2006.865,979.445 2000.591,977.991C1996.452,977.033 1992.347,975.606 1988.415,974.211L1988.384,974.2C1986.319,973.467 1984.302,972.744 1982.354,972.103C1976.703,970.242 1971.63,969.07 1967.629,970.357C1965.181,946.676 1965.438,943.611 1968.596,939.579C1972.875,934.116 1983.339,930.01 1992.844,927.164C2005.734,931.292 2033.962,939.835 2039.763,942.088C2051.59,946.681 2055.953,948.914 2072.941,953.529C2072.628,972.271 2074.853,982.564 2071.835,984.926C2068.925,987.203 2051.831,992.852 2040.59,998.187C2031.248,995.676 2020.834,992.672 2007.228,987.505C2006.572,987.256 2005.861,986.996 2005.102,986.726ZM1974.537,956.64C1973.324,959.265 1973.489,962.413 1973.755,964.494C1978.431,966.17 1983.489,968.029 1987.817,969.809C2004.579,976.702 2009.09,977.208 2029.528,983.805C2029.447,981.349 2029.519,978.476 2029.854,975.675C2029.917,975.138 2029.991,974.604 2030.075,974.077C2030.595,970.807 2031.513,967.768 2033.009,965.772C2033.244,965.459 2033.507,965.147 2033.795,964.836C2034.296,964.295 2034.875,963.759 2035.517,963.228C2036.067,962.775 2036.663,962.326 2037.299,961.884C2039.909,960.065 2043.175,958.35 2046.531,956.84C2049.406,955.547 2052.347,954.404 2055.002,953.473L2054.764,953.392C2048.104,951.141 2035.942,947.025 2023.957,942.94C2013.277,939.3 2002.737,935.684 1996.356,933.436C1995.815,931.567 1995.177,930.297 1994.492,930.238C1992.233,930.044 1978.617,938.547 1978.545,938.626C1979.122,939.26 1979.594,940.199 1979.985,941.32C1975.498,944.569 1975.867,949.05 1977.106,953.576C1975.898,954.397 1975.079,955.466 1974.537,956.64Z" style="fill:rgb(252,224,166);"/>
                            <path d="M2072.938,953.707C2072.642,972.336 2075.137,979.117 2072.129,981.472C2069.219,983.749 2050.435,991.014 2039.194,996.349C2038.574,996.183 2037.949,996.014 2037.32,995.843C2035.652,968.942 2037.956,966.545 2057.401,959.797C2058.518,959.409 2067.937,955.534 2072.938,953.707ZM2029.854,975.675C2020.742,972.829 2009.426,969.519 1995.162,963.852C1984.53,959.628 1983.336,959.766 1974.537,956.64C1975.079,955.466 1975.898,954.397 1977.106,953.576C1977.339,953.417 1977.587,953.268 1977.85,953.128C1979.38,952.319 1980.398,951.808 1981.798,951.191C1982.078,953.652 1982.281,955.606 1982.594,956.098C1983.657,957.769 1996.483,950.437 1997.482,949.772C2004.182,951.873 2012.429,954.398 2020.145,956.735C2026.659,958.707 2032.793,960.546 2037.299,961.884C2036.663,962.326 2036.067,962.775 2035.517,963.228C2030.944,962.863 2023.611,962.978 2021.159,966.549C2020.553,967.432 2017.956,971.43 2030.075,974.077C2029.991,974.604 2029.917,975.138 2029.854,975.675ZM1977.106,953.576C1975.867,949.05 1975.498,944.569 1979.985,941.32C1980.966,944.126 1981.444,948.067 1981.798,951.191C1980.398,951.808 1979.38,952.319 1977.85,953.128C1977.587,953.268 1977.339,953.417 1977.106,953.576ZM1996.356,933.436C2002.737,935.684 2013.277,939.3 2023.957,942.94C2020.253,946.6 2020.016,951.045 2020.145,956.735C2012.429,954.398 2004.182,951.873 1997.482,949.772C1997.516,949.749 1997.536,949.735 1997.542,949.728C1998.618,948.498 1997.864,938.644 1996.356,933.436ZM2037.299,961.884C2032.793,960.546 2026.659,958.707 2020.145,956.735C2020.016,951.045 2020.253,946.6 2023.957,942.94C2035.942,947.025 2048.104,951.141 2054.764,953.392L2055.002,953.473C2049.246,955.492 2042.145,958.507 2037.299,961.884Z" style="fill:rgb(253,207,139);"/>
                        </g>
                        <path d="M1977.914,1005.915C1978.311,1005.749 1978.711,1005.583 1979.113,1005.417C1978.931,1001.292 1978.752,998.673 1978.56,995.331C1979.246,995.472 1979.933,995.585 1980.619,995.671C1980.612,997.538 1981.172,1001.001 1982.41,1001.597C1982.903,1001.834 1984.724,1002.488 1985.004,995.87C1988.941,995.742 1992.704,994.816 1995.949,993.441C1996.951,997.798 1997.836,997.623 1998.362,997.392C1999.651,996.823 1999.834,993.866 1999.767,991.478C2001.239,990.57 2002.519,989.574 2003.554,988.545C2019.027,995.221 2015.761,1001.117 2011.412,1005.031C2000.333,1015.002 1985.467,1009.763 1977.914,1005.915Z" style="fill:rgb(255,177,184);"/>
                        <g>
                            <path d="M2005.869,981.007C2006.901,982.662 2006.517,984.698 2005.102,986.726C2004.676,987.336 2004.156,987.946 2003.554,988.545C2002.519,989.574 2001.239,990.57 1999.767,991.478C1998.605,992.196 1997.324,992.859 1995.949,993.441C1992.704,994.816 1988.941,995.742 1985.004,995.87C1983.56,995.916 1982.092,995.856 1980.619,995.671C1979.933,995.585 1979.246,995.472 1978.56,995.331C1978.492,994.163 1978.424,992.906 1978.353,991.467C1997.379,990.641 2000.205,985.947 2005.869,981.007Z" style="fill:rgb(228,114,63);"/>
                            <path d="M2003.554,988.545C2002.519,989.574 2001.239,990.57 1999.767,991.478C1998.605,992.196 1997.324,992.859 1995.949,993.441C1992.704,994.816 1988.941,995.742 1985.004,995.87C1983.56,995.916 1982.092,995.856 1980.619,995.671C1979.933,995.585 1979.246,995.472 1978.56,995.331C1978.459,993.575 1978.354,991.619 1978.244,989.14L1978.665,988.963L1978.228,988.781C1975.241,987.532 1972.393,986.359 1969.682,985.256C1968.251,984.673 1966.857,984.11 1965.502,983.566C1965.295,979.819 1965.077,974.957 1965.118,971.672L1965.687,971.43L1965.494,971.352C1966.166,970.926 1966.878,970.598 1967.629,970.357C1971.63,969.07 1976.703,970.242 1982.354,972.103C1984.302,972.744 1986.319,973.467 1988.384,974.2L1988.415,974.211C1992.347,975.606 1996.452,977.033 2000.591,977.991C2006.865,979.445 2007.633,983.097 2005.102,986.726C2004.676,987.336 2004.156,987.946 2003.554,988.545ZM1978.353,991.467C1997.379,990.641 2000.205,985.947 2005.869,981.007C2006.901,982.662 2006.517,984.698 2005.102,986.726C2004.676,987.336 2004.156,987.946 2003.554,988.545C2002.519,989.574 2001.239,990.57 1999.767,991.478C1998.605,992.196 1997.324,992.859 1995.949,993.441C1992.704,994.816 1988.941,995.742 1985.004,995.87C1983.56,995.916 1982.092,995.856 1980.619,995.671C1979.933,995.585 1979.246,995.472 1978.56,995.331C1978.492,994.163 1978.424,992.906 1978.353,991.467ZM1995.949,993.441C1997.324,992.859 1998.605,992.196 1999.767,991.478C1999.834,993.866 1999.651,996.823 1998.362,997.392C1997.836,997.623 1996.951,997.798 1995.949,993.441ZM1980.619,995.671C1982.092,995.856 1983.56,995.916 1985.004,995.87C1984.724,1002.488 1982.903,1001.834 1982.41,1001.597C1981.172,1001.001 1980.612,997.538 1980.619,995.671Z" style="fill:rgb(229,139,93);"/>
                        </g>
                        <g>
                            <g>
                                <path d="M1931.104,968.152C1931.331,968.057 1931.566,967.961 1931.808,967.865C1947.015,973.68 1948.188,975.362 1951.797,975.904C1951.844,976.651 1951.902,977.444 1951.968,978.262C1952.344,982.92 1952.985,988.442 1953.396,991.566C1952.279,991.876 1951.345,992.016 1950.565,991.94C1947.986,991.687 1936.772,985.894 1931.083,982.758C1931.135,978.965 1931.077,976.358 1931.029,974.294C1930.972,971.842 1930.929,970.155 1931.104,968.152ZM1965.118,971.672C1965.077,974.957 1965.295,979.819 1965.502,983.566C1965.569,984.783 1965.635,985.881 1965.69,986.771C1960.122,988.959 1956.185,990.793 1953.396,991.566C1952.985,988.442 1952.344,982.92 1951.968,978.262C1951.902,977.444 1951.844,976.651 1951.797,975.904C1952.14,975.955 1952.505,975.996 1952.906,976.03C1954.08,976.128 1954.556,976.167 1964.893,971.768C1964.967,971.737 1965.043,971.705 1965.118,971.672ZM1946.307,963.583C1951.424,965.694 1959.594,968.98 1965.126,971.204L1965.12,971.603C1965.043,971.657 1964.968,971.712 1964.893,971.768C1954.556,976.167 1954.08,976.128 1952.906,976.03C1952.505,975.996 1952.14,975.955 1951.797,975.904C1948.188,975.362 1947.015,973.68 1931.808,967.865C1936.298,966.086 1943.209,964.344 1946.307,963.583Z" style="fill:rgb(107,90,90);"/>
                                <path d="M1953.396,991.566C1952.279,991.876 1951.345,992.016 1950.565,991.94C1947.986,991.687 1936.772,985.894 1931.083,982.758C1931.135,978.965 1931.077,976.358 1931.029,974.294C1930.972,971.842 1930.929,970.155 1931.104,968.152C1931.331,968.057 1931.566,967.961 1931.808,967.865C1947.015,973.68 1948.188,975.362 1951.797,975.904C1951.844,976.651 1951.902,977.444 1951.968,978.262C1952.344,982.92 1952.985,988.442 1953.396,991.566Z" style="fill:rgb(96,76,74);"/>
                            </g>
                            <path d="M1918.973,1001.062C1920.166,1001.627 1921.363,1002.186 1922.557,1002.737C1922.583,1005.16 1922.435,1009.53 1921.016,1009.363C1919.649,1009.202 1919.154,1004.318 1918.973,1001.062ZM1953.681,1015.242C1954.728,1015.312 1956.112,1015.033 1957.783,1014.499C1958.044,1017.388 1958.45,1023.227 1956.439,1023.423C1954.928,1023.57 1954.091,1018.758 1953.681,1015.242ZM1970.546,1009.132C1971.658,1008.633 1972.805,1008.121 1973.981,1007.605C1974.175,1010.83 1974.321,1017.505 1971.998,1015.713C1971.07,1014.997 1970.601,1011.719 1970.546,1009.132Z" style="fill:rgb(195,100,64);"/>
                            <path d="M1931.029,974.294C1931.077,976.358 1931.135,978.965 1931.083,982.758C1936.772,985.894 1947.986,991.687 1950.565,991.94C1951.345,992.016 1952.279,991.876 1953.396,991.566C1956.185,990.793 1960.122,988.959 1965.69,986.771C1965.635,985.881 1965.569,984.783 1965.502,983.566C1966.857,984.11 1968.251,984.673 1969.682,985.256C1972.393,986.359 1975.241,987.532 1978.228,988.781L1978.244,989.14C1961.306,996.252 1958.131,999.731 1954.336,998.906C1946.479,997.198 1918.413,984.526 1916.082,983.585L1913.466,982.531L1913.545,982.422C1915.337,980.052 1923.267,977.089 1931.029,974.294ZM1913.466,982.531L1916.082,983.585C1918.413,984.526 1946.479,997.198 1954.336,998.906C1958.131,999.731 1961.306,996.252 1978.244,989.14C1978.354,991.619 1978.459,993.575 1978.56,995.331C1978.752,998.673 1978.931,1001.292 1979.113,1005.417C1978.711,1005.583 1978.311,1005.749 1977.914,1005.915C1976.571,1006.478 1975.258,1007.044 1973.981,1007.605C1972.805,1008.121 1971.658,1008.633 1970.546,1009.132C1965.444,1011.422 1961.061,1013.451 1957.783,1014.499C1956.112,1015.033 1954.728,1015.312 1953.681,1015.242C1953.573,1015.234 1953.469,1015.223 1953.369,1015.209C1950.875,1014.842 1936.884,1009.349 1922.557,1002.737C1921.363,1002.186 1920.166,1001.627 1918.973,1001.062C1917.374,1000.305 1915.782,999.539 1914.212,998.768C1913.479,988.225 1911.762,984.946 1913.466,982.531Z" style="fill:rgb(191,227,199);"/>
                            <path d="M1954.325,1015.244C1954.098,1015.256 1953.883,1015.255 1953.681,1015.242C1953.573,1015.234 1953.469,1015.223 1953.369,1015.209C1950.875,1014.842 1936.884,1009.349 1922.557,1002.737C1921.363,1002.186 1920.166,1001.627 1918.973,1001.062C1917.374,1000.305 1915.782,999.539 1914.212,998.768C1913.636,990.472 1912.449,986.674 1912.8,984.255C1913.978,983.899 1915.231,983.737 1916.492,983.757C1918.02,983.781 1919.562,984.072 1921.001,984.61C1927.55,987.06 1930.65,990.898 1955.222,998.609C1955.22,998.747 1955.218,998.884 1955.216,999.021C1955.101,1006.766 1955.037,1012.027 1954.325,1015.244Z" style="fill:rgb(163,218,191);"/>
                        </g>
                        <path d="M2009.748,953.517C2009.672,954.398 2009.405,954.633 2008.606,954.731C2008.277,954.771 2004.8,955.196 2004.483,954.396C2004.322,953.993 2004.704,947.335 2004.012,946.272C2004.223,945.798 2009.866,944.495 2009.792,946.496C2009.649,950.41 2009.84,952.443 2009.748,953.517ZM2004.969,965.221C2003.781,963.461 2002.909,961.056 2002.276,958.663C2001.204,954.609 2000.818,950.59 2000.742,949.804C2000.55,947.809 2000.434,945.944 2000.383,944.201C1999.803,924.158 2007.972,920.24 2011.418,921.006C2011.649,921.103 2011.588,921.139 2011.857,921.19C2016.328,922.033 2020.514,922.379 2019.743,958.775C2019.566,967.152 2011.893,970.598 2006.851,967.199C2006.15,966.726 2005.525,966.044 2004.969,965.221ZM2009.748,953.517C2009.84,952.443 2009.649,950.41 2009.792,946.496C2009.866,944.495 2004.223,945.798 2004.012,946.272C2004.704,947.335 2004.322,953.993 2004.483,954.396C2004.8,955.196 2008.277,954.771 2008.606,954.731C2009.405,954.633 2009.672,954.398 2009.748,953.517Z" style="fill:rgb(237,237,235);"/>
                    </g>
                    <g id="outline1" serif:id="outline">
                        <path d="M1997.482,949.772C1998.567,950.112 1999.692,950.463 2000.848,950.823M2009.825,953.592L2009.743,953.567M2019.784,956.625L2020.145,956.735C2026.659,958.707 2032.793,960.546 2037.299,961.884M1967.653,970.589L1967.629,970.357C1965.181,946.676 1965.438,943.611 1968.596,939.579C1972.875,934.116 1983.339,930.01 1992.844,927.164C1995.373,927.974 1998.492,928.954 2001.916,930.023M2019.288,935.431C2028.551,938.325 2036.896,940.975 2039.763,942.088C2051.59,946.681 2055.953,948.914 2072.941,953.529C2072.94,953.588 2072.939,953.648 2072.938,953.707C2072.874,957.74 2072.927,961.379 2073.019,964.63C2073.195,970.87 2073.514,975.68 2073.424,979.097C2073.404,979.855 2073.364,980.544 2073.297,981.165M2019.67,941.477C2021.092,941.963 2022.524,942.451 2023.957,942.94C2035.942,947.025 2048.104,951.141 2054.764,953.392L2055.002,953.473C2052.347,954.404 2049.406,955.547 2046.531,956.84C2043.175,958.35 2039.909,960.065 2037.299,961.884C2036.663,962.326 2036.067,962.775 2035.517,963.228C2034.875,963.759 2034.296,964.295 2033.795,964.836C2033.507,965.147 2033.244,965.459 2033.009,965.772C2031.513,967.768 2030.595,970.807 2030.075,974.077C2029.991,974.604 2029.917,975.138 2029.854,975.675C2029.839,975.8 2029.824,975.926 2029.81,976.052C2029.513,978.733 2029.451,981.459 2029.528,983.805C2019.689,980.629 2013.541,978.865 2007.941,977.12C2003.13,975.622 1998.722,974.137 1992.725,971.784C1992.123,971.548 1991.504,971.303 1990.868,971.048C1989.895,970.659 1988.881,970.247 1987.817,969.809C1983.489,968.029 1978.431,966.17 1973.755,964.494C1973.489,962.413 1973.324,959.265 1974.537,956.64C1975.079,955.466 1975.898,954.397 1977.106,953.576C1975.867,949.05 1975.498,944.569 1979.985,941.32C1979.594,940.199 1979.122,939.26 1978.545,938.626C1978.617,938.547 1992.233,930.044 1994.492,930.238C1995.177,930.297 1995.815,931.567 1996.356,933.436C1997.679,933.902 1999.18,934.427 2000.824,934.998M2036.95,997.196C2035.989,996.931 2035.014,996.658 2034.024,996.377C2026.345,994.197 2017.739,991.497 2007.228,987.505C2006.572,987.256 2005.861,986.996 2005.102,986.726M1996.356,933.436C1995.815,931.567 1995.177,930.297 1994.492,930.238C1992.233,930.044 1978.617,938.547 1978.545,938.626C1979.122,939.26 1979.594,940.199 1979.985,941.32C1980.966,944.126 1981.444,948.067 1981.798,951.191C1982.078,953.652 1982.281,955.606 1982.594,956.098C1983.657,957.769 1996.483,950.437 1997.482,949.772C1997.516,949.749 1997.536,949.735 1997.542,949.728C1997.967,949.242 1998.107,947.407 1998.027,945.045C1997.904,941.432 1997.268,936.585 1996.356,933.436ZM1996.35,933.434L1996.356,933.436M1996.35,933.434C1996.352,933.435 1996.354,933.435 1996.356,933.436M1981.798,951.191C1980.398,951.808 1979.38,952.319 1977.85,953.128C1977.587,953.268 1977.339,953.417 1977.106,953.576C1975.898,954.397 1975.079,955.466 1974.537,956.64C1973.324,959.265 1973.489,962.413 1973.755,964.494M2023.957,942.94C2020.253,946.6 2020.016,951.045 2020.145,956.735M2035.517,963.228C2030.944,962.863 2023.611,962.978 2021.159,966.549C2020.553,967.432 2017.956,971.43 2030.075,974.077M2036.95,997.196C2044.331,994.556 2065.166,985.225 2073.297,981.165M1965.126,971.204L1965.118,971.672M1965.126,971.204L1965.118,971.672M1931.156,967.616L1931.808,967.865C1947.015,973.68 1948.188,975.362 1951.797,975.904C1952.14,975.955 1952.505,975.996 1952.906,976.03C1954.08,976.128 1954.556,976.167 1964.893,971.768L1965.118,971.672M1946.307,963.583C1951.424,965.694 1959.594,968.98 1965.126,971.204M1913.029,988.386C1912.782,986.589 1912.649,985.294 1912.8,984.255C1912.895,983.599 1913.102,983.045 1913.466,982.531L1916.082,983.585C1916.177,983.623 1916.315,983.681 1916.492,983.757C1918.853,984.765 1928.235,988.954 1937.305,992.699C1944.275,995.577 1951.061,998.194 1954.336,998.906C1954.631,998.97 1954.922,999.008 1955.216,999.021C1958.707,999.169 1962.622,995.699 1978.244,989.14C1978.281,989.97 1978.317,990.742 1978.353,991.467C1978.424,992.906 1978.492,994.163 1978.56,995.331C1978.752,998.673 1978.931,1001.292 1979.113,1005.417C1978.711,1005.583 1978.311,1005.749 1977.914,1005.915C1976.571,1006.478 1975.258,1007.044 1973.981,1007.605C1972.805,1008.121 1971.658,1008.633 1970.546,1009.132C1965.444,1011.422 1961.061,1013.451 1957.783,1014.499C1956.435,1014.93 1955.273,1015.195 1954.325,1015.244C1954.098,1015.256 1953.883,1015.255 1953.681,1015.242C1953.573,1015.234 1953.469,1015.223 1953.369,1015.209C1950.875,1014.842 1936.884,1009.349 1922.557,1002.737C1921.363,1002.186 1920.166,1001.627 1918.973,1001.062C1918.14,1000.668 1917.309,1000.271 1916.482,999.872C1915.721,999.505 1914.964,999.137 1914.212,998.768C1913.884,994.038 1913.356,990.77 1913.029,988.386ZM1931.156,967.616C1931.137,967.798 1931.12,967.976 1931.104,968.152C1931.331,968.057 1931.566,967.961 1931.808,967.865L1931.156,967.616ZM1954.35,1019.485C1954.056,1018.113 1953.837,1016.583 1953.681,1015.242C1953.883,1015.255 1954.098,1015.256 1954.325,1015.244C1955.273,1015.195 1956.435,1014.93 1957.783,1014.499C1957.887,1015.648 1958.014,1017.265 1958.002,1018.808C1957.984,1021.141 1957.65,1023.305 1956.439,1023.423C1955.504,1023.514 1954.828,1021.708 1954.35,1019.485ZM1922.557,1002.737C1922.583,1005.16 1922.435,1009.53 1921.016,1009.363C1919.649,1009.202 1919.154,1004.318 1918.973,1001.062C1920.166,1001.627 1921.363,1002.186 1922.557,1002.737ZM1973.981,1007.605C1974.175,1010.83 1974.321,1017.505 1971.998,1015.713C1971.07,1014.997 1970.601,1011.719 1970.546,1009.132C1971.658,1008.633 1972.805,1008.121 1973.981,1007.605ZM1978.228,988.781L1978.244,989.14L1978.665,988.963L1978.228,988.781ZM1969.682,985.256L1970.036,985.127M1931.156,967.616C1931.137,967.798 1931.12,967.976 1931.104,968.152C1931.331,968.057 1931.566,967.961 1931.808,967.865L1931.156,967.616ZM1922.557,1002.737C1922.583,1005.16 1922.435,1009.53 1921.016,1009.363C1919.649,1009.202 1919.154,1004.318 1918.973,1001.062C1920.166,1001.627 1921.363,1002.186 1922.557,1002.737ZM1978.228,988.781L1978.244,989.14L1978.665,988.963L1978.228,988.781ZM1969.682,985.256L1970.036,985.127M1965.502,983.566C1966.857,984.11 1968.251,984.673 1969.682,985.256C1972.393,986.359 1975.241,987.532 1978.228,988.781L1978.665,988.963M1931.029,974.294C1923.267,977.089 1915.337,980.052 1913.545,982.422L1913.466,982.531C1911.762,984.946 1913.479,988.225 1914.212,998.768M1978.228,988.781L1978.244,989.14C1978.564,996.338 1978.835,999.125 1979.113,1005.417M1918.973,1001.062C1919.154,1004.318 1919.649,1009.202 1921.016,1009.363C1922.435,1009.53 1922.583,1005.16 1922.557,1002.737M1931.083,982.758C1936.772,985.894 1947.986,991.687 1950.565,991.94C1951.345,992.016 1952.279,991.876 1953.396,991.566C1956.185,990.793 1960.122,988.959 1965.69,986.771M1969.682,985.256C1969.799,985.213 1969.917,985.17 1970.036,985.127M1951.797,975.904C1951.844,976.651 1951.902,977.444 1951.968,978.262C1952.344,982.92 1952.985,988.442 1953.396,991.566M1965.126,971.204L1965.118,971.672C1965.077,974.957 1965.295,979.819 1965.502,983.566C1965.569,984.783 1965.635,985.881 1965.69,986.771M1931.156,967.616C1931.137,967.798 1931.12,967.976 1931.104,968.152C1930.929,970.155 1930.972,971.842 1931.029,974.294C1931.077,976.358 1931.135,978.965 1931.083,982.758M1931.104,968.152C1931.331,968.057 1931.566,967.961 1931.808,967.865C1936.298,966.086 1943.209,964.344 1946.307,963.583" style="fill:none;stroke:rgb(82,72,72);stroke-width:0.92px;stroke-linecap:round;stroke-linejoin:round;stroke-miterlimit:1.5;"/>
                        <path d="M1999.767,991.478C1998.605,992.196 1997.324,992.859 1995.949,993.441C1996.951,997.798 1997.836,997.623 1998.362,997.392C1999.651,996.823 1999.834,993.866 1999.767,991.478ZM1985.004,995.87C1983.56,995.916 1982.092,995.856 1980.619,995.671C1980.612,997.538 1981.172,1001.001 1982.41,1001.597C1982.903,1001.834 1984.724,1002.488 1985.004,995.87ZM2005.102,986.726C2006.517,984.698 2006.901,982.662 2005.869,981.007C2005.055,979.701 2003.358,978.632 2000.591,977.991C2000.023,977.86 1999.455,977.719 1998.889,977.571C1995.328,976.642 1991.807,975.414 1988.415,974.211L1988.384,974.2C1986.319,973.467 1984.302,972.744 1982.354,972.103C1976.703,970.242 1971.63,969.07 1967.629,970.357C1966.878,970.598 1966.166,970.926 1965.494,971.352C1965.368,971.432 1965.243,971.516 1965.12,971.603C1965.043,971.657 1964.968,971.712 1964.893,971.768M2003.554,988.545C2002.519,989.574 2001.239,990.57 1999.767,991.478M1995.949,993.441C1992.704,994.816 1988.941,995.742 1985.004,995.87M1980.619,995.671C1979.933,995.585 1979.246,995.472 1978.56,995.331M1980.619,995.671C1980.612,997.538 1981.172,1001.001 1982.41,1001.597C1982.903,1001.834 1984.724,1002.488 1985.004,995.87M1995.949,993.441C1996.951,997.798 1997.836,997.623 1998.362,997.392C1999.651,996.823 1999.834,993.866 1999.767,991.478M1977.389,1006.136C1984.526,1008.826 2001.638,1013.897 2011,1004.272C2018.799,996.253 2008.963,991.812 2002.113,989.829" style="fill:none;stroke:rgb(82,72,72);stroke-width:0.92px;stroke-linecap:round;stroke-linejoin:round;stroke-miterlimit:1.5;"/>
                        <path d="M2011.418,921.006C2007.672,920.174 1998.346,924.874 2000.742,949.804C2000.883,951.272 2002.107,964.001 2006.851,967.199C2011.893,970.598 2019.566,967.152 2019.743,958.775C2019.88,952.33 2019.861,947.016 2019.712,942.629C2019.023,922.241 2015.537,921.884 2011.857,921.19C2011.588,921.139 2011.649,921.103 2011.418,921.006ZM2004.012,946.272C2004.223,945.798 2009.866,944.495 2009.792,946.496C2009.531,953.619 2010.38,954.514 2008.606,954.731C2008.277,954.771 2004.8,955.196 2004.483,954.396C2004.322,953.993 2004.704,947.335 2004.012,946.272ZM2006.653,950.953C2007.091,950.515 2013,957.084 2014.053,957.29C2015.484,957.569 2014.592,947.577 2014.569,947.292M2002.276,958.663C1999.835,961.315 1998.185,962.98 1996.731,964.47C1994.869,966.379 1993.33,968.003 1990.868,971.048C1990.123,971.97 1989.293,973.022 1988.344,974.252C1988.014,974.679 1987.671,975.127 1987.311,975.598C1985.799,977.583 1983.049,972.973 1980.924,970.108M2011.103,961.862C2008.622,963.239 2006.647,964.317 2004.969,965.221C2004.018,965.733 2003.162,966.19 2002.364,966.613C1999.056,968.369 1996.744,969.552 1992.725,971.784C1991.461,972.486 1990.029,973.292 1988.344,974.252M2000.383,944.201C1999.715,944.458 1998.988,944.703 1998.027,945.045C1995.667,945.885 1991.899,947.315 1984.139,950.974M2003.639,934.446L2003.646,937.23M2009.955,935.594C2010.012,937.518 2010.012,937.488 2010.148,939.383" style="fill:none;stroke:rgb(82,72,72);stroke-width:1.48px;stroke-linecap:round;stroke-linejoin:round;stroke-miterlimit:1.5;"/>
                    </g>
                </g>
            </g>
            <g id="sushi-top" transform="matrix(0.887258,0,0,0.890869,223.175554,116.377137)">
                <g id="color2" serif:id="color">
                    <g transform="matrix(1,0,0,1,-1.52706,-0)">
                        <path d="M1925.47,950.704C1928.597,949.432 1931.512,948.128 1934.299,946.791C1941.58,948.13 1956.149,949.476 1959.014,950.58C1976.82,957.445 1995.605,972.367 1995.897,972.512C2016.133,982.505 2023.137,991.474 2025.684,993.333C2028.933,995.704 2031.331,997.342 2033.109,999.799C2036.296,1004.203 2037.487,1011.238 2038.003,1029.842C2033.885,1032.566 2030.847,1033.865 2023.092,1038.795C1990.023,1059.821 1989.14,1068.546 1969.629,1058.025C1956.577,1050.987 1951.241,1052.78 1943.653,1048.279C1919.123,1033.729 1913.585,1036.562 1906.266,1032.224C1896.607,1026.501 1896.107,1027.979 1885.349,1025.084C1867.67,1020.327 1860.447,1026.011 1859.132,1009.796C1857.39,988.313 1856.299,974.86 1862.987,969.562C1863.761,968.949 1864.5,968.445 1865.219,968.029C1873.978,962.966 1879.793,971.015 1909.113,955.523C1911.721,954.145 1917.385,953.782 1920.787,952.522C1922.404,951.923 1923.962,951.317 1925.47,950.704ZM2087.761,996.004C2087.384,990.24 2086.203,985.129 2083.65,981.197C2082.98,980.164 2082.215,979.213 2081.345,978.352C2075.034,972.107 2074.154,973.254 2067.766,966.992C2062.731,962.057 2058.334,963.436 2052.347,958.144C2044.595,951.292 2044.132,951.993 2025.305,943.455C2016.407,939.419 2000.274,925.373 1985.471,920.494C1995.761,916.124 2008.304,911.505 2024.428,906.615C2041.296,901.5 2041.058,901.037 2057.72,895.094C2060.669,899.068 2069.938,905.865 2071.08,906.703C2076.956,911.012 2078.885,910.649 2085.908,915.091C2111.025,930.977 2115.621,926.552 2124.04,933.423C2132.623,940.429 2137.675,943.388 2140.471,945.501C2143.083,947.475 2143.728,948.712 2143.445,951.821C2141.973,968.014 2145.461,970.757 2138.32,973.285C2128.413,976.794 2128.176,976.435 2120.097,983.141C2104.449,996.133 2102.378,991.618 2091.625,994.728C2090.738,994.984 2089.481,995.347 2087.761,996.004Z" style="fill:rgb(255,239,172);"/>
                    </g>
                    <g>
                        <g transform="matrix(1,0,0,1,7.569953,-2.737773)">
                            <path d="M1857.606,970.767C1862.855,976.618 1869.694,986.365 1879.092,991.971C1887.539,997.01 1895.524,993.937 1921.248,1005.615C1938.222,1013.32 1959.99,1016.549 1963.45,1017.062C1975.827,1018.898 1975.32,1027.242 1988.023,1021.851C2005.849,1014.287 2003.964,1010.586 2022.095,1003.722C2022.307,1003.642 2023.204,1002.978 2024.516,1002.537C2027.684,1006.941 2028.869,1013.976 2029.382,1032.579C2025.288,1035.304 2022.267,1036.602 2014.558,1041.533C1981.682,1062.559 1980.804,1071.284 1961.407,1060.763C1948.431,1053.725 1943.126,1055.517 1935.582,1051.016C1911.195,1036.466 1905.69,1039.3 1898.413,1034.962C1888.811,1029.239 1888.313,1030.717 1877.619,1027.822C1860.043,1023.064 1852.862,1028.749 1851.555,1012.534C1849.823,991.051 1848.738,977.598 1855.387,972.3C1856.156,971.687 1856.891,971.183 1857.606,970.767ZM2080.191,998.742C2079.814,992.978 2078.633,987.867 2076.08,983.935C2081.358,981.512 2086.626,979.249 2100.527,968.095C2102.712,966.341 2121.923,950.926 2132.901,948.239C2135.513,950.213 2136.158,951.45 2135.875,954.559C2134.403,970.751 2137.891,973.494 2130.75,976.023C2120.843,979.532 2120.606,979.172 2112.528,985.879C2096.879,998.871 2094.808,994.356 2084.055,997.465C2083.168,997.722 2081.911,998.085 2080.191,998.742Z" style="fill:rgb(242,211,136);"/>
                        </g>
                        <path d="M2087.761,996.004C2087.384,990.24 2086.203,985.129 2083.65,981.197C2088.928,978.775 2094.196,976.512 2108.097,965.357C2110.282,963.603 2129.493,948.188 2140.471,945.501C2143.083,947.475 2143.728,948.712 2143.445,951.821C2141.973,968.014 2145.461,970.757 2138.32,973.285C2128.413,976.794 2128.176,976.435 2120.097,983.141C2104.449,996.133 2102.378,991.618 2091.625,994.728C2090.738,994.984 2089.481,995.347 2087.761,996.004ZM1865.176,968.029C1870.425,973.88 1877.264,983.627 1886.662,989.233C1895.109,994.272 1903.093,991.2 1928.818,1002.877C1945.792,1010.582 1967.56,1013.811 1971.02,1014.324C1983.397,1016.16 1982.89,1024.504 1995.593,1019.114C2013.418,1011.549 2011.534,1007.848 2029.665,1000.984C2029.877,1000.904 2030.774,1000.24 2032.086,999.799C2035.254,1004.203 2036.439,1011.238 2036.952,1029.842C2032.858,1032.566 2029.837,1033.865 2022.128,1038.795C1989.252,1059.821 1988.374,1068.546 1968.977,1058.025C1956.001,1050.987 1950.696,1052.78 1943.152,1048.279C1918.765,1033.729 1913.26,1036.562 1905.983,1032.224C1896.381,1026.501 1895.883,1027.979 1885.189,1025.084C1867.613,1020.327 1860.432,1026.011 1859.125,1009.796C1857.393,988.313 1856.308,974.86 1862.957,969.562C1863.726,968.949 1864.461,968.445 1865.176,968.029ZM1948.399,948.785C1936.18,957.26 1910.887,963.789 1923.834,976.736C1930.348,983.251 1949.628,984.526 1957.928,989.22C1990.385,1007.577 1992.665,997.679 2011.223,985.57C2012.245,984.904 2013.299,984.253 2014.383,983.617M2063.244,963.856C2082.733,956.755 2095.897,950.012 2084.377,938.918C2078.48,933.24 2069.092,936.315 2056.488,923.002C2044.973,910.841 2025.584,921.14 2003.827,929.84M2090.875,961.295C2092.023,957.85 2096.853,959.92 2097.336,960.127M2114.419,937.75C2120.416,936.084 2120.838,937.582 2122.961,939.977M2088.137,930.632C2092.169,930.296 2093.124,930.808 2095.62,932.566M2104.563,941.035C2107.543,939.41 2110.349,943.338 2110.66,943.773M1894.85,975.531C1896.575,972.598 1902.035,975.327 1902.588,975.604M1903.063,985.387C1903.063,984.921 1904.623,984.139 1906.056,983.927C1909.15,983.471 1908.977,984.238 1911.751,985.679M1996.695,1005.099C1996.171,1004.772 1997.474,999.377 2005.31,1002.982" style="fill:none;stroke:rgb(242,211,136);stroke-width:2.35px;stroke-linecap:round;stroke-linejoin:round;stroke-miterlimit:1.5;"/>
                    </g>
                    <g>
                        <path d="M2038.003,1029.842C2037.487,1011.238 2036.296,1004.203 2033.109,999.799C2031.331,997.342 2028.933,995.704 2025.684,993.333C2023.137,991.474 2016.133,982.505 1995.897,972.512C1995.605,972.367 1976.82,957.445 1959.014,950.58C1956.149,949.476 1941.58,948.13 1934.299,946.791C1931.512,948.128 1928.597,949.432 1925.47,950.704C1924.936,948.25 1924.956,945.025 1927.621,942.754C1936.592,935.108 1939.629,940.28 1966.256,921.757C1971.759,917.929 1978.466,918.185 1985.471,920.494C2000.274,925.373 2016.407,939.419 2025.305,943.455C2044.132,951.993 2044.595,951.292 2052.347,958.144C2058.334,963.436 2062.731,962.057 2067.766,966.992C2074.154,973.254 2075.034,972.107 2081.345,978.352C2082.215,979.213 2082.98,980.164 2083.65,981.197C2086.203,985.129 2087.384,990.24 2087.761,996.004C2088.063,1000.615 2087.849,1005.645 2087.412,1010.822C2086.554,1020.974 2084.834,1031.698 2084.441,1040.963C2084.204,1046.532 2083.595,1049.206 2083.595,1049.206C2074.279,1055.978 2055.09,1072.68 2031.366,1072.025C2035.936,1065.998 2037.654,1058.2 2038.065,1046.643C2038.237,1041.806 2038.18,1036.311 2038.008,1030.012L2038.003,1029.842Z" style="fill:rgb(91,85,73);"/>
                        <path d="M2083.264,980.627C2083.396,980.814 2083.525,981.004 2083.65,981.197C2086.203,985.129 2087.384,990.24 2087.761,996.004C2088.063,1000.615 2087.849,1005.645 2087.412,1010.822C2086.554,1020.974 2084.834,1031.698 2084.441,1040.963C2084.204,1046.532 2083.595,1049.206 2083.595,1049.206C2074.279,1055.978 2055.09,1072.68 2031.366,1072.025C2035.936,1065.998 2037.654,1058.2 2038.065,1046.643C2038.237,1041.806 2038.18,1036.311 2038.008,1030.012L2038.003,1029.842C2037.572,1014.295 2036.669,1006.828 2034.524,1002.223C2046.33,995.66 2070.277,985.92 2083.264,980.627Z" style="fill:rgb(82,75,62);"/>
                        <g transform="matrix(0.975902,-0.218209,0.159083,0.71147,-772.681354,613.499184)">
                            <path d="M2653.617,1334.442C2654.036,1336.12 2657.882,1339.058 2661.881,1344.854C2667.033,1352.32 2668.221,1364.657 2668.398,1365.607M2659.624,1331.165C2659.915,1330.582 2670.4,1336.358 2675.753,1364.114M2668.362,1327.888C2677.648,1336.879 2680.147,1346.62 2681.651,1358.107M2676.008,1325.157C2686.858,1335.606 2688.773,1353.673 2690.207,1356.65M2682.561,1321.335C2691.826,1330.599 2695.31,1337.551 2697.889,1356.614" style="fill:none;stroke:rgb(105,100,87);stroke-width:1.79px;stroke-linecap:round;stroke-linejoin:round;stroke-miterlimit:1.5;"/>
                        </g>
                    </g>
                </g>
                <g id="outline2" serif:id="outline" transform="matrix(1,0,0,1,7.569953,-2.588126)">
                    <path d="M1917.9,953.292C1916.392,953.905 1914.834,954.511 1913.217,955.11C1909.815,956.37 1904.151,956.733 1901.543,958.111C1872.223,973.603 1866.408,965.554 1857.649,970.617C1856.93,971.033 1856.191,971.537 1855.417,972.15C1848.729,977.448 1849.82,990.901 1851.562,1012.385C1852.877,1028.599 1860.1,1022.915 1877.779,1027.672C1888.537,1030.567 1889.037,1029.089 1898.696,1034.812C1906.016,1039.15 1911.553,1036.317 1936.083,1050.867C1943.671,1055.368 1949.007,1053.575 1962.059,1060.613C1981.57,1071.135 1982.453,1062.409 2015.522,1041.383C2023.277,1036.453 2026.315,1035.154 2030.433,1032.43L2030.438,1032.6C2030.61,1038.9 2030.667,1044.395 2030.495,1049.231C2030.084,1060.788 2028.366,1068.586 2023.796,1074.613C2047.52,1075.268 2066.709,1058.566 2076.025,1051.794C2076.025,1051.794 2076.634,1049.12 2076.871,1043.551C2077.264,1034.286 2078.984,1023.563 2079.842,1013.411C2080.28,1008.233 2080.493,1003.203 2080.191,998.592C2081.911,997.936 2083.168,997.572 2084.055,997.316C2094.808,994.206 2096.879,998.722 2112.528,985.73C2120.606,979.023 2120.843,979.382 2130.75,975.874C2137.891,973.345 2134.403,970.602 2135.875,954.409C2136.158,951.3 2135.513,950.063 2132.901,948.089C2130.105,945.976 2125.053,943.017 2116.47,936.011C2108.051,929.14 2103.455,933.565 2078.338,917.679C2071.315,913.237 2069.386,913.6 2063.51,909.291C2062.369,908.453 2053.099,901.656 2050.15,897.683C2033.488,903.625 2033.726,904.088 2016.859,909.203C2000.734,914.093 1988.191,918.712 1977.901,923.082C1970.896,920.773 1964.189,920.517 1958.686,924.345C1932.059,942.868 1929.022,937.696 1920.051,945.342C1917.386,947.613 1917.366,950.838 1917.9,953.292ZM1977.901,923.082C1970.896,920.773 1964.189,920.517 1958.686,924.345C1932.059,942.868 1929.022,937.696 1920.051,945.342C1917.386,947.613 1917.366,950.838 1917.9,953.292C1921.027,952.02 1923.942,950.716 1926.729,949.379C1934.01,950.718 1948.579,952.064 1951.444,953.168C1969.25,960.033 1988.035,974.955 1988.327,975.1C2008.563,985.093 2015.567,994.062 2018.114,995.921C2021.363,998.292 2023.761,999.93 2025.539,1002.387C2028.726,1006.791 2029.917,1013.826 2030.433,1032.43L2030.438,1032.6C2030.61,1038.9 2030.667,1044.395 2030.495,1049.231C2030.084,1060.788 2028.366,1068.586 2023.796,1074.613C2047.52,1075.268 2066.709,1058.566 2076.025,1051.794C2076.025,1051.794 2076.634,1049.12 2076.871,1043.551C2077.264,1034.286 2078.984,1023.563 2079.842,1013.411C2080.28,1008.233 2080.493,1003.203 2080.191,998.592C2079.814,992.828 2078.633,987.717 2076.08,983.785C2075.41,982.752 2074.645,981.801 2073.775,980.94C2067.464,974.695 2066.584,975.843 2060.196,969.58C2055.161,964.645 2050.764,966.024 2044.777,960.732C2037.025,953.88 2036.562,954.582 2017.735,946.043C2008.837,942.007 1992.704,927.961 1977.901,923.082ZM1926.729,949.379C1924.531,948.975 1922.997,948.571 1922.65,948.175" style="fill:none;stroke:rgb(82,72,72);stroke-width:1.53px;stroke-linecap:round;stroke-linejoin:round;stroke-miterlimit:1.5;"/>
                </g>
            </g>
            <g id="connectors">
                <g id="connector2-start" transform="matrix(0.525327,0,0,0.525327,1209.59893,656.697733)">
                    <circle cx="1676.335" cy="689.818" r="8.708" style="fill:current-color;"/>
                </g>
                <g id="connector1-start" transform="matrix(0.525327,0,0,0.525327,1036.674131,621.398679)">
                    <circle cx="1676.335" cy="689.818" r="8.708" style="fill:current-color;"/>
                </g>
            </g>
        </g>
    </g>
</svg>