<?xml version="1.0" encoding="UTF-8" standalone="no"?>
<!DOCTYPE svg PUBLIC "-//W3C//DTD SVG 1.1//EN" "http://www.w3.org/Graphics/SVG/1.1/DTD/svg11.dtd">
<svg width="100%" height="100%" viewBox="0 0 598 366" version="1.1" xmlns="http://www.w3.org/2000/svg" xmlns:xlink="http://www.w3.org/1999/xlink" xml:space="preserve" xmlns:serif="http://www.serif.com/" style="fill-rule:evenodd;clip-rule:evenodd;">
    <g transform="matrix(1,0,0,1,-102.652275,-565.837944)">
        <g id="roe" transform="matrix(0.795553,0,0,0.795553,6.912457,136.112166)">
            <g id="plate-shadow" transform="matrix(1.263189,0,0,1.263189,122.947836,725.796374)">
                <g id="plate-shadow1" serif:id="plate-shadow">
                    <ellipse id="plate-shadow2" serif:id="plate-shadow" cx="295.704" cy="110.569" rx="295.704" ry="105.987" style="fill:current-color;"/>
                </g>
            </g>
            <g id="sushi-base">
                <g id="plate-base" transform="matrix(1.263189,0,0,1.263189,122.313715,724.667778)">
                    <g id="plate-base1" serif:id="plate-base">
                        <path id="plate-base2" serif:id="plate-base" d="M295.706,0.5C377.321,0.5 451.187,12.358 504.632,31.514C531.356,41.092 552.949,52.486 567.85,65.113C582.753,77.742 590.91,91.557 590.91,105.987C590.91,120.417 582.753,134.231 567.85,146.86C552.949,159.488 531.356,170.882 504.632,180.461C451.187,199.617 377.32,211.475 295.706,211.475C214.092,211.475 140.225,199.617 86.78,180.461C60.056,170.882 38.465,159.488 23.564,146.86C8.66,134.231 0.502,120.418 0.502,105.987C0.502,91.557 8.66,77.742 23.564,65.113C38.465,52.486 60.056,41.092 86.78,31.514C140.225,12.358 214.092,0.5 295.706,0.5Z" style="fill:rgb(239,234,231);fill-rule:nonzero;stroke:rgb(55,48,48);stroke-width:1px;"/>
                    </g>
                </g>
                <g id="sushi-shadow" transform="matrix(1.231984,0.012629,-0.013726,1.338993,-131.070538,-248.686715)">
                    <path d="M392.132,836.33C363.759,832.856 352.29,874.039 398.674,873.165C407.16,873.005 410.416,895.653 434.179,881.791C446.253,874.748 452.627,900.407 485.621,874.143C522.538,879.027 513.557,858.396 524.753,853.325C529.654,851.106 560.111,864.085 564.39,836.442C574.69,834.461 582.314,837.491 588.431,828.898C629.626,829.994 620.438,806.924 629.784,806.748C655.385,806.265 643.99,787.929 649.766,785.272C659.891,780.615 668.511,770.955 658.797,756.991C656.019,752.997 659.398,726.302 629.997,732.01C624.195,733.137 619.953,734.243 561.284,759.169C525.213,731.625 525.594,768.852 515.509,768.988C495.697,769.256 485.73,765.238 466.443,790.037C457.267,801.834 432.633,782.291 424.416,811.797C421.755,821.353 416.691,814.582 408.112,819.603C394.592,827.517 393.305,832.251 392.132,836.33Z" style="fill: current-color;"/>
                </g>
                <g id="base" transform="matrix(0.957262,0,0,0.957262,13.711092,26.60561)">
                    <g id="color">
                        <g>
                            <path d="M713.71,653.833C713.693,654.167 713.674,654.501 713.655,654.835C712.575,658.171 703.138,663.009 692.296,668.37C693.535,663.569 694.371,658.062 694.603,652.906C701.712,651.987 707.286,650.924 708.297,651.108C711.747,651.735 713.415,652.663 713.71,653.833ZM335.691,741.816C338.626,744.066 341.259,745.502 341.938,745.872C325.866,762.515 333.579,773.581 339.611,777.127L339.413,777.24C324.699,785.672 316.039,786.695 311.876,783.852C305.373,779.412 309.837,765.54 319.325,755.729C323.402,751.513 329.084,746.77 335.691,741.816ZM311.876,783.852C316.039,786.695 324.699,785.672 339.413,777.24L339.611,777.127C384.052,751.65 385.469,747.556 486.611,756.173C560.279,762.45 547.019,730.902 556.477,725.596C574.262,715.619 608.64,731.928 661.631,685.774C668.091,680.148 680.961,673.973 692.296,668.37C703.138,663.009 712.575,658.171 713.655,654.835C711.195,696.782 688.386,740.567 686.222,746.704C677.732,770.776 676.093,786.729 676.269,798.414C656.771,818.08 630.701,841.323 599.024,852.198C548.641,869.493 548.763,869.647 544.365,871.085C503.637,884.4 503.136,891.902 476.373,905.627C432.418,928.168 360.584,903.136 357.59,901.03C345.078,892.229 348.645,870.117 351.919,857.664C339.918,838.471 323.139,809.98 311.876,783.852Z" style="fill:rgb(91,85,73);"/>
                            <g transform="matrix(1.006642,-0.156164,0.16559,1.067401,-54.218562,502.525407)">
                                <path d="M486.657,403.582C477.787,418.327 470.685,429.832 464.619,439.21M514.656,388.916C503.422,406.558 495.517,419.102 488.775,429.399M547.989,372.916C533.558,395.886 525.011,410.337 517.504,422.203M574.656,364.916C568.97,373.894 564.555,389.573 551.1,414.338C550.679,415.112 550.238,415.905 549.779,416.714M597.322,358.25C591.605,373.792 580.819,394.108 569.634,413.343M619.988,346.25C622.826,352.633 610.324,379.52 609.055,382.249C604.886,391.215 600.372,399.897 595.828,408.04M649.321,322.25C637.89,359.749 630.746,378.746 620.164,398.934M673.321,310.25C660.403,349.335 655.618,362.727 643.056,386.77" style="fill:none;stroke:rgb(105,100,87);stroke-width:4.88px;stroke-linecap:round;stroke-linejoin:round;stroke-miterlimit:1.5;"/>
                            </g>
                        </g>
                        <g transform="matrix(1,0,0,1,-5.227639,-712.502892)">
                            <path d="M655.781,1346.364C664.514,1346.752 671.331,1352.643 680.49,1359.747C680.597,1359.383 683.593,1339.437 695.741,1347.867C699.084,1350.186 700.192,1357.37 699.831,1365.409C699.599,1370.565 698.762,1376.072 697.523,1380.872C686.189,1386.476 673.319,1392.651 666.859,1398.277C613.867,1444.431 579.49,1428.122 561.705,1438.099C552.247,1443.405 565.507,1474.953 491.839,1468.676C390.697,1460.059 389.28,1464.153 344.838,1489.63C338.806,1486.084 331.094,1475.018 347.165,1458.375C346.486,1458.005 343.854,1456.569 340.919,1454.319C334.957,1449.747 327.748,1441.815 333.139,1432.629C341.733,1417.989 356.798,1431.98 358.728,1433.365C356.228,1427.267 346.595,1406.765 353.676,1401.455C361.372,1395.682 367.971,1422.161 368.113,1422.586C368.505,1420.421 371.725,1402.609 380.953,1397.807C380.9,1380.682 402.517,1369.025 412.823,1368.203C396.637,1338.44 430.54,1330.985 436.296,1331.906C448.874,1333.919 451.559,1346.256 451.928,1347.034C455.977,1335.265 459.673,1322.812 470.485,1322.52C481.249,1322.229 478.627,1337.065 478.583,1338.153C489.269,1328.385 494.521,1323.823 513.515,1332.658C511.538,1331.045 492.33,1318.369 498.417,1310.801C506.818,1300.356 517.33,1315.891 520.717,1309.834C521.812,1307.875 532.795,1288.232 544.041,1294.247C550.232,1297.558 545.584,1313.505 545.116,1315.11C546.182,1314.606 556.91,1309.534 560.013,1314.148C560.099,1314.276 560.18,1314.412 560.254,1314.556C562.859,1319.602 554.821,1329.18 553.953,1330.214C555.346,1330.64 556.607,1331.09 557.742,1331.56C559.12,1332.132 560.314,1332.733 561.338,1333.357C571.719,1331.367 584.285,1336.422 584.285,1336.422C592.106,1334.19 600.658,1342.56 601.721,1343.599C607.881,1329.086 621.187,1325.183 626.798,1344.562C640.918,1333.471 655.457,1332.105 655.781,1346.364Z" style="fill:rgb(237,237,235);"/>
                        </g>
                    </g>
                    <g id="outline" transform="matrix(1,0,0,1,-5.227639,-712.502892)">
                        <path d="M340.919,1454.319C334.312,1459.273 328.63,1464.016 324.552,1468.232C315.064,1478.043 310.601,1491.915 317.104,1496.355C321.267,1499.198 329.926,1498.175 344.641,1489.743L344.838,1489.63C389.28,1464.153 390.697,1460.059 491.839,1468.676C565.507,1474.953 552.247,1443.405 561.705,1438.099C579.49,1428.122 613.867,1444.431 666.859,1398.277C673.319,1392.651 686.189,1386.476 697.523,1380.872C708.366,1375.512 717.803,1370.674 718.882,1367.338C718.996,1366.987 719.017,1366.652 718.937,1366.335C718.643,1365.166 716.975,1364.238 713.525,1363.611C712.514,1363.427 706.94,1364.49 699.831,1365.409M317.104,1496.355C328.366,1522.483 345.145,1550.974 357.147,1570.167C364.037,1581.186 369.353,1589.141 371.146,1591.825M357.147,1570.167C353.873,1582.62 350.305,1604.732 362.818,1613.533C365.812,1615.639 437.646,1640.671 481.6,1618.13C508.364,1604.405 508.864,1596.903 549.593,1583.587C553.99,1582.15 553.869,1581.996 604.251,1564.701C635.929,1553.826 661.999,1530.583 681.497,1510.917M718.937,1366.335C718.92,1366.669 718.902,1367.004 718.882,1367.338C716.422,1409.285 693.614,1453.07 691.449,1459.207C682.96,1483.279 681.32,1499.232 681.497,1510.917M344.838,1489.63C338.806,1486.084 331.094,1475.018 347.165,1458.375C346.486,1458.005 343.854,1456.569 340.919,1454.319C334.957,1449.747 327.748,1441.815 333.139,1432.629C341.733,1417.989 356.798,1431.98 358.728,1433.365C356.228,1427.267 346.595,1406.765 353.676,1401.455C361.372,1395.682 367.971,1422.161 368.113,1422.586C368.543,1420.206 372.392,1398.918 383.883,1396.79C395.21,1394.692 394.536,1399.563 394.289,1410.974C399.124,1407.479 404.792,1403.404 411.52,1402.614M655.781,1346.364C664.514,1346.752 671.331,1352.643 680.49,1359.747C680.597,1359.383 683.593,1339.437 695.741,1347.867C699.084,1350.186 700.192,1357.37 699.831,1365.409C699.599,1370.565 698.762,1376.072 697.523,1380.872M551.574,1338.922C560.894,1327.013 584.285,1336.422 584.285,1336.422C592.106,1334.19 600.658,1342.56 601.721,1343.599C607.881,1329.086 621.187,1325.183 626.798,1344.562C640.918,1333.471 655.457,1332.105 655.781,1346.364C655.852,1349.482 655.243,1353.347 653.801,1358.021C655.443,1358.141 671.078,1359.287 674.511,1366.019C675.187,1367.344 675.39,1368.886 674.92,1370.679C674.19,1373.465 666.233,1380.212 650.003,1375.343M380.953,1397.807C380.9,1380.682 402.517,1369.025 412.823,1368.203C396.637,1338.44 430.54,1330.985 436.296,1331.906C448.874,1333.919 451.559,1346.256 451.928,1347.034C455.977,1335.265 459.673,1322.812 470.485,1322.52C481.249,1322.229 478.627,1337.065 478.583,1338.153C489.269,1328.385 494.521,1323.823 513.515,1332.658C511.538,1331.045 492.33,1318.369 498.417,1310.801C506.818,1300.356 517.33,1315.891 520.717,1309.834C521.812,1307.875 532.795,1288.232 544.041,1294.247C550.232,1297.558 545.584,1313.505 545.116,1315.11C546.182,1314.606 556.91,1309.534 560.013,1314.148C560.099,1314.276 560.18,1314.412 560.254,1314.556C562.859,1319.602 554.821,1329.18 553.953,1330.214C555.346,1330.64 556.607,1331.09 557.742,1331.56C559.12,1332.132 560.314,1332.733 561.338,1333.357M588.813,1407.989C586.794,1409.335 588.219,1420.831 594.684,1423.417C602.824,1426.673 605.551,1409.023 605.788,1407.488M458.427,1431.199C453.704,1425.426 439.296,1425.2 434.853,1427.422C433.408,1428.144 421.095,1435.835 445.428,1444.622C444.277,1444.683 431.928,1445.33 434.443,1453.954C436.493,1460.981 454.812,1456.905 456.97,1456.548" style="fill:none;stroke:rgb(82,72,72);stroke-width:2.8px;stroke-linecap:round;stroke-linejoin:round;stroke-miterlimit:1.5;"/>
                    </g>
                </g>
                <g id="room" transform="matrix(0.957262,0,0,0.957262,13.711092,26.60561)">
                    <g id="color1" serif:id="color">
                        <g>
                            <g transform="matrix(1,0,0,1,-5.227639,-712.502892)">
                                <path d="M384.826,1412.85C381.079,1414.157 373.879,1416.249 366.793,1415.728C364.751,1415.578 362.857,1415.133 361.279,1414.642C361.757,1408.87 366.76,1407.037 371.579,1406.708C371.839,1408.438 371.9,1410.174 371.606,1411.646C373.2,1412.708 374.84,1411.905 375.477,1411.802C375.425,1409.952 375.389,1408.265 375.388,1406.724C377.309,1406.86 378.945,1407.159 379.895,1407.412C382.16,1408.922 383.872,1409.672 384.826,1412.85ZM361.279,1414.642C362.857,1415.133 364.751,1415.578 366.793,1415.728C373.879,1416.249 381.079,1414.157 384.826,1412.85C385.704,1415.777 385.94,1420.762 385.375,1430.297C384.72,1441.339 382.595,1442.424 371.515,1442.223C366.233,1442.127 365.872,1440.466 361.545,1418.457C361.264,1417.026 361.186,1415.76 361.279,1414.642Z" style="fill:white;"/>
                            </g>
                            <g transform="matrix(1,0,0,1,-5.227639,-712.502892)">
                                <path d="M371.579,1406.708C371.03,1403.055 369.595,1399.429 368.748,1398.388C367.536,1396.898 366.793,1396.246 359.166,1396.19C362.681,1390.291 370.838,1393.427 370.838,1393.427C370.838,1393.427 365.666,1381.06 355.919,1387.013C364.515,1377.616 371.112,1384.168 371.91,1384.717C371.8,1383.859 371.143,1378.718 366.019,1375.654C361.784,1373.121 356.063,1374.851 354.502,1375.123C360.803,1364.494 369.665,1372.759 372.501,1374.907C375.426,1371.874 380.456,1365.697 388.982,1369.997C380.102,1373.927 379.33,1373.113 375.312,1381.04C385.232,1374.85 387.527,1376.471 394.537,1377.88C380.25,1382.456 380.183,1384.333 375.504,1390.931C381.44,1387.677 385.024,1385.629 388.851,1386.417C390.211,1386.697 391.6,1387.335 393.137,1388.403C381.833,1390.503 377.557,1392.608 376.085,1398.563C375.552,1400.718 375.387,1403.378 375.388,1406.724C375.389,1408.265 375.425,1409.952 375.477,1411.802C374.84,1411.905 373.2,1412.708 371.606,1411.646C371.9,1410.174 371.839,1408.438 371.579,1406.708Z" style="fill:rgb(253,207,139);"/>
                            </g>
                        </g>
                        <g>
                            <g>
                                <g transform="matrix(1,0,0,1,-5.227639,-712.502892)">
                                    <path d="M423.579,1325.072C422.944,1331.078 423.488,1337.753 424.946,1343.484C422.322,1344.248 419.584,1346.242 418.426,1349.194C416.52,1343.2 413.909,1332.827 416.938,1328.161C418.813,1325.271 421.5,1324.851 423.579,1325.072ZM418.426,1349.194C419.584,1346.242 422.322,1344.248 424.946,1343.484C426.851,1350.968 430.315,1356.842 434.756,1357.519C434.567,1358.508 434.5,1359.498 434.571,1360.479C430.451,1360.458 424.3,1359.708 420.727,1357.331C419.151,1356.282 418.076,1354.916 417.9,1353.155C417.85,1352.651 417.842,1352.163 417.872,1351.692C417.93,1350.798 418.124,1349.964 418.426,1349.194ZM550.689,1352.543C550.257,1353.037 549.797,1353.516 549.309,1353.978C548.409,1354.831 547.411,1355.624 546.313,1356.344C543.053,1358.48 538.905,1359.964 533.766,1360.397C535.711,1354.2 532.538,1347.575 526.184,1342.759C529.172,1342.471 532.683,1342.537 536.652,1343.221C544.048,1344.497 548.269,1348.616 550.689,1352.543ZM556.085,1338.111C556.048,1343.009 554.381,1348.32 550.689,1352.543C548.269,1348.616 544.048,1344.497 536.652,1343.221C532.683,1342.537 529.172,1342.471 526.184,1342.759C525.207,1342.019 524.155,1341.321 523.035,1340.675C524.955,1337.578 527.473,1333.77 531.249,1330.501C534.381,1327.79 538.379,1325.451 543.62,1324.198C551.307,1322.36 556.149,1329.613 556.085,1338.111ZM461.791,1389.074C462.691,1390.644 462.149,1391.979 460.775,1393.066C459.799,1393.838 458.403,1394.485 456.806,1395.001C453.178,1396.173 448.51,1396.673 445.355,1396.442C444.101,1393.986 440.83,1389.373 436.446,1384.773C442.396,1383.386 452.085,1382.831 457.964,1385.777C459.38,1386.486 460.574,1387.398 461.443,1388.55C461.577,1388.727 461.693,1388.902 461.791,1389.074ZM414.829,1371.567C415.008,1372.367 415.345,1372.816 415.889,1372.769C416.331,1372.732 416.721,1372.441 417.073,1371.947C417.413,1372.026 417.753,1372.114 418.092,1372.21C424.767,1374.114 431.356,1379.434 436.446,1384.773C440.83,1389.373 444.101,1393.986 445.355,1396.442C445.876,1397.461 446.049,1398.109 445.809,1398.228C444.556,1398.326 442.824,1398.32 440.837,1398.226C439.639,1398.17 438.347,1398.082 437.011,1397.966C431.456,1397.486 425.135,1396.526 421.561,1395.372C420.292,1394.962 419.369,1394.528 418.949,1394.081C418.873,1394 418.796,1393.915 418.718,1393.828C415.357,1390.026 411.341,1380.632 411.484,1375.333C411.55,1372.899 412.493,1371.329 414.781,1371.562C414.797,1371.564 414.813,1371.565 414.829,1371.567ZM516.513,1394.044C515.042,1393.765 513.768,1393.372 512.819,1392.827C511.282,1391.946 510.597,1390.669 511.312,1388.842C514.306,1381.189 530.414,1381.432 539.076,1382.088C535.501,1387.341 533.148,1392.459 533.611,1394.334C532.874,1394.378 532.051,1394.427 531.168,1394.472C526.741,1394.701 520.795,1394.858 516.513,1394.044ZM551.611,1369.174C554.436,1367.56 557.124,1367.122 559.264,1368.661C560.871,1369.817 560.835,1372.548 560.02,1375.675C558.489,1381.548 554.206,1388.817 552.882,1389.655C552.843,1389.68 552.804,1389.703 552.766,1389.724C551.561,1390.388 550.679,1389.279 535.58,1394.498C535.109,1394.661 534.623,1394.83 534.124,1395.005C533.86,1394.892 533.693,1394.663 533.611,1394.334C533.148,1392.459 535.501,1387.341 539.076,1382.088C541.641,1378.321 544.834,1374.484 548.067,1371.722C548.364,1371.468 548.661,1371.224 548.958,1370.99C549.847,1370.287 550.735,1369.674 551.611,1369.174Z" style="fill:rgb(231,232,255);"/>
                                </g>
                                <g transform="matrix(1,0,0,1,-5.227639,-712.502892)">
                                    <path d="M549.309,1353.978C550.475,1356.816 551.934,1361.771 551.611,1369.174C550.735,1369.674 549.847,1370.287 548.958,1370.99C548.996,1369.467 548.875,1367.166 548.33,1363.69C547.831,1360.506 546.974,1358.046 546.313,1356.344C547.411,1355.624 548.409,1354.831 549.309,1353.978ZM417.872,1351.692C417.842,1352.163 417.85,1352.651 417.9,1353.155C418.076,1354.916 419.151,1356.282 420.727,1357.331C419.463,1363.352 418.659,1369.719 417.073,1371.947C416.325,1371.774 415.576,1371.645 414.829,1371.567C413.951,1367.64 416.892,1355.265 417.872,1351.692ZM418.718,1393.828C418.796,1393.915 418.873,1394 418.949,1394.081C419.369,1394.528 420.292,1394.962 421.561,1395.372C417.271,1403.596 413.994,1415.81 410.491,1413.338C407.975,1411.562 414.902,1399.183 418.718,1393.828ZM437.011,1397.966C438.347,1398.082 439.639,1398.17 440.837,1398.226C440.976,1407.291 441.609,1422.856 438.253,1420.214C435.965,1418.412 436.632,1403.651 437.011,1397.966ZM456.806,1395.001C458.403,1394.485 459.799,1393.838 460.775,1393.066C462.36,1398.421 465.073,1408.524 463.059,1409.195C461.253,1409.797 458.767,1400.943 456.806,1395.001ZM512.819,1392.827C513.768,1393.372 515.042,1393.765 516.513,1394.044C512.752,1409.023 511.734,1412.872 510.177,1411.74C507.557,1409.834 510.645,1399.24 512.819,1392.827ZM531.168,1394.472C532.051,1394.427 532.874,1394.378 533.611,1394.334C533.693,1394.663 533.86,1394.892 534.124,1395.005C534.623,1394.83 535.109,1394.661 535.58,1394.498C535.607,1400.492 536.81,1416.263 533.263,1415.453C530.257,1414.765 530.835,1400.13 531.168,1394.472ZM548.228,1390.654C551.485,1389.901 552.072,1390.106 552.766,1389.724C557.511,1399.778 564.43,1411.525 560.097,1410.519C555.856,1409.534 549.434,1394.3 548.228,1390.654Z" style="fill:rgb(96,76,74);"/>
                                </g>
                            </g>
                            <g transform="matrix(1,0,0,1,-5.227639,-712.502892)">
                                <path d="M436.446,1384.773C431.356,1379.434 424.767,1374.114 418.092,1372.21C422.328,1370.239 426.615,1368.308 430.93,1366.464C432.515,1365.786 434.103,1365.12 435.695,1364.468C436.548,1366.126 437.901,1367.709 439.841,1369.155C443,1371.512 451.456,1373.287 461.458,1374.508C461.353,1377.141 461.497,1379.496 462.646,1381.525C461.032,1382.543 459.326,1384.092 457.964,1385.777C452.085,1382.831 442.396,1383.386 436.446,1384.773ZM411.484,1375.333C411.341,1380.632 415.357,1390.026 418.718,1393.828C414.902,1399.183 407.975,1411.562 410.491,1413.338C413.994,1415.81 417.271,1403.596 421.561,1395.372C425.135,1396.526 431.456,1397.486 437.011,1397.966C436.632,1403.651 435.965,1418.412 438.253,1420.214C441.609,1422.856 440.976,1407.291 440.837,1398.226C442.824,1398.32 444.556,1398.326 445.809,1398.228C446.049,1398.109 445.876,1397.461 445.355,1396.442C448.51,1396.673 453.178,1396.173 456.806,1395.001C458.767,1400.943 461.253,1409.797 463.059,1409.195C465.073,1408.524 462.36,1398.421 460.775,1393.066C462.149,1391.979 462.691,1390.644 461.791,1389.074C463.346,1387.381 464.933,1386.038 466.111,1384.9C466.625,1385.208 467.193,1385.502 467.821,1385.782C468.941,1386.284 473.221,1388.198 479.484,1388.614C479.187,1395.386 479.266,1406.243 484.082,1403.454C486.602,1401.995 485.682,1393.664 484.855,1388.575C487.02,1388.401 489.334,1388.023 491.766,1387.364C494.813,1386.538 497.031,1385.433 498.635,1384.175C500.201,1385.746 502.613,1388.848 504.637,1393.764C504.78,1394.111 507.842,1401.548 508.915,1396.211C509.438,1393.613 506.915,1386.57 502.693,1382.35C502.533,1382.191 501.968,1381.686 501.257,1381.217C502.171,1379.645 502.524,1377.996 502.613,1376.444C505.172,1376.335 507.204,1376.154 508.516,1375.903C519.793,1373.743 526.926,1369.975 530.77,1365.586C537.473,1368.041 542.27,1369.758 548.067,1371.722C544.834,1374.484 541.641,1378.321 539.076,1382.088C530.414,1381.432 514.306,1381.189 511.312,1388.842C510.597,1390.669 511.282,1391.946 512.819,1392.827C510.645,1399.24 507.557,1409.834 510.177,1411.74C511.734,1412.872 512.752,1409.023 516.513,1394.044C520.795,1394.858 526.741,1394.701 531.168,1394.472C530.835,1400.13 530.257,1414.765 533.263,1415.453C536.81,1416.263 535.607,1400.492 535.58,1394.498C541.983,1392.284 545.829,1391.209 548.228,1390.654C549.434,1394.3 555.856,1409.534 560.097,1410.519C564.43,1411.525 557.511,1399.778 552.766,1389.724C552.804,1389.703 552.843,1389.68 552.882,1389.655C554.206,1388.817 558.489,1381.548 560.02,1375.675C563.675,1376.863 567.896,1378.225 572.963,1379.855C594.952,1386.927 598.506,1390.172 613.247,1395.733C568.528,1416.631 508.834,1440.292 485.721,1450.679C412.409,1417.684 387.55,1404.806 376.085,1398.563C377.557,1392.608 381.833,1390.503 393.137,1388.403C391.6,1387.335 390.211,1386.697 388.851,1386.417C396.073,1382.873 403.668,1379.076 411.484,1375.333Z" style="fill:rgb(253,191,115);"/>
                            </g>
                            <g>
                                <g transform="matrix(1,0,0,1,-5.227639,-712.502892)">
                                    <path d="M466.111,1384.9C464.933,1386.038 463.346,1387.381 461.791,1389.074C461.693,1388.902 461.577,1388.727 461.443,1388.55C460.574,1387.398 459.38,1386.486 457.964,1385.777C459.326,1384.092 461.032,1382.543 462.646,1381.525C464.462,1380.378 466.162,1379.904 467.122,1380.662C468.735,1381.935 467.89,1383.183 466.111,1384.9ZM498.635,1384.175C497.959,1383.496 497.44,1383.103 497.18,1382.974C497.29,1379.274 499.648,1380.155 501.257,1381.217C501.968,1381.686 502.533,1382.191 502.693,1382.35C506.915,1386.57 509.438,1393.613 508.915,1396.211C507.842,1401.548 504.78,1394.111 504.637,1393.764C502.613,1388.848 500.201,1385.746 498.635,1384.175ZM479.484,1388.614C479.572,1386.622 479.692,1384.983 479.733,1384.149C480.202,1382.152 482.745,1380.939 484.117,1384.596C484.119,1384.602 484.478,1386.25 484.855,1388.575C485.682,1393.664 486.602,1401.995 484.082,1403.454C479.266,1406.243 479.187,1395.386 479.484,1388.614ZM501.257,1381.217C499.648,1380.155 497.29,1379.274 497.18,1382.974C496.945,1382.858 496.919,1382.955 497.176,1383.249C497.176,1383.155 497.177,1383.063 497.18,1382.974C497.44,1383.103 497.959,1383.496 498.635,1384.175C497.031,1385.433 494.813,1386.538 491.766,1387.364C489.334,1388.023 487.02,1388.401 484.855,1388.575C484.478,1386.25 484.119,1384.602 484.117,1384.596C482.745,1380.939 480.202,1382.152 479.733,1384.149C479.692,1384.983 479.572,1386.622 479.484,1388.614C473.221,1388.198 468.941,1386.284 467.821,1385.782C467.193,1385.502 466.625,1385.208 466.111,1384.9C467.89,1383.183 468.735,1381.935 467.122,1380.662C466.162,1379.904 464.462,1380.378 462.646,1381.525C461.497,1379.496 461.353,1377.141 461.458,1374.508C475.63,1376.238 492.906,1376.857 502.613,1376.444C502.524,1377.996 502.171,1379.645 501.257,1381.217Z" style="fill:rgb(228,114,63);"/>
                                </g>
                                <g transform="matrix(1,0,0,1,-5.227639,-712.502892)">
                                    <path d="M477.479,1338.183C477.656,1338.868 477.85,1339.699 478.082,1340.819C477.036,1340.566 466.004,1337.902 464.645,1340.002C463.999,1341 469.621,1344.017 472.862,1345.916C465.656,1351.718 465.964,1352.554 466.587,1352.981C467.477,1353.59 469.378,1353.253 474.276,1351.977C475.529,1354.91 477.905,1358.279 478.282,1358.814C480.972,1362.627 488.976,1360.649 488.983,1360.644C489.309,1360.452 492.57,1355.892 494.291,1352.591C500.553,1355.833 500.825,1354.983 501.587,1354.58C501.915,1354.406 502.151,1354.102 498.178,1346.541C499.003,1346.072 502.271,1344.735 505.594,1340.354C500.708,1339.63 500.735,1340.217 495.828,1339.899C495.372,1339.87 494.993,1339.471 494.537,1339.442C494.496,1338.581 494.457,1337.794 494.422,1337.076C498.207,1337.127 502.365,1337.332 506.331,1337.659C507.83,1337.783 509.301,1337.924 510.714,1338.081C514.008,1338.448 516.987,1338.9 519.263,1339.415C520.927,1339.793 522.216,1340.204 522.977,1340.641C522.996,1340.652 523.015,1340.663 523.035,1340.675C524.155,1341.321 525.207,1342.019 526.184,1342.759C532.538,1347.575 535.711,1354.2 533.766,1360.397C533.206,1362.18 532.223,1363.928 530.77,1365.586C526.926,1369.975 519.793,1373.743 508.516,1375.903C507.204,1376.154 505.172,1376.335 502.613,1376.444C492.906,1376.857 475.63,1376.238 461.458,1374.508C451.456,1373.287 443,1371.512 439.841,1369.155C437.901,1367.709 436.548,1366.126 435.695,1364.468C435.029,1363.175 434.668,1361.835 434.571,1360.479C434.5,1359.498 434.567,1358.508 434.756,1357.519C435.227,1355.064 436.451,1352.619 438.191,1350.35C438.576,1350.604 438.926,1350.744 439.226,1350.744C440.397,1350.744 441.268,1349.062 441.967,1346.371C443.109,1345.38 444.342,1344.459 445.637,1343.627C446.88,1342.829 448.18,1342.114 449.51,1341.501C455.886,1338.561 470.512,1338.144 477.479,1338.183ZM453.983,1343.503C447.786,1342.943 442.134,1351.161 447.252,1352.358C454.315,1354.01 461.177,1346.393 453.983,1343.503Z" style="fill:rgb(243,124,71);"/>
                                </g>
                            </g>
                            <g transform="matrix(1,0,0,1,-5.227639,-712.502892)">
                                <path d="M478.933,1333.848C480.811,1335.046 481.634,1335.995 483.226,1337.642C483.91,1338.35 484.737,1339.187 485.851,1340.229C486.57,1339.093 487.208,1338.079 487.775,1337.175C492.316,1329.934 492.318,1329.69 493.232,1329.568C493.951,1329.472 494.059,1329.804 494.422,1337.076C494.457,1337.794 494.496,1338.581 494.537,1339.442C494.993,1339.471 495.372,1339.87 495.828,1339.899C500.735,1340.217 500.708,1339.63 505.594,1340.354C502.271,1344.735 499.003,1346.072 498.178,1346.541C502.151,1354.102 501.915,1354.406 501.587,1354.58C500.825,1354.983 500.553,1355.833 494.291,1352.591C493.092,1351.97 491.674,1351.2 489.991,1350.248C486.718,1356.112 487.185,1355.358 486.614,1355.422C486.039,1355.486 484.666,1356.141 481.1,1350.16C478.341,1350.896 476.1,1351.501 474.276,1351.977C469.378,1353.253 467.477,1353.59 466.587,1352.981C465.964,1352.554 465.656,1351.718 472.862,1345.916C469.621,1344.017 463.999,1341 464.645,1340.002C466.004,1337.902 477.036,1340.566 478.082,1340.819C477.85,1339.699 477.656,1338.868 477.479,1338.183C476.946,1336.121 476.565,1335.381 475.757,1332.077C477.111,1332.765 478.121,1333.33 478.933,1333.848Z" style="fill:rgb(132,215,108);"/>
                            </g>
                        </g>
                        <g>
                            <g>
                                <g>
                                    <g transform="matrix(1,0,0,1,-5.227639,-712.502892)">
                                        <path d="M535.296,1278.414C552.472,1282.263 579.69,1287.823 580.846,1288.142C595.69,1292.236 602.173,1293.229 607.328,1294.085L607.329,1294.133C603.803,1295.518 599.235,1297.255 595.182,1298.611C590.927,1300.035 590.026,1300.74 587.464,1301.784L587.237,1301.726C574.817,1299.61 555.106,1294.109 545.67,1292.42C538.156,1291.076 532.298,1290.007 527.169,1288.831C523.722,1288.04 519.633,1286.826 517.433,1286.343C522.329,1284.964 529.858,1279.907 535.296,1278.414ZM516.493,1286.608L517.433,1286.343C519.633,1286.826 523.722,1288.04 527.169,1288.831C532.298,1290.007 538.156,1291.076 545.67,1292.42C555.106,1294.109 574.817,1299.61 587.237,1301.726L587.246,1301.872L587.464,1301.784C590.026,1300.74 590.927,1300.035 595.182,1298.611C599.235,1297.255 603.803,1295.518 607.329,1294.133C607.562,1300.586 608.128,1312.035 608.109,1323.654C608.108,1324.09 608.106,1324.526 608.104,1324.962C595.907,1330.683 590.827,1333.017 588.32,1334.307L588.036,1334.225C576.081,1330.788 569.786,1329.903 555.115,1325.118C550.787,1323.706 528.22,1317.748 517.154,1314.098C517.149,1312.945 517.145,1311.509 517.141,1309.873C517.134,1306.829 517.126,1303.095 517.107,1299.225C517.078,1293.75 516.603,1291.065 516.493,1286.608Z" style="fill:rgb(229,250,255);"/>
                                    </g>
                                    <g transform="matrix(1,0,0,1,-5.227639,-712.502892)">
                                        <path d="M607.758,1305.321C607.95,1310.833 608.119,1317.217 608.109,1323.654L608.104,1324.962C595.907,1330.683 590.827,1333.017 588.32,1334.307L588.036,1334.225C576.081,1330.788 569.786,1329.903 555.115,1325.118C550.787,1323.706 528.22,1317.748 517.154,1314.098C517.149,1312.945 517.145,1311.509 517.141,1309.873C517.134,1306.829 517.126,1303.095 517.107,1299.225C517.099,1297.8 517.062,1296.564 517.008,1295.437C519.926,1295.737 523.305,1296.252 525.478,1297.005C551.883,1306.155 566.7,1316.058 595.831,1305.891C599.69,1304.544 603.857,1304.387 607.758,1305.321Z" style="fill:rgb(190,234,255);"/>
                                    </g>
                                    <g transform="matrix(1,0,0,1,-5.227639,-712.502892)">
                                        <path d="M608.107,1321.799C608.109,1322.416 608.11,1323.035 608.109,1323.654L608.104,1324.962C595.907,1330.683 590.827,1333.017 588.32,1334.307L588.036,1334.225C576.081,1330.788 569.786,1329.903 555.115,1325.118C550.787,1323.706 528.22,1317.748 517.154,1314.098C517.149,1312.945 517.145,1311.509 517.141,1309.873C517.141,1309.608 517.14,1309.337 517.139,1309.061C544.569,1318.688 545.45,1317.966 557.172,1320.735C564.978,1322.58 587.286,1330.799 590.046,1329.572C597.109,1326.433 603.51,1322.998 608.107,1321.799Z" style="fill:rgb(0,144,196);"/>
                                    </g>
                                </g>
                                <g>
                                    <g transform="matrix(1,0,0,1,-5.227639,-712.502892)">
                                        <path d="M612.036,1335.504C612.056,1337.683 612.174,1340.78 612.271,1343.629C609.87,1344.805 607.115,1346.196 604.729,1347.488C604.666,1344.735 604.597,1341.176 604.6,1338.742C606.92,1337.727 609.391,1336.652 612.036,1335.504ZM519.263,1339.415C516.987,1338.9 514.008,1338.448 510.714,1338.081C510.815,1330.421 510.78,1326.231 510.76,1323.92C513.216,1324.73 515.934,1325.615 518.817,1326.544C519.064,1332.949 519.194,1336.884 519.263,1339.415ZM585.431,1346.971C585.713,1362.652 585.58,1367.333 585.847,1372.876C584.778,1373.398 583.674,1373.953 582.682,1374.479L582.363,1374.334C581.596,1373.987 580.674,1373.577 579.453,1373.042C578.715,1372.719 578.062,1372.43 577.483,1372.17C577.806,1363.784 576.757,1349.628 577.14,1344.247C579.754,1345.101 582.656,1346.059 585.431,1346.971ZM608.109,1323.654C610.874,1324.58 613.94,1325.607 617.154,1326.715L617.215,1328.031C617.285,1329.552 617.342,1330.873 617.388,1332.021L617.433,1333.162C615.555,1333.977 613.759,1334.756 612.036,1335.504C609.391,1336.652 606.92,1337.727 604.6,1338.742C597.375,1341.903 591.608,1344.492 586.571,1346.965L586.107,1347.193C585.883,1347.12 585.657,1347.046 585.431,1346.971C582.656,1346.059 579.754,1345.101 577.14,1344.247C573.249,1342.976 569.996,1341.94 568.753,1341.64C566.04,1340.986 561.539,1339.721 556.085,1338.111C556.149,1329.613 551.307,1322.36 543.62,1324.198C538.379,1325.451 534.381,1327.79 531.249,1330.501C526.958,1329.151 522.734,1327.806 518.817,1326.544C515.934,1325.615 513.216,1324.73 510.76,1323.92C509.157,1323.392 507.665,1322.896 506.31,1322.44L505.529,1322.176C505.474,1321.566 505.419,1320.936 505.365,1320.3C505.266,1319.122 505.17,1317.925 505.083,1316.799L504.968,1315.281C505.279,1315.117 505.597,1314.954 505.919,1314.791C509.652,1312.903 513.994,1311.115 517.141,1309.873C517.145,1311.509 517.149,1312.945 517.154,1314.098C528.22,1317.748 550.787,1323.706 555.115,1325.118C569.786,1329.903 576.081,1330.788 588.036,1334.225L588.32,1334.307C590.827,1333.017 595.907,1330.683 608.104,1324.962C608.106,1324.526 608.108,1324.09 608.109,1323.654Z" style="fill:rgb(229,139,93);"/>
                                    </g>
                                    <g transform="matrix(1,0,0,1,-5.227639,-712.502892)">
                                        <path d="M510.76,1323.92C509.157,1323.392 507.665,1322.896 506.31,1322.44L505.529,1322.176C505.474,1321.566 505.419,1320.936 505.365,1320.3C505.28,1319.295 505.198,1318.275 505.122,1317.298C518.775,1321.531 528.364,1324.716 535.849,1327.239C534.132,1328.218 532.609,1329.325 531.249,1330.501C526.958,1329.151 522.734,1327.806 518.817,1326.544C519.064,1332.949 519.194,1336.884 519.263,1339.415C516.987,1338.9 514.008,1338.448 510.714,1338.081C510.815,1330.421 510.78,1326.231 510.76,1323.92ZM577.14,1344.247C573.249,1342.976 569.996,1341.94 568.753,1341.64C566.04,1340.986 561.539,1339.721 556.085,1338.111C556.096,1336.591 555.951,1335.111 555.661,1333.716C558.804,1334.635 561.974,1335.47 565.594,1336.305C574.544,1338.367 583.684,1344.897 592.689,1340.048C604.891,1333.478 612.443,1330.069 617.236,1328.483C617.297,1329.816 617.347,1330.988 617.388,1332.021L617.433,1333.162L612.036,1335.504C612.056,1337.683 612.174,1340.78 612.271,1343.629C609.87,1344.805 607.115,1346.196 604.729,1347.488C604.666,1344.735 604.597,1341.176 604.6,1338.742C597.375,1341.903 591.608,1344.492 586.571,1346.965L586.107,1347.193L585.431,1346.971C585.713,1362.652 585.58,1367.333 585.847,1372.876C584.778,1373.398 583.674,1373.953 582.682,1374.479L582.363,1374.334C581.596,1373.987 580.674,1373.577 579.453,1373.042C578.715,1372.719 578.062,1372.43 577.483,1372.17C577.806,1363.784 576.757,1349.628 577.14,1344.247Z" style="fill:rgb(228,114,63);"/>
                                    </g>
                                </g>
                            </g>
                            <g>
                                <g transform="matrix(1,0,0,1,-5.227639,-712.502892)">
                                    <path d="M485.203,1301.109C493.397,1302.916 503.475,1305.288 504.525,1307.35C505.195,1308.662 505.635,1311.408 505.919,1314.791C505.597,1314.954 505.279,1315.117 504.968,1315.281L505.083,1316.799C505.17,1317.925 505.266,1319.122 505.365,1320.3C505.419,1320.936 505.474,1321.566 505.529,1322.176L506.31,1322.44C506.335,1323.352 506.354,1324.268 506.368,1325.179C504.497,1324.752 502.329,1324.216 500.081,1323.635C498.286,1323.171 496.44,1322.679 494.655,1322.191C493.027,1321.746 491.45,1321.304 490.007,1320.892C488.191,1320.372 486.587,1319.898 485.365,1319.519C484.636,1309.477 485.041,1302.583 485.203,1301.109ZM478.789,1299.693C480.587,1300.103 482.815,1300.582 485.203,1301.109C485.041,1302.583 484.636,1309.477 485.365,1319.519C486.587,1319.898 488.191,1320.372 490.007,1320.892C491.45,1321.304 493.027,1321.746 494.655,1322.191C496.44,1322.679 498.286,1323.171 500.081,1323.635C502.329,1324.216 504.497,1324.752 506.368,1325.179C506.398,1327.091 506.407,1328.978 506.403,1330.745C504.534,1330.328 502.583,1329.793 498.921,1328.614C490.637,1325.946 483.076,1324.066 478.661,1322.852C478.551,1319.746 478.486,1316.025 478.62,1311.424C478.777,1306.001 478.799,1302.28 478.789,1299.693Z" style="fill:rgb(253,207,139);"/>
                                </g>
                                <g transform="matrix(1,0,0,1,-5.227639,-712.502892)">
                                    <path d="M478.661,1322.852C483.076,1324.066 490.637,1325.946 498.921,1328.614C502.583,1329.793 504.534,1330.328 506.403,1330.745C506.397,1333.444 506.363,1335.863 506.331,1337.659C502.365,1337.332 498.207,1337.127 494.422,1337.076C494.059,1329.804 493.951,1329.472 493.232,1329.568C492.318,1329.69 492.316,1329.934 487.775,1337.175C485.967,1337.268 484.412,1337.422 483.226,1337.642C481.634,1335.995 480.811,1335.046 478.933,1333.848C479.111,1330.994 478.832,1327.658 478.661,1322.852ZM492.33,1293.268C495.135,1293.962 498.729,1294.863 503.288,1296.038C510.227,1297.828 513.602,1298.532 517.107,1299.225C517.126,1303.095 517.134,1306.829 517.141,1309.873C513.994,1311.115 509.652,1312.903 505.919,1314.791C505.635,1311.408 505.195,1308.662 504.525,1307.35C503.475,1305.288 493.397,1302.916 485.203,1301.109C482.815,1300.582 480.587,1300.103 478.789,1299.693L478.788,1299.477C482.51,1297.698 487.856,1295.188 492.33,1293.268Z" style="fill:rgb(252,224,166);"/>
                                </g>
                            </g>
                            <g>
                                <g transform="matrix(1,0,0,1,-5.227639,-712.502892)">
                                    <path d="M599.166,1381.998C598.83,1377.31 598.502,1370.626 598.375,1364.668C606.253,1367.821 622.685,1374.405 631.268,1377.887C631.205,1383.63 631.049,1389.655 630.923,1393.875C629.678,1393.875 628.392,1393.662 627.019,1393.174C611.86,1387.795 603.254,1383.953 599.166,1381.998ZM599.754,1350.482C601.154,1351.004 602.968,1351.678 605.221,1352.468C610.587,1354.35 629.048,1358.932 630.594,1361.063C631.255,1361.974 631.358,1369.641 631.268,1377.887C622.685,1374.405 606.253,1367.821 598.375,1364.668C598.229,1357.849 598.346,1351.981 599.016,1351.144C599.162,1350.961 599.414,1350.738 599.754,1350.482ZM613.21,1343.171C636.847,1348.869 643.473,1348.983 644.277,1352.468C645.289,1356.853 644.726,1378.689 644.406,1388.734C639.062,1391.315 635.235,1393.875 630.923,1393.875C631.049,1389.655 631.205,1383.63 631.268,1377.887C631.358,1369.641 631.255,1361.974 630.594,1361.063C629.048,1358.932 610.587,1354.35 605.221,1352.468C602.968,1351.678 601.154,1351.004 599.754,1350.482C600.781,1349.708 602.609,1348.637 604.729,1347.488C607.115,1346.196 609.87,1344.805 612.271,1343.629C612.591,1343.472 612.904,1343.319 613.21,1343.171Z" style="fill:rgb(181,189,244);"/>
                                </g>
                                <g transform="matrix(1,0,0,1,-5.227639,-712.502892)">
                                    <path d="M631.269,1369.214C631.359,1364.731 631.541,1361.426 631.715,1361.001C631.88,1360.597 638.37,1355.518 644.397,1353.11C645.243,1358.664 644.713,1379.111 644.406,1388.734C639.539,1391.085 635.931,1393.417 632.068,1393.815C631.57,1390.226 631.329,1384.949 631.245,1379.669C631.236,1379.068 631.229,1378.467 631.223,1377.869C631.195,1374.809 631.217,1371.814 631.269,1369.214Z" style="fill:rgb(153,159,243);"/>
                                </g>
                            </g>
                        </g>
                        <g transform="matrix(1,0,0,1,-5.227639,-712.502892)">
                            <path d="M445.838,1337.875C445.875,1340.039 445.8,1341.946 445.637,1343.627C444.342,1344.459 443.109,1345.38 441.967,1346.371C442.527,1344.217 442.976,1341.416 443.379,1338.313C444.207,1338.339 445.051,1338.207 445.838,1337.875ZM445.379,1330.74C446.461,1330.258 447.272,1329.908 447.393,1329.885C449.918,1329.401 448.89,1336.297 446.234,1337.688C446.104,1337.757 445.972,1337.819 445.838,1337.875C445.051,1338.207 444.207,1338.339 443.379,1338.313C440.404,1338.221 437.653,1336.087 438.65,1333.816C438.74,1333.761 442.82,1331.88 445.379,1330.74ZM423.579,1325.072C424.355,1317.725 426.894,1311.381 431.676,1308.99C441.682,1303.986 445.092,1328.24 445.213,1329.253C445.273,1329.758 445.328,1330.254 445.379,1330.74C442.82,1331.88 438.74,1333.761 438.65,1333.816C437.653,1336.087 440.404,1338.221 443.379,1338.313C442.976,1341.416 442.527,1344.217 441.967,1346.371C440.548,1347.603 439.27,1348.943 438.191,1350.35C436.451,1352.619 435.227,1355.064 434.756,1357.519C430.315,1356.842 426.851,1350.968 424.946,1343.484C423.488,1337.753 422.944,1331.078 423.579,1325.072ZM453.983,1343.503C461.177,1346.393 454.315,1354.01 447.252,1352.358C442.134,1351.161 447.786,1342.943 453.983,1343.503Z" style="fill:white;"/>
                        </g>
                    </g>
                    <g id="outline1" serif:id="outline" transform="matrix(1.106584,0,0,1.106584,-86.479789,399.209091)">
                        <g transform="matrix(1,0,0,1,10.416391,-348.734813)">
                            <path d="M434.86,586.964C427.797,590.347 420.934,593.778 414.408,596.981M402.871,607.957C413.232,613.599 435.696,625.236 501.947,655.053M542.657,578.157C548.714,580.375 553.049,581.926 558.288,583.701M569.09,587.273C572.392,588.347 576.208,589.578 580.786,591.051C600.658,597.442 603.869,600.374 617.19,605.399M456.739,577.146C455.301,577.735 453.865,578.337 452.433,578.949C448.534,580.616 444.66,582.361 440.832,584.143M501.947,655.053C522.834,645.666 576.779,624.284 617.19,605.399" style="fill:none;stroke:rgb(82,72,72);stroke-width:1.4px;stroke-linecap:round;stroke-linejoin:round;stroke-miterlimit:1.5;"/>
                        </g>
                        <g transform="matrix(1,0,0,1,10.416391,-348.734813)">
                            <path d="M535.667,555.644C538.842,550.525 543.824,543.252 554.269,540.754C565.22,538.136 569.782,555.932 560.657,566.37C557.407,570.088 552.419,572.872 545.365,573.467M538.513,557.528C541.213,557.267 544.386,557.327 547.973,557.946C554.656,559.098 558.471,562.821 560.657,566.37M556.703,569.804C557.301,571.342 558.075,573.565 558.526,576.443C559.018,579.584 559.127,581.664 559.093,583.039M559.411,567.666C560.464,570.231 561.782,574.709 561.49,581.399" style="fill:none;stroke:rgb(82,72,72);stroke-width:1.4px;stroke-linecap:round;stroke-linejoin:round;stroke-miterlimit:1.5;"/>
                        </g>
                        <g transform="matrix(1,0,0,1,10.416391,-348.734813)">
                            <path d="M543.017,604.26C542.716,609.373 542.193,622.599 544.91,623.22C548.116,623.952 547.028,609.7 547.004,604.283M558.433,600.81C559.524,604.105 565.327,617.872 569.16,618.761C573.075,619.67 566.823,609.055 562.534,599.969M545.688,604.742C541.902,603.12 559.922,574.832 568.407,580.935C572.585,583.941 564.472,598.746 562.64,599.907C561.448,600.661 561.06,599.341 545.688,604.742ZM550.163,593.069C542.335,592.476 527.779,592.256 525.073,599.172C524.427,600.823 525.046,601.977 526.435,602.774C527.293,603.266 528.444,603.621 529.773,603.874C533.643,604.608 539.016,604.467 543.017,604.26C543.815,604.219 544.559,604.175 545.225,604.135M526.435,602.774C524.471,608.569 521.68,618.142 524.048,619.864C525.454,620.887 526.375,617.41 529.773,603.874" style="fill:none;stroke:rgb(82,72,72);stroke-width:1.4px;stroke-linecap:round;stroke-linejoin:round;stroke-miterlimit:1.5;"/>
                        </g>
                        <g transform="matrix(1,0,0,1,10.416391,-348.734813)">
                            <path d="M447.026,558.183C444.655,558.873 442.18,560.676 441.134,563.343C440.861,564.038 440.685,564.792 440.633,565.6C440.606,566.026 440.613,566.467 440.659,566.923C440.818,568.514 441.789,569.748 443.214,570.696C446.442,572.844 452.001,573.522 455.723,573.541M445.791,541.544C443.912,541.344 441.484,541.725 439.789,544.336C437.052,548.552 439.411,557.926 441.134,563.343M440.845,564.872C440.797,565.019 440.725,565.268 440.633,565.6C439.747,568.83 437.09,580.013 437.883,583.561C438.045,584.284 438.349,584.69 438.841,584.648C439.241,584.614 439.593,584.351 439.911,583.905C441.344,581.891 442.071,576.138 443.214,570.696" style="fill:none;stroke:rgb(82,72,72);stroke-width:1.4px;stroke-linecap:round;stroke-linejoin:round;stroke-miterlimit:1.5;"/>
                        </g>
                        <g transform="matrix(1,0,0,1,10.416391,-348.734813)">
                            <path d="M501.165,598.931C503.121,598.774 505.212,598.432 507.41,597.837C510.164,597.09 512.168,596.092 513.618,594.955M515.986,592.281C516.812,590.861 517.132,589.371 517.212,587.968M480.021,586.219C479.926,588.598 480.056,590.727 481.095,592.56M484.226,595.61C484.691,595.888 485.204,596.154 485.771,596.407C486.783,596.86 490.651,598.591 496.311,598.966M494.499,553.392C488.203,553.357 474.986,553.734 469.224,556.391C468.022,556.945 466.847,557.591 465.724,558.312C460.755,561.503 456.792,566.163 455.891,570.866C455.484,572.995 455.703,575.132 456.739,577.146C457.51,578.644 458.733,580.074 460.486,581.382C468.454,587.324 513.693,589.174 522.546,587.479C532.737,585.528 539.183,582.123 542.657,578.157C549.248,570.632 545.142,561.087 535.615,555.614C532.516,553.834 519.741,552.526 509.81,552.392M503.804,552.482C502.169,552.566 500.764,552.705 499.692,552.904M491.604,565.858C492.737,568.508 494.884,571.553 495.225,572.036C497.655,575.483 504.888,573.694 504.895,573.69C505.19,573.517 508.136,569.396 509.692,566.413M490.326,560.381C483.815,565.624 484.093,566.379 484.656,566.765C485.76,567.52 488.584,566.665 497.771,564.216C500.994,569.621 502.234,569.029 502.754,568.971C503.27,568.914 502.848,569.595 505.806,564.295C515.273,569.651 515.465,568.644 516.285,568.21C516.581,568.053 516.795,567.778 513.204,560.946C513.95,560.521 516.903,559.314 519.906,555.354C515.49,554.7 515.515,555.231 511.08,554.943C510.669,554.917 510.326,554.557 509.914,554.53C509.496,545.884 509.449,545.512 508.735,545.607C507.806,545.731 507.919,545.995 502.064,555.242C497.705,551.164 498.212,550.553 492.943,547.874C493.916,551.853 494.203,551.717 495.044,555.774C494.098,555.546 484.129,553.139 482.901,555.037C482.318,555.938 487.398,558.665 490.326,560.381ZM496.536,594.932C496.371,598.247 494.833,615.638 500.466,612.377C503.784,610.456 500.504,595.353 500.497,595.335C499.258,592.03 496.96,593.127 496.536,594.932ZM476.864,596.403C478.094,594.88 479.636,593.48 481.095,592.56C482.736,591.524 484.272,591.095 485.14,591.78C486.597,592.931 485.834,594.058 484.226,595.61C483.162,596.638 481.727,597.852 480.322,599.382M512.298,594.118C511.214,592.874 515.709,595.527 519.041,603.621C519.17,603.934 521.938,610.655 522.907,605.832C523.38,603.483 521.1,597.119 517.284,593.305C516.807,592.829 512.298,588.919 512.298,594.118ZM465.879,607.655C467.323,606.933 452.199,585.022 437.84,583.557C431.168,582.876 437.148,599.167 441.607,603.907C443.739,606.173 460.212,608.098 465.879,607.655ZM457.418,595.495C464.089,593.94 475.961,593.543 480.008,598.908C481.233,600.534 480.781,601.9 479.403,602.99C478.522,603.687 477.261,604.271 475.817,604.738C472.539,605.797 468.32,606.249 465.469,606.04M441.398,603.678C437.949,608.517 431.689,619.704 433.963,621.309C437.129,623.543 440.09,612.505 443.967,605.073M457.929,607.418C457.587,612.554 456.983,625.895 459.052,627.523C462.084,629.91 461.512,615.844 461.386,607.653M475.817,604.738C477.589,610.108 479.836,618.109 481.468,617.565C483.288,616.958 480.836,607.828 479.403,602.99M473.266,558.2C467.666,557.694 462.558,565.121 467.184,566.203C473.567,567.695 479.767,560.812 473.266,558.2Z" style="fill:none;stroke:rgb(82,72,72);stroke-width:1.4px;stroke-linecap:round;stroke-linejoin:round;stroke-miterlimit:1.5;"/>
                        </g>
                        <g transform="matrix(1,0,0,1,10.416391,-348.734813)">
                            <path d="M617.157,557.9C638.517,563.05 644.505,563.153 645.232,566.302C646.146,570.264 645.637,589.997 645.348,599.074M617.157,557.9C612.966,559.935 607.11,562.915 604.997,564.507C604.69,564.738 604.462,564.94 604.33,565.105C603.725,565.862 603.619,571.165 603.75,577.327C603.866,582.711 604.162,588.751 604.465,592.987M604.465,592.987C608.16,594.755 615.936,598.226 629.635,603.087C630.877,603.528 632.038,603.72 633.163,603.72C637.06,603.72 640.518,601.407 645.348,599.074M604.997,564.507C606.262,564.979 607.901,565.587 609.937,566.302C614.786,568.002 631.469,572.143 632.866,574.069C633.464,574.892 633.556,581.82 633.475,589.272C633.418,594.463 633.277,599.907 633.163,603.72M603.75,577.327C610.87,580.176 625.719,586.125 633.475,589.272M613.51,575.125C613.51,575.208 619.5,577.026 622.101,577.875M613.277,591.203C612.562,591.293 613.293,591.796 621.355,595.196" style="fill:none;stroke:rgb(82,72,72);stroke-width:1.4px;stroke-linecap:round;stroke-linejoin:round;stroke-miterlimit:1.5;"/>
                        </g>
                        <g transform="matrix(1,0,0,1,10.416391,-348.734813)">
                            <path d="M520.553,539.166C520.576,539.99 520.593,540.818 520.606,541.641C520.633,543.369 520.64,545.074 520.637,546.671C520.632,549.11 520.601,551.296 520.572,552.919M495.405,518.547L495.682,518.61C497.307,518.98 499.321,519.413 501.479,519.889C508.884,521.523 517.991,523.666 518.94,525.529C519.545,526.715 519.943,529.197 520.2,532.254M507.919,512.804C510.455,513.431 513.702,514.245 517.822,515.307C524.092,516.925 527.143,517.561 530.31,518.187M507.919,512.804C503.876,514.539 499.045,516.807 495.682,518.415L495.405,518.547M495.682,518.415C495.682,518.479 495.682,518.544 495.682,518.61C495.692,520.948 495.672,524.31 495.53,529.211C495.409,533.369 495.468,536.731 495.567,539.538C495.722,543.881 495.974,546.896 495.813,549.475C495.812,549.494 495.811,549.512 495.81,549.53M495.567,539.538C499.557,540.635 506.39,542.334 513.876,544.745C517.185,545.811 518.948,546.294 520.637,546.671M501.625,536.526C502.73,536.869 504.179,537.297 505.821,537.767C507.124,538.14 508.55,538.538 510.021,538.941C511.634,539.382 513.302,539.827 514.924,540.246C516.955,540.771 518.915,541.255 520.606,541.641M501.511,519.657C501.502,519.698 501.491,519.776 501.479,519.889C501.332,521.222 500.966,527.452 501.625,536.526M505.938,521.288C505.735,521.369 505.823,521.445 505.705,527.082C505.588,532.679 505.524,533.229 505.821,537.767M510.831,522.453C510.108,522.246 510.101,533.264 510.021,538.941M514.793,523.618C513.755,522.996 514.705,533.001 514.924,540.246" style="fill:none;stroke:rgb(82,72,72);stroke-width:1.4px;stroke-linecap:round;stroke-linejoin:round;stroke-miterlimit:1.5;"/>
                        </g>
                        <g transform="matrix(1,0,0,1,28.620752,-342.18296)">
                            <path d="M380.595,608.765C376.24,609.063 371.718,610.719 371.287,615.935C371.203,616.946 371.273,618.09 371.527,619.383C375.437,639.272 375.764,640.773 380.537,640.859C390.55,641.042 392.47,640.061 393.062,630.082C393.573,621.466 393.359,616.961 392.565,614.316C391.703,611.444 390.157,610.767 388.11,609.402C387.251,609.173 385.773,608.903 384.037,608.78M371.287,615.935C372.713,616.379 374.425,616.781 376.269,616.917C382.673,617.388 389.18,615.497 392.565,614.316M380.619,613.228C381.446,609.091 379.165,602.634 378.036,601.247C376.941,599.9 376.27,599.312 369.377,599.26C372.554,593.93 379.925,596.764 379.925,596.764C379.925,596.764 375.251,585.588 366.443,590.968C374.211,582.475 380.172,588.397 380.893,588.892C380.794,588.117 380.201,583.472 375.57,580.702C371.743,578.413 366.574,579.977 365.163,580.223C370.857,570.618 378.865,578.087 381.428,580.027C384.071,577.287 388.617,571.704 396.321,575.591C388.297,579.142 387.599,578.407 383.968,585.569C392.933,579.976 395.007,581.441 401.341,582.714C388.431,586.85 388.37,588.546 384.142,594.508C391.411,590.523 394.778,588.54 400.076,592.224C384.46,595.125 383.686,598.037 384.118,613.369C383.542,613.462 382.059,614.188 380.619,613.228Z" style="fill:none;stroke:rgb(82,72,72);stroke-width:1.4px;stroke-linecap:round;stroke-linejoin:round;stroke-miterlimit:1.5;"/>
                        </g>
                        <g transform="matrix(1,0,0,1,10.416391,-348.734813)">
                            <path d="M612.543,541.445C601.52,546.615 596.93,548.724 594.664,549.89M593.686,520.447L593.693,520.579M589.28,586.062L589.29,586.342M519.847,538.928C520.078,539.006 520.313,539.085 520.553,539.166C526.2,541.066 534.495,543.746 543.09,546.451M565.534,553.327C570.463,554.782 574.53,555.926 576.982,556.517C578.921,556.984 586.272,559.437 592.664,561.535L593.101,561.678M530.341,527.81C527.251,529.029 522.888,530.83 519.34,532.697M612.547,540.263C615.046,541.1 617.816,542.028 620.721,543.029M592.664,561.535L593.083,561.328C600.049,557.909 608.558,554.244 620.973,548.856M519.34,532.697L519.444,534.069C519.523,535.086 519.609,536.168 519.699,537.232C519.748,537.807 519.797,538.376 519.847,538.928M620.721,543.029L620.776,544.218C620.84,545.593 620.891,546.787 620.933,547.824L620.973,548.856M546.747,499.381C562.269,502.858 586.865,507.884 587.91,508.172C601.325,511.872 607.183,512.769 611.841,513.542L611.919,513.555M611.919,513.555L611.842,513.585C608.656,514.837 604.528,516.407 600.865,517.632C597.02,518.919 596.206,519.556 593.891,520.499L593.693,520.579M546.747,499.381C541.833,500.73 535.029,505.3 530.604,506.546L529.755,506.786M529.744,506.36L529.755,506.786C529.855,510.813 530.284,513.239 530.31,518.187C530.337,523.562 530.339,528.647 530.353,531.627M529.744,506.36L530.604,506.546C532.593,506.982 536.288,508.079 539.403,508.794C544.038,509.857 549.332,510.823 556.122,512.038C564.649,513.564 582.462,518.535 593.686,520.447L593.891,520.499M611.841,513.542L611.842,513.585C612.061,519.635 612.603,530.546 612.543,541.445M530.353,531.627C540.352,534.926 560.746,540.31 564.658,541.586C577.915,545.91 583.604,546.709 594.407,549.815L594.664,549.89M531.855,542.875C532.079,548.663 532.196,552.219 532.258,554.506M524.574,540.504C524.593,542.592 524.624,546.378 524.532,553.301M592.054,561.335C592.308,575.504 592.188,579.735 592.429,584.744M584.561,558.873C584.215,563.735 585.163,576.528 584.871,584.107M584.871,584.107C585.394,584.341 585.985,584.603 586.651,584.894C587.754,585.378 588.588,585.748 589.28,586.062L589.569,586.193M589.29,586.342L589.569,586.193C590.465,585.717 591.463,585.216 592.429,584.744M609.376,553.898C609.374,556.097 609.435,559.313 609.492,561.802M616.096,550.972C616.114,552.941 616.22,555.74 616.308,558.314" style="fill:none;stroke:rgb(82,72,72);stroke-width:1.4px;stroke-linecap:round;stroke-linejoin:round;stroke-miterlimit:1.5;"/>
                        </g>
                        <g transform="matrix(1,0,0,1,10.416391,-348.734813)">
                            <path d="M455.891,570.866C445.044,569.214 440.642,533.244 453.107,527.011C462.15,522.49 465.232,544.408 465.341,545.323C465.395,545.779 465.445,546.227 465.491,546.666M465.905,553.115C465.939,555.07 465.871,556.793 465.724,558.312M456.923,539.241C457.337,542.665 457.394,542.635 457.25,546.091M461.118,538.542C461.509,541.651 461.469,541.613 461.553,544.709M451.924,553.622C453.704,558.24 457.984,564.744 459.931,564.744C462.024,564.744 463.058,558.794 463.921,551.607M459.41,549.446C459.526,549.376 466.942,545.964 467.311,545.894C469.592,545.457 468.664,551.688 466.264,552.946C462.972,554.67 458.216,552.167 459.41,549.446Z" style="fill:none;stroke:rgb(82,72,72);stroke-width:2.25px;stroke-linecap:round;stroke-linejoin:round;stroke-miterlimit:1.5;"/>
                        </g>
                    </g>
                </g>
            </g>
            <g id="sushi-top" transform="matrix(1.061883,-0.107536,0.107536,1.061883,-121.884479,6.915581)">
                <g id="color2" serif:id="color">
                    <path d="M514.426,747.357L514.44,747.535C514.25,747.397 514.062,747.256 513.877,747.112C514.061,747.196 514.244,747.278 514.426,747.357ZM346.497,695.08C347.226,694.647 347.97,694.242 348.729,693.864C349.415,694.268 350.129,694.651 350.871,695.011C349.353,694.952 347.896,694.977 346.497,695.08ZM414.004,626.619L414.053,626.616L414.048,626.623L414.004,626.619ZM534.744,570.678C537.108,573.064 539.136,575.778 540.668,578.68C540.749,578.473 540.832,578.266 540.917,578.06C545.542,566.848 556.279,558.231 569.158,562.672C578.768,567.379 584.6,574.395 587.034,581.668C588.055,584.718 588.478,587.814 588.332,590.803C588.316,591.138 588.292,591.472 588.262,591.804C592.301,590.304 597.086,590.064 602.437,591.685C607.592,593.247 611.451,595.766 614.142,598.814C615.071,597.797 616.111,596.898 617.257,596.146C620.777,593.836 625.288,592.918 630.597,594.245C637.577,588.851 649.567,600.218 650.849,612.393C651.003,613.856 651.044,615.23 650.986,616.52C653.973,615.808 657.281,615.527 660.719,615.875C662.073,616.012 663.446,616.246 664.828,616.59C669.094,617.651 673.442,619.755 677.529,623.258C681.479,626.802 683.491,635.975 681.288,644.656C678.845,644.748 677.432,645.771 677.865,647.599C678.073,648.48 678.256,649.35 678.413,650.207C682.001,669.746 672.531,682.954 663.294,688.596C662.243,682.171 660.336,677.112 659.903,675.49C659.363,676.528 658.78,677.781 658.108,679.145C656.242,682.936 653.693,687.578 649.479,690.797C649.001,691.162 648.502,691.509 647.98,691.834C644.15,694.219 639.092,695.441 632.24,694.19C627.838,693.387 623.399,691.318 619.794,689.082C620.155,688.318 620.493,687.536 620.806,686.738C622.586,682.193 623.639,678.305 624.121,674.971C628.331,671.981 634.288,670.375 642.687,671.868C642.154,668.072 642.42,664.211 644.092,660.688C635.889,655.924 633.035,645.582 635.025,634.752C631.557,635.65 628.6,635.741 627.525,635.546C620.62,634.297 615.78,630.956 612.745,626.671C611.502,627.898 610.088,628.985 608.517,629.89C613.021,636.823 612.633,646.05 608.463,653.416C608.231,653.825 607.988,654.228 607.733,654.625C607.188,655.474 606.591,656.293 605.943,657.077C606.584,657.318 607.229,657.578 607.872,657.859C608.152,666.675 607.952,684.839 602.09,695.158C601.898,695.495 601.14,696.829 599.987,698.302C597.188,691.885 594.239,686.603 592.757,683.398C592.76,683.518 593.393,687.663 593.225,693.5C593.144,696.343 592.872,699.587 592.245,702.964C591.976,704.413 591.642,705.887 591.229,707.363C589.443,713.747 586.191,720.187 580.415,724.967C576.091,728.546 567.35,731.82 558.832,731.397C558.295,728.799 557.442,726.245 556.415,723.731C554.543,719.149 552.094,714.702 549.925,710.372C549.385,714.405 543.282,759.944 514.426,747.357C514.255,745.117 514.056,743.104 513.964,741.451C512.781,742.85 509.265,753.609 489.509,751.59C484.123,751.04 480.039,749.472 476.956,747.55C490.125,739.736 496.411,730.286 499.22,721.229C501.116,721.918 502.855,722.916 504.414,724.153C505.508,716.467 510.515,709.077 520.494,704.766C510.333,701.719 504.08,693.204 502.48,684.047C499.79,689.949 495.287,695.055 489.232,698.098C493.988,702.665 496.104,708.233 496.102,713.921C492.894,721.536 487.094,729.384 476.652,734.467C473.632,735.937 470.841,736.93 468.279,737.556L467.871,737.653C460.712,739.309 455.376,738.088 451.855,736.451L451.849,736.405C454.75,737.513 457.218,737.758 458.029,737.839C445.41,712.241 451.379,696.076 455.365,693.002C462.107,699.674 470.788,698.879 474.114,699.102C467.76,693.998 459.781,688.909 456.757,673.356C454.737,662.965 457.628,660.281 458.86,660.382C452.76,656.159 446.182,664.316 447.578,675.729C442.953,673.724 439.347,671.232 436.635,668.431C436.132,668.944 435.605,669.436 435.053,669.906C437.27,672.472 438.758,675.388 439.594,678.474C436.632,673.636 432.253,671.198 427.915,674.623C406.343,667.432 402.091,706.812 424.928,708.542C426.361,708.65 427.696,708.651 428.937,708.555C427.225,709.983 425.351,711.235 423.335,712.262C423.196,712.333 423.056,712.403 422.916,712.472C426.635,713.788 429.914,715.429 432.768,717.319C433.837,718.026 434.846,718.768 435.796,719.541C436.498,708.174 443.086,696.237 453.667,691.101C454.084,691.628 454.513,692.12 454.95,692.579C450.652,693.63 439.473,699.638 439.025,713.991C438.732,723.369 441.731,729.044 445.447,732.487C439.544,755.474 423.83,767.423 411.275,773.546C411.107,769.708 410.187,765.294 408.346,760.227C407.851,760.878 407.357,761.501 406.866,762.099C409.237,755.449 408.875,747.232 405.483,740.166C404.646,738.422 403.106,736.352 401.13,734.326C398.661,731.797 395.512,729.339 392.201,727.675C386.479,724.801 380.274,724.303 376.266,729.926C371.172,732.23 368.211,737.223 367.148,743.087C366.906,743.07 366.651,743.067 366.382,743.079C364.342,743.164 362.399,743.173 360.549,743.109C375.196,731.555 374.833,706.983 366.449,698.664C369.281,698.793 372.322,698.705 375.578,698.373C395.235,696.367 402.082,679.85 400.123,664.061C405.591,669.086 413.778,671.173 424.146,666.729C431.957,663.382 440.921,651.028 437.443,637.503C435.781,631.039 429.672,625.09 423.837,623.402C422.418,618.924 421.704,612.716 423.244,606.557C425.721,596.651 432.442,592.635 445.235,588.934C445.253,593.689 446.979,598.539 451.048,598.237C460.28,597.553 458.535,585.754 486.426,580.695C486.623,581.097 486.871,581.47 487.172,581.811C489.923,584.92 489.735,575.911 534.744,570.678ZM370.05,762.857C368.668,761.075 367.397,759.166 366.248,757.208C366.689,756.617 367.1,756.025 367.481,755.435C368.044,758.01 368.906,760.527 370.05,762.857ZM455.365,693.002C455.226,692.864 455.088,692.723 454.95,692.579C455.725,692.39 456.276,692.361 456.501,692.474C456.157,692.511 455.772,692.689 455.365,693.002ZM411.275,773.546L411.283,773.739L410.903,773.726L411.275,773.546ZM535.947,606.81C541.311,610.194 545.942,616.232 546.656,624.969C550.373,626.812 560.1,630.438 565.977,637.284C567.859,631.576 571.7,626.352 577.158,623.137C574.746,619.236 573.949,614.586 574.514,610.038C569.98,611.845 564.392,612.522 557.837,611.596C549.233,610.381 543.822,606.23 540.973,600.801C539.746,602.894 538.088,604.914 535.947,606.81ZM395.655,717.287C397.124,716.33 398.657,715.469 400.245,714.717C398.283,714.31 396.491,713.747 394.863,713.049C395.202,714.39 395.47,715.803 395.655,717.287ZM573.48,662.227C571.562,661.017 569.974,659.55 568.699,657.898C565.726,664.122 559.573,669.774 551.763,672.25C555.422,683.91 548.98,697.809 538.016,703.381C543.422,704.226 547.493,706.186 550.413,708.856C552.683,700.717 559.476,693.192 571.893,689.405C566.901,680.915 566.619,669.766 573.48,662.227ZM492.875,606.902C489.076,612.822 482.57,616.924 473.472,616.261C470.882,616.072 468.519,615.55 466.395,614.757C465.654,617.56 464.551,620.312 463.056,622.846C473.529,622.615 484.54,625.019 487.465,645.535C498.417,649.281 504.031,657.881 505.159,667.221C507.684,662.739 511.794,658.998 517.615,656.828C516.876,654.409 516.576,651.884 516.652,649.352C495.965,644.37 495.422,626.38 501.679,614.626C501.953,614.111 502.24,613.608 502.539,613.119C499.039,611.298 496.044,608.668 493.681,605.547C493.428,606.008 493.159,606.46 492.875,606.902ZM427.865,629.943C428.136,629.93 428.397,629.91 428.649,629.881C428.413,630.016 428.148,630.033 427.865,629.943Z" style="fill:rgb(238,130,82);stroke:rgb(238,129,82);stroke-width:2.51px;stroke-linecap:round;stroke-linejoin:round;stroke-miterlimit:1.5;"/>
                    <path d="M410.128,774.093C407.195,779.194 402.492,783.722 396.092,785.835C393.649,786.642 390.959,787.096 388.026,787.096C369.085,787.096 359.799,776.318 358.456,764.793C358.133,762.017 358.27,759.197 358.845,756.474C353.703,756.288 349.973,755.466 349.456,755.296C347.987,754.812 346.601,754.275 345.295,753.691C331.598,747.564 326.673,736.153 327.71,724.699C331.455,732.543 338.482,739.656 351.832,742.179C354.756,738.04 357.677,734.931 359.694,733.531C358.596,734.605 358.826,738.325 360.168,743.095C362.132,743.173 364.201,743.17 366.382,743.079C372.582,742.817 371.514,750.154 366.248,757.208C374.871,771.909 390.379,783.819 408.346,760.227C410.187,765.294 411.107,769.708 411.275,773.546C426.676,766.035 446.832,749.755 447.799,715.088C449.423,722.618 450.902,729.771 451.855,736.451C455.376,738.088 460.712,739.309 467.871,737.653C467.933,737.441 467.997,737.232 468.062,737.027C468.116,737.161 468.187,737.34 468.279,737.556C470.841,736.93 473.632,735.937 476.652,734.467C487.094,729.384 492.894,721.536 496.102,713.921C496.104,708.233 493.988,702.665 489.232,698.098C495.287,695.055 499.79,689.949 502.48,684.047C504.053,693.045 510.117,701.424 519.969,704.602C522.99,703.977 526.533,703.968 530.963,704.494C531.546,704.563 531.963,705.093 531.894,705.677C531.825,706.26 531.295,706.678 530.711,706.608C520.143,705.353 515.058,707.342 509.599,714.051C509.276,714.449 508.723,714.552 508.284,714.324C506.159,717.379 504.9,720.737 504.414,724.153C502.855,722.916 501.116,721.918 499.22,721.229C496.411,730.286 490.125,739.736 476.956,747.55C480.039,749.472 484.123,751.04 489.509,751.59C509.265,753.609 512.781,742.85 513.964,741.451C514.056,743.104 514.255,745.117 514.426,747.357C543.282,759.944 549.385,714.405 549.925,710.372C552.094,714.702 554.543,719.149 556.415,723.731C557.442,726.245 558.295,728.799 558.832,731.397C567.35,731.82 576.091,728.546 580.415,724.967C586.191,720.187 589.443,713.747 591.229,707.363C590.95,706.269 591.101,704.789 591.793,702.894C591.944,702.925 592.095,702.948 592.245,702.964C592.872,699.587 593.144,696.343 593.225,693.5C593.393,687.663 592.76,683.518 592.757,683.398C594.239,686.603 597.188,691.885 599.987,698.302C601.14,696.829 601.898,695.495 602.09,695.158C607.952,684.839 608.152,666.675 607.872,657.859C607.229,657.578 606.584,657.318 605.943,657.077C606.591,656.293 607.188,655.474 607.733,654.625C607.697,653.961 607.665,653.459 607.645,653.146C607.908,653.235 608.18,653.325 608.463,653.416C612.633,646.05 613.021,636.823 608.517,629.89C610.088,628.985 611.502,627.898 612.745,626.671C615.78,630.956 620.62,634.297 627.525,635.546C628.6,635.741 631.557,635.65 635.025,634.752C633.143,644.996 635.594,654.803 642.807,659.866C644.802,656.727 647.013,654.665 649.327,653.263C652.95,651.067 656.855,650.495 660.685,650.028C661.269,649.957 661.8,650.372 661.871,650.956C661.942,651.539 661.526,652.07 660.943,652.141C657.402,652.573 653.78,653.054 650.431,655.084C647.672,656.756 645.117,659.484 642.922,664.059C642.35,666.527 642.321,669.09 642.655,671.628C644.546,672.603 646.582,673.969 648.801,675.871C649.247,676.254 649.298,676.926 648.916,677.372C648.534,677.818 647.861,677.87 647.415,677.488C641.728,672.613 637.344,671.561 633.505,671.48C629.678,671.932 626.597,673.212 624.121,674.971C623.639,678.305 622.586,682.193 620.806,686.738C620.493,687.536 620.155,688.318 619.794,689.082C623.399,691.318 627.838,693.387 632.24,694.19C639.092,695.441 644.15,694.219 647.98,691.834C648.479,691.289 648.982,690.929 649.479,690.797C653.693,687.578 656.242,682.936 658.108,679.145C658.78,677.781 659.363,676.528 659.903,675.49C660.336,677.112 662.243,682.171 663.294,688.596C672.531,682.954 682.001,669.746 678.413,650.207C678.256,649.35 678.073,648.48 677.865,647.599C677.432,645.771 678.845,644.748 681.288,644.656C680.778,646.668 680.041,648.654 679.049,650.537C714.094,669.022 687.386,699.468 663.99,697.517C663.419,697.47 662.849,697.403 662.282,697.316C661.268,702.373 658.401,707.392 652.954,711.378C649.006,714.267 645.102,715.922 641.376,716.591C628.152,718.965 617.18,708.903 614.495,697.422C614.435,697.163 614.379,696.904 614.327,696.644C614.225,696.134 614.245,694.114 614.728,691.42C614.115,692.018 613.452,692.604 612.734,693.174C612.166,693.624 611.602,694.054 611.039,694.464C607.472,697.066 604.013,698.868 600.709,699.993C599.649,700.354 598.605,700.645 597.579,700.871L597.402,701.02C598.307,703.506 598.918,706.183 599.228,708.931C600.891,723.722 593.79,740.562 576.382,740.562C569.558,740.562 563.785,738.436 559.362,735.031C557.864,733.877 556.52,732.576 555.343,731.162C554.416,734.515 552.92,737.775 550.97,740.685C547.266,746.215 541.928,750.479 535.764,751.712C527.176,753.429 519.861,751.493 514.44,747.535C514.25,747.397 514.062,747.256 513.877,747.112C513.589,746.98 513.299,746.843 513.007,746.7C512.946,747.136 512.874,747.571 512.788,748.003C511.3,755.551 506.01,762.35 495.772,764.91C479.693,768.929 470.114,761.745 466.664,752.415C466.422,751.758 466.209,751.091 466.027,750.416C465.548,748.644 465.278,746.821 465.215,745.004C463.246,745.253 461.216,745.352 459.136,745.283C456.818,745.207 454.687,744.921 452.738,744.453C451.875,744.245 451.048,744.002 450.256,743.725C449.342,743.406 448.475,743.043 447.654,742.638C448.108,758.774 435.049,774.485 411.283,773.739L410.903,773.726C410.644,773.851 410.385,773.973 410.128,774.093ZM359.694,733.531C359.801,733.426 359.921,733.347 360.053,733.294C359.937,733.366 359.817,733.445 359.694,733.531ZM546.665,624.973C546.662,624.972 546.659,624.97 546.656,624.969C545.942,616.232 541.311,610.194 535.947,606.81C538.088,604.914 539.746,602.894 540.973,600.801C543.822,606.23 549.233,610.381 557.837,611.596C564.392,612.522 569.98,611.845 574.514,610.038C574.093,613.431 574.429,616.88 575.628,620.033C577.043,623.172 578.94,625.339 581.022,626.831C585.716,630.193 591.284,630.146 594.14,630.214C594.727,630.228 595.193,630.717 595.179,631.304C595.165,631.891 594.676,632.357 594.089,632.343C590.97,632.268 584.91,632.234 579.782,628.561C578.248,627.463 576.792,626.041 575.521,624.194C570.928,627.434 567.664,632.164 565.977,637.284C560.954,631.433 553.119,627.934 548.627,625.89C548.523,626.274 548.395,626.653 548.241,627.025C547.929,627.781 546.264,631.802 543.837,635.358C542.129,637.861 540.028,640.108 537.786,641.005C537.24,641.223 536.62,640.957 536.402,640.412C536.184,639.866 536.45,639.246 536.995,639.028C538.903,638.265 540.626,636.287 542.079,634.158C544.393,630.768 545.976,626.932 546.273,626.212C546.44,625.808 546.569,625.394 546.665,624.973ZM463.079,622.808C462.001,622.995 460.886,623.269 459.763,623.633C453.878,625.537 447.768,629.915 445.683,637.214C445.521,637.779 444.931,638.107 444.367,637.945C443.802,637.784 443.474,637.194 443.635,636.629C445.934,628.583 452.62,623.706 459.107,621.607C460.886,621.032 462.648,620.668 464.301,620.5C465.183,618.649 465.877,616.715 466.395,614.757C468.519,615.55 470.882,616.072 473.472,616.261C483.25,616.974 490.033,612.182 493.681,605.547C496.044,608.668 499.039,611.298 502.539,613.119C495.413,624.779 495.059,644.152 516.652,649.352C516.589,651.438 516.782,653.519 517.265,655.54C522.366,653.856 526.978,653.074 531.52,653.805C536.135,654.548 540.695,656.836 545.612,661.37C546.044,661.768 546.071,662.442 545.673,662.874C545.275,663.306 544.601,663.333 544.169,662.935C539.629,658.749 535.442,656.593 531.181,655.907C525.195,654.943 519.1,656.842 511.793,659.88C509.116,661.777 507.013,664.109 505.458,666.707C503.862,670.759 503.777,674.706 503.758,675.504C503.743,676.091 503.255,676.557 502.668,676.542C502.08,676.528 501.615,676.039 501.629,675.452C501.654,674.437 501.807,668.786 504.507,663.695C503.378,659.202 501.124,655.019 497.644,651.642C496.381,650.759 494.731,650.034 493.036,649.438C489.361,648.147 485.444,647.499 484.369,647.451C475.627,647.063 472.504,653.142 472.022,653.727C471.649,654.181 470.977,654.246 470.524,653.872C470.07,653.499 470.005,652.827 470.379,652.374C470.927,651.708 474.523,644.883 484.464,645.324C485.128,645.354 486.807,645.59 488.864,646.051C488.408,645.87 487.941,645.698 487.465,645.535C484.54,625.019 473.529,622.615 463.056,622.846C463.064,622.834 463.071,622.821 463.079,622.808ZM570.041,667.483C566.954,674.401 567.966,682.726 571.893,689.405C559.476,693.192 552.683,700.717 550.413,708.856C547.493,706.186 543.422,704.226 538.016,703.381C548.98,697.809 555.422,683.91 551.763,672.25C559.573,669.774 565.726,664.122 568.699,657.898C569.696,659.19 570.885,660.369 572.273,661.4C573.503,660.231 574.896,659.174 576.478,658.277C584.643,653.651 589.761,655.737 593.448,657.034C594.003,657.229 594.294,657.838 594.099,658.392C593.904,658.946 593.296,659.238 592.742,659.043C589.436,657.88 584.846,655.982 577.527,660.13C574.232,661.997 571.832,664.616 570.041,667.483ZM395.655,717.287C395.47,715.803 395.202,714.39 394.863,713.049C396.491,713.747 398.283,714.31 400.245,714.717C398.657,715.469 397.124,716.33 395.655,717.287ZM422.916,712.472C438.883,704.654 446.229,682.845 435.053,669.906C435.605,669.436 436.132,668.944 436.635,668.431C439.712,671.608 443.939,674.389 449.502,676.512C450.293,681.528 452.298,686.364 455.253,690.395C443.747,695.064 436.532,707.616 435.796,719.541C432.308,716.703 428.027,714.281 422.916,712.472Z" style="fill:rgb(216,87,59);stroke:rgb(216,87,59);stroke-width:1.18px;stroke-linejoin:round;stroke-miterlimit:2;"/>
                    <path d="M414.004,626.619L414.053,626.616L414.048,626.623L414.004,626.619ZM540.917,578.06C545.542,566.848 556.279,558.231 569.158,562.672C578.768,567.379 584.6,574.395 587.034,581.668C581.807,579.698 573.956,577.233 565.748,576.549C547.123,574.997 541.575,582.223 541.713,584.015C541.35,581.9 541.088,579.918 540.917,578.06ZM588.332,590.803C588.316,591.138 588.292,591.472 588.262,591.804C592.301,590.304 597.086,590.064 602.437,591.685C607.592,593.247 611.451,595.766 614.142,598.814C615.071,597.797 616.111,596.898 617.257,596.146C619.568,603.091 619.162,611.124 619.213,611.838C602.125,601.594 602.381,599.46 582.58,599.72C584.485,596.662 585.078,593.383 588.332,590.803ZM660.719,615.875C662.073,616.012 663.446,616.246 664.828,616.59C662.208,617.718 659.337,619.357 656.271,621.703C644.239,630.911 643.469,632.556 637.782,653.884C636.711,645.339 632.704,633.107 649.658,620.921C651.591,619.531 655.811,617.461 660.719,615.875ZM406.866,762.099C405.039,767.221 401.59,771.413 396.654,773.434C383.912,778.651 374.677,772.283 370.05,762.857C378.761,774.083 391.904,780.275 406.866,762.099ZM458.86,660.382C459.111,660.402 459.294,660.539 459.351,660.75C459.188,660.618 459.024,660.495 458.86,660.382ZM392.201,727.675C393.989,723.716 397.304,720.024 402.937,717.165C412.287,712.42 418.782,711.564 423.335,712.262C428.61,713.071 431.28,715.966 432.768,717.319C432.852,717.394 432.931,717.465 433.007,717.53C428.506,714.068 415.411,716.956 410.4,721.425C406.053,725.303 403.152,729.747 401.13,734.326C398.661,731.797 395.512,729.339 392.201,727.675ZM433.007,717.53C433.083,717.589 433.157,717.649 433.228,717.712C433.158,717.657 433.084,717.596 433.007,717.53ZM492.875,606.902C490.545,600.126 494.207,591.554 499.047,590.415C497.698,599.86 505.874,605.989 516.524,614.27C510.193,615.65 505.332,615.602 501.679,614.626C496.783,613.317 494.058,610.341 492.875,606.902ZM414.004,626.619L414.053,626.616L414.048,626.623L414.004,626.619ZM367.481,755.435C366.574,751.29 366.439,746.995 367.148,743.087C368.211,737.223 371.172,732.23 376.266,729.926C380.274,724.303 386.479,724.801 392.201,727.675C395.512,729.339 398.661,731.797 401.13,734.326C403.106,736.352 404.646,738.422 405.483,740.166C408.875,747.232 409.237,755.449 406.866,762.099C391.904,780.275 378.761,774.083 370.05,762.857C368.906,760.527 368.044,758.01 367.481,755.435ZM451.849,736.405C449.787,735.618 447.507,734.395 445.447,732.487C441.731,729.044 438.732,723.369 439.025,713.991C439.473,699.638 450.652,693.63 454.95,692.579C455.088,692.723 455.226,692.864 455.365,693.002C451.379,696.076 445.41,712.241 458.029,737.839C457.218,737.758 454.75,737.513 451.849,736.405ZM458.86,660.382C457.628,660.281 454.737,662.965 456.757,673.356C459.781,688.909 467.76,693.998 474.114,699.102C470.788,698.879 462.107,699.674 455.365,693.002C455.772,692.689 456.157,692.511 456.501,692.474C456.276,692.361 455.725,692.39 454.95,692.579C454.513,692.12 454.084,691.628 453.667,691.101C451.331,688.15 449.343,684.09 448.065,678.499C447.85,677.558 447.689,676.633 447.578,675.729C446.182,664.316 452.76,656.159 458.86,660.382ZM428.937,708.555C427.696,708.651 426.361,708.65 424.928,708.542C402.091,706.812 406.343,667.432 427.915,674.623C432.253,671.198 436.632,673.636 439.594,678.474C445.493,688.105 445.776,707.247 428.937,708.555ZM360.549,743.109C356.089,746.627 350.237,748.939 342.796,749.217C313.509,750.312 310.96,697.687 346.497,695.08C347.896,694.977 349.353,694.952 350.871,695.011C350.129,694.651 349.415,694.268 348.729,693.864C349.207,693.627 349.69,693.401 350.179,693.187C336.757,677.176 343.267,645.629 379.72,646.298C384.4,646.731 388.334,648.122 391.534,650.198C391.703,648.774 391.981,647.354 392.362,645.958C392.465,645.584 392.575,645.211 392.692,644.841C395.66,635.447 403.331,627.376 413.707,626.638L414.004,626.619L414.048,626.623L414.053,626.616C415.098,626.558 416.17,626.575 417.266,626.672C418.538,626.66 419.761,626.706 420.937,626.805C419.955,625.699 419.074,624.513 418.293,623.266C409.773,609.646 413.255,588.705 428.359,584.005C429.344,583.853 437.519,581.385 446.37,582.512C449.558,582.918 452.833,583.79 455.892,585.404C456.071,585.104 456.258,584.807 456.454,584.512C460.546,578.369 468.375,573.6 480.412,572.912C482.669,573.113 484.689,573.661 486.475,574.489C487.89,575.146 489.158,575.979 490.28,576.954C490.423,576.669 490.573,576.386 490.729,576.106C495.039,568.356 504.21,562.408 519.665,561.819C525.161,563.164 530.495,566.39 534.744,570.678C489.735,575.911 489.923,584.92 487.172,581.811C486.871,581.47 486.623,581.097 486.426,580.695C458.535,585.754 460.28,597.553 451.048,598.237C446.979,598.539 445.253,593.689 445.235,588.934C432.442,592.635 425.721,596.651 423.244,606.557C421.704,612.716 422.418,618.924 423.837,623.402C429.672,625.09 435.781,631.039 437.443,637.503C440.921,651.028 431.957,663.382 424.146,666.729C413.778,671.173 405.591,669.086 400.123,664.061C402.082,679.85 395.235,696.367 375.578,698.373C372.322,698.705 369.281,698.793 366.449,698.664C374.833,706.983 375.196,731.555 360.549,743.109ZM427.865,629.943C428.148,630.033 428.413,630.016 428.649,629.881C428.397,629.91 428.136,629.93 427.865,629.943Z" style="fill:rgb(253,191,115);"/>
                </g>
                <path id="outline2" serif:id="outline" d="M555.949,732.006C558.167,734.579 562.098,738.003 569.598,740.223C591.637,746.744 605.154,719.954 598.092,702.118M598.092,702.118C605.463,700.334 610.369,696.55 613.098,693.874M613.098,693.874C613.642,697.792 615.838,704.897 624.731,712.137C633.892,719.596 660.349,719.433 662.678,696.928M662.678,696.928C673.86,700.828 692.394,691.414 695.942,680.448C701.378,663.651 689.095,654.207 679.982,651.333M653.078,615.622C659.168,615.525 668.666,616.316 675.912,621.961C682.494,627.089 686.058,638.638 679.982,651.333M617.036,597.233C625.637,589.621 649.799,588.226 653.078,615.622M588.725,589.673C599.164,587.638 610.576,592.279 617.036,597.233M541.352,575.789C544.708,567.534 557.489,557.546 567.591,561.334C583.333,567.237 587.983,581.216 588.725,589.673M541.352,575.789C525.051,559.796 514.616,559.815 498.411,569.208C494.546,571.448 491.722,574.086 489.652,576.824M489.652,576.824C481.978,573.013 464.55,570.834 457.557,586.094M457.557,586.094C451.867,584.102 439.37,580.909 426.687,586.174C417.099,590.154 409.082,610.554 422.37,627.088M422.37,627.088C411.593,625.674 393.958,630.855 393.024,652.727M353.997,695.147C344.636,688.541 341.262,672.493 347.49,664.256C350.276,660.57 366.146,635.157 393.024,652.727M353.997,695.147C343.233,696.739 325.004,694.782 319.201,722.764C317.532,730.81 324.497,744.339 337.398,747.759M337.398,747.759C338.54,749.23 339.721,750.216 340.026,750.471C348.419,757.478 352.683,757.856 359.491,757.858M359.491,757.858C358.959,765.712 360.136,779.446 374.104,784.257C394.39,791.245 406.353,780.837 412.259,772.78M412.259,772.78C417.081,774.578 425.126,775.588 437.527,765.689C444.915,759.791 447.627,750.652 448.569,743.348M448.569,743.348C452.4,745.245 457.809,746.962 465.776,746.479M465.776,746.479C465.879,751.986 468.424,762.343 481.253,764.597C502.399,768.312 510.691,754.94 513.793,746.733M513.793,746.733C519.513,749.915 529.313,753.516 539.251,750.179C549.808,746.635 554.137,738.61 555.949,732.006" style="fill:none;stroke:rgb(82,72,72);stroke-width:2.51px;stroke-linecap:round;stroke-linejoin:round;stroke-miterlimit:1.5;"/>
            </g>
            <g id="connectors" transform="matrix(1.923555,0,0,1.923555,-3328.455925,-1347.919562)">
                <g id="connector2-start" transform="matrix(0.525327,0,0,0.525327,1167.756456,737.525759)">
                    <circle cx="1676.335" cy="689.818" r="8.708" style="fill:current-color;"/>
                </g>
                <g id="connector1-start" transform="matrix(0.525327,0,0,0.525327,1043.765553,700.883991)">
                    <circle cx="1676.335" cy="689.818" r="8.708" style="fill:current-color;"/>
                </g>
            </g>
        </g>
    </g>
</svg>