<?xml version="1.0" encoding="UTF-8" standalone="no"?>
<!DOCTYPE svg PUBLIC "-//W3C//DTD SVG 1.1//EN" "http://www.w3.org/Graphics/SVG/1.1/DTD/svg11.dtd">
<svg width="100%" height="100%" viewBox="0 0 598 313" version="1.1" xmlns="http://www.w3.org/2000/svg" xmlns:xlink="http://www.w3.org/1999/xlink" xml:space="preserve" xmlns:serif="http://www.serif.com/" style="fill-rule:evenodd;clip-rule:evenodd;">
    <g transform="matrix(1,0,0,1,-1546.652835,-1140.990278)">
        <g id="salmon" transform="matrix(1.242246,0,0,1.242246,-651.290685,-453.56813)">
            <g id="plate-shadow" transform="matrix(0.808965,0,0,0.808965,1770.99765,1359.913455)">
                <g id="plate-shadow1" serif:id="plate-shadow">
                    <ellipse id="plate-shadow2" serif:id="plate-shadow" cx="295.704" cy="110.569" rx="295.704" ry="105.987" style="fill:rgb(55,48,48);"/>
                </g>
            </g>
            <g id="sushi-base">
                <g id="plate-base" transform="matrix(0.808965,0,0,0.808965,1770.59155,1359.190685)">
                    <g id="plate-base1" serif:id="plate-base">
                        <path id="plate-base2" serif:id="plate-base" d="M295.706,0.5C377.321,0.5 451.187,12.358 504.632,31.514C531.356,41.092 552.949,52.486 567.85,65.113C582.753,77.742 590.91,91.557 590.91,105.987C590.91,120.417 582.753,134.231 567.85,146.86C552.949,159.488 531.356,170.882 504.632,180.461C451.187,199.617 377.32,211.475 295.706,211.475C214.092,211.475 140.225,199.617 86.78,180.461C60.056,170.882 38.465,159.488 23.564,146.86C8.66,134.231 0.502,120.418 0.502,105.987C0.502,91.557 8.66,77.742 23.564,65.113C38.465,52.486 60.056,41.092 86.78,31.514C140.225,12.358 214.092,0.5 295.706,0.5Z" style="fill:rgb(239,234,231);fill-rule:nonzero;stroke:rgb(55,48,48);stroke-width:1px;"/>
                    </g>
                </g>
                <g id="sushi-shadow" transform="matrix(0.653471,0,0,0.653471,803.901922,557.300352)">
                    <path d="M1656.459,1329.048C1621.204,1335.15 1596.483,1373.532 1643.786,1393.804C1887.647,1498.316 1938.901,1296.277 2035.625,1313.77C2108.838,1327.011 2042.652,1206.677 1914.792,1241.548L1656.459,1329.048Z" style="fill: current-color;"/>
                </g>
                <g id="base">
                    <g id="color" transform="matrix(0.653471,0,0,0.653471,803.901922,557.300352)">
                        <path d="M1651.559,1315.278C1650.839,1313.025 1651.076,1309.491 1652.921,1304.246C1636.184,1314.148 1633.165,1290.72 1648.397,1285.97C1629.917,1281.475 1644.742,1262.902 1663.771,1264.461C1662.803,1264.243 1652.257,1261.876 1657.424,1253.794C1662.813,1245.364 1676.227,1244.411 1682.075,1243.674C1677.817,1228.651 1692.684,1229.754 1699.44,1231.325C1699.212,1250.34 1696.801,1257.179 1701.686,1259.672C1716.555,1267.258 1727.12,1273.966 1733.148,1275.14C1733.188,1275.148 1733.227,1275.155 1733.266,1275.162C1734.727,1275.432 1735.916,1275.368 1736.83,1274.902C1742.107,1272.212 1752.356,1267.287 1762.697,1262.372C1770.412,1258.706 1778.179,1255.045 1783.973,1252.322C1784.046,1250.612 1784.117,1248.937 1784.184,1247.297C1786.57,1248.353 1788.037,1248.833 1790.851,1249.831L1791.442,1250.041L1791.45,1249.508C1791.508,1249.477 1791.566,1249.446 1791.623,1249.415C1798.26,1245.876 1800.069,1245.875 1809.665,1241.9C1811.231,1241.251 1813.179,1240.444 1825.702,1234.267C1825.659,1230.071 1825.607,1225.487 1825.554,1221.184L1825.55,1220.779C1838.482,1226.615 1871.588,1241.172 1886.695,1247.713C1886.73,1257.754 1886.756,1259.038 1887.838,1260.3C1888.219,1260.744 1894.773,1261.806 1894.773,1261.806C1895.013,1261.704 1895.258,1261.601 1895.509,1261.495C1908.767,1255.903 1936.07,1245.282 1955.37,1235.865C1955.535,1231.914 1955.595,1227.683 1955.608,1223.468C1977.538,1215.953 1977.48,1237.086 1977.99,1238.721C1983.571,1231.453 1983.958,1226.024 1990.59,1232.104C1996.225,1237.27 1992.256,1256.36 1991.826,1258.424C2006.926,1252.634 2013.884,1267.404 1994.536,1280.086C2000.274,1283.876 2007.992,1290.52 1987.866,1299.695C1978.406,1304.008 1985.106,1318.246 1965.991,1314.691C1964.455,1325.466 1962.696,1326.336 1951.758,1326.016C1942.091,1342.539 1935.739,1343.419 1923.579,1330.466C1920.091,1331.836 1916.114,1332.024 1915.466,1332.055C1919.008,1340.447 1921.437,1342.464 1913.572,1346.897C1907.216,1350.48 1899.735,1346.094 1896.788,1344.048C1891.916,1360.241 1886.233,1364.643 1874.054,1365.908C1871.063,1384.512 1851.336,1370.523 1847.796,1378.109C1843.126,1388.116 1833.433,1387.346 1826.623,1385.221C1826.637,1387.224 1825.136,1389.457 1822.03,1392.563C1814.25,1400.343 1803.348,1391.372 1801.571,1391.795C1797.916,1392.666 1798.911,1421.964 1775.613,1395.726C1751.377,1406.837 1750.816,1393.876 1754.338,1386.203C1742.498,1386.653 1732.308,1372.436 1731.012,1370.626C1717.96,1384.314 1707.181,1380.025 1695.875,1362.476C1694.268,1387.249 1674.349,1359.248 1673.278,1357.743C1646.534,1374.861 1643.148,1348.261 1645.371,1339.775C1648.405,1328.192 1637.04,1333.635 1634.408,1325.74C1631.954,1318.377 1643.759,1316.031 1651.559,1315.278ZM1859.172,1261.334C1861.2,1260.458 1863.095,1259.226 1864.505,1257.522C1867.331,1254.11 1864.411,1248.933 1860.044,1249.903C1857.137,1250.074 1853.818,1251.078 1850.88,1252.471C1843.812,1255.822 1838.951,1261.427 1847.345,1263.105C1849.181,1263.473 1854.527,1263.339 1859.172,1261.334ZM1848.183,1250.454C1849.47,1249.326 1849.798,1248.328 1850.045,1247.821C1850.991,1245.881 1849.382,1241.842 1844.256,1242.696C1840.54,1243.043 1837.506,1243.902 1835.116,1245.018C1826.802,1248.9 1826.28,1255.896 1831.969,1255.303C1841.877,1254.271 1846.186,1252.205 1848.183,1250.454Z" style="fill:rgb(244,244,243);"/>
                    </g>
                    <path id="outline" d="M1914.437,1361.935C1910.022,1360.909 1900.307,1360.188 1903.089,1370.005C1899.267,1370.487 1890.502,1371.11 1886.98,1376.618C1883.604,1381.899 1890.495,1383.447 1891.128,1383.589C1878.693,1382.57 1869.005,1394.707 1881.081,1397.644C1871.128,1400.748 1873.101,1416.058 1884.038,1409.587C1882.832,1413.015 1882.677,1415.324 1883.148,1416.796C1884.108,1419.802 1887.676,1419.312 1890.222,1417.707M1883.148,1416.796C1878.051,1417.289 1870.336,1418.822 1871.94,1423.633C1873.66,1428.792 1881.086,1425.235 1879.104,1432.804C1877.652,1438.35 1879.864,1455.732 1897.34,1444.546C1898.04,1445.529 1911.057,1463.827 1912.107,1447.639C1919.495,1459.106 1926.539,1461.909 1935.068,1452.965C1935.915,1454.147 1942.574,1463.438 1950.311,1463.144C1951.75,1463.089 1953.228,1462.703 1954.711,1461.87C1962.236,1457.649 1952.039,1451.402 1951.256,1450.922C1952.055,1450.525 1959.545,1446.802 1958.27,1442.25C1957.542,1439.649 1954.308,1439.406 1953.89,1439.375M1950.311,1463.144C1948.009,1468.158 1948.376,1476.627 1964.213,1469.367C1979.438,1486.512 1978.788,1467.367 1981.176,1466.798C1982.338,1466.522 1989.462,1472.384 1994.546,1467.3C1996.576,1465.27 1997.556,1463.811 1997.547,1462.502M1992.675,1460.364C1992.859,1460.548 2006.435,1468.456 2011.383,1457.855C2014.012,1452.22 2030.305,1464.798 2028.676,1443.619M2028.542,1449.881C2036.5,1449.055 2040.214,1446.178 2043.398,1435.597C2043.403,1435.579 2043.409,1435.56 2043.414,1435.542M2042.639,1435.04C2043.397,1435.625 2049.406,1440.254 2054.365,1437.459C2059.505,1434.562 2057.918,1433.243 2055.603,1427.76C2056.598,1427.713 2069.592,1427.098 2062.259,1417.245M2060.905,1426.721C2068.851,1435.186 2073.002,1434.611 2079.319,1423.813C2086.467,1424.023 2087.616,1423.454 2088.62,1416.413C2101.111,1418.736 2096.732,1409.432 2102.915,1406.613C2116.067,1400.618 2111.023,1396.276 2107.273,1393.799C2119.916,1385.512 2115.37,1375.86 2105.503,1379.644C2105.783,1378.295 2108.377,1365.82 2104.694,1362.444C2100.36,1358.472 2100.108,1362.019 2096.461,1366.769C2096.128,1365.7 2096.165,1351.89 2081.835,1356.801M1912.841,1408.082C1906.69,1410.474 1901.375,1415.979 1902,1418.923C1903.016,1423.716 1910.254,1420.53 1910.914,1420.24C1910.489,1428.172 1915.313,1430.147 1919.667,1423.486M2024.541,1398.226C2021.921,1397.665 2016.715,1402.913 2017.386,1406.366C2017.487,1406.884 2020.467,1413.768 2025.6,1405.49M2079.551,1397.631C2079.551,1401.044 2083.917,1403.265 2085.62,1402.787C2093.044,1400.699 2087.225,1392.718 2086.715,1392.018M2083.658,1377.782C2084.672,1376.26 2090.567,1372.353 2092.829,1375.181C2093.341,1375.821 2093.443,1380.12 2088.951,1382.162M1977.57,1407.213C1977.483,1405.982 1976.422,1390.948 1966.711,1396.262C1960.596,1399.608 1968.249,1404.71 1968.855,1405.114" style="fill:none;stroke:rgb(82,72,72);stroke-width:1.68px;stroke-linecap:round;stroke-linejoin:round;stroke-miterlimit:1.5;"/>
                </g>
                <g id="room">
                    <g id="color1" serif:id="color">
                        <g>
                            <g>
                                <path d="M1996.845,1355.044C1996.825,1353.367 1996.805,1351.761 1996.787,1350.319C2000.542,1351.885 2008.695,1355.274 2036.806,1367.217C2036.8,1369.299 2036.797,1371.094 2036.802,1372.645C2026.93,1368.37 2005.296,1358.858 1996.845,1355.044ZM2081.806,1341.943C2081.742,1345.805 2081.851,1351.28 2081.835,1356.801C2081.827,1359.555 2081.787,1362.321 2081.679,1364.902C2068.829,1371.172 2050.55,1378.259 2042.081,1381.854C2042.081,1381.854 2037.798,1381.16 2037.549,1380.87C2036.842,1380.045 2036.825,1379.206 2036.802,1372.645C2036.797,1371.094 2036.8,1369.299 2036.806,1367.217C2036.813,1364.664 2036.825,1361.681 2036.832,1358.194C2036.834,1356.93 2036.836,1355.599 2036.837,1354.198C2038.265,1353.553 2039.993,1352.814 2041.984,1351.999C2047.92,1349.569 2056.194,1346.456 2065.823,1343.108C2069.038,1341.99 2072.403,1340.846 2075.883,1339.692C2077.383,1340.21 2079.317,1340.916 2081.806,1341.906L2081.806,1341.943ZM2012.81,1301.346C2015.071,1302.083 2018.597,1302.665 2019.737,1303.44C2019.825,1303.499 2019.898,1303.56 2019.956,1303.621C2020.987,1304.724 2019.779,1314.759 2019.914,1319.611C2019.595,1319.81 2019.286,1319.999 2018.993,1320.176C2015.364,1316.071 2012.546,1313.082 2007.901,1314.013C2001.728,1315.251 1999.937,1318.984 2000.918,1323.611C1988.854,1328.507 1989.594,1331.076 1990.79,1331.981L1991.04,1332.169C1989.319,1332.932 1986.572,1334.5 1984.476,1335.736C1980.548,1330.282 1978.391,1327.373 1975.831,1326.768C1975.813,1324.611 1975.836,1322.119 1975.784,1320.897C1975.709,1319.13 1975.649,1317.716 1975.619,1316.545C1976.778,1316.014 1978.004,1315.457 1979.295,1314.878C1987.825,1311.051 1999.204,1306.239 2012.81,1301.346Z" style="fill:rgb(132,104,123);"/>
                                <path d="M2081.25,1341.686C2081.433,1341.758 2081.618,1341.831 2081.806,1341.906L2081.806,1341.943C2081.742,1345.805 2081.851,1351.28 2081.835,1356.801C2081.827,1359.555 2081.787,1362.321 2081.679,1364.902C2069.068,1371.056 2051.226,1377.997 2042.562,1381.651C2042.467,1377.462 2042.525,1371.385 2042.153,1362.825C2041.605,1350.226 2049.488,1356.193 2078.037,1343.108C2078.358,1342.961 2079.654,1342.366 2081.25,1341.686Z" style="fill:rgb(114,82,107);"/>
                                <path d="M2018.111,1302.769C2018.808,1302.981 2019.386,1303.201 2019.737,1303.44C2019.825,1303.499 2019.898,1303.56 2019.956,1303.621C2020.987,1304.724 2019.779,1314.759 2019.914,1319.611C2019.595,1319.81 2019.286,1319.999 2018.993,1320.176C2015.364,1316.071 2012.546,1313.082 2007.901,1314.013C2001.728,1315.251 1999.937,1318.984 2000.918,1323.611C1988.854,1328.507 1989.594,1331.076 1990.79,1331.981L1991.04,1332.169C1989.319,1332.932 1986.572,1334.5 1984.476,1335.736C1980.548,1330.282 1978.391,1327.373 1975.831,1326.768C1975.813,1324.611 1975.836,1322.119 1975.784,1320.897C1975.741,1319.874 1975.702,1318.969 1975.672,1318.161C1978.317,1319.335 1978.386,1319.399 1979.047,1319.5C1981.004,1319.801 2006.911,1307.083 2018.111,1302.769Z" style="fill:rgb(114,82,107);"/>
                            </g>
                            <g>
                                <path d="M2039.33,1331.833L2043.436,1333.581C2051.216,1336.892 2059.148,1340.255 2065.823,1343.108C2056.194,1346.456 2047.92,1349.569 2041.984,1351.999C2039.993,1352.814 2038.265,1353.553 2036.837,1354.198C2036.836,1355.599 2036.834,1356.93 2036.832,1358.194C2036.825,1361.681 2036.813,1364.664 2036.806,1367.217C2008.695,1355.274 2000.542,1351.885 1996.787,1350.319C1996.773,1349.27 1996.761,1348.308 1996.75,1347.469L1996.747,1347.225C1995.569,1346.939 1994.311,1346.703 1992.11,1346.25C1987.706,1345.343 1983.31,1344.153 1979.498,1343.013C1979.467,1342.594 1979.424,1342.153 1979.366,1341.693C1981.959,1340.447 1984.128,1338.813 1985.53,1337.2C1985.164,1336.693 1984.813,1336.205 1984.476,1335.736C1986.572,1334.5 1989.319,1332.932 1991.04,1332.169C1998.825,1338.013 2001.799,1338.224 2007.442,1335.239C2009.383,1337.515 2011.633,1339.72 2014.044,1341.708C2014.549,1344.055 2015.175,1345.877 2015.895,1345.769C2016.276,1345.712 2016.651,1345.137 2017.047,1344.01C2024.777,1349.5 2033.466,1352.383 2038.842,1348.417C2047.904,1341.732 2038.209,1335.944 2030.484,1330.677C2031.364,1330.256 2032.327,1329.771 2033.277,1329.25C2033.388,1329.297 2033.5,1329.345 2033.611,1329.392L2035.175,1330.061L2039.33,1331.833Z" style="fill:rgb(150,210,255);"/>
                                <path d="M2036.829,1359.584C2036.822,1362.482 2036.812,1365.01 2036.806,1367.217C2008.695,1355.274 2000.542,1351.885 1996.787,1350.319L1996.75,1347.469L1996.747,1347.225C1995.569,1346.939 1994.311,1346.703 1992.11,1346.25C1987.706,1345.343 1983.31,1344.153 1979.498,1343.013C1979.467,1342.594 1979.424,1342.153 1979.366,1341.693C1981.689,1340.577 1983.671,1339.15 1985.067,1337.705C1994.556,1341.347 2010.005,1347.418 2022.474,1353.652C2026.201,1355.516 2032.668,1357.605 2036.829,1359.584Z" style="fill:rgb(111,181,255);"/>
                            </g>
                        </g>
                        <g>
                            <g>
                                <path id="n" d="M1961.775,1306.631C1966.499,1308.321 1969.097,1309.396 1970.907,1310.171C1965.924,1312.032 1960.645,1313.846 1955.738,1315.559C1945.52,1319.123 1936.912,1322.244 1935.926,1324.414C1935.852,1324.576 1935.782,1324.746 1935.715,1324.924C1934.097,1329.253 1934.695,1338.33 1935.827,1369.567C1935.946,1372.846 1936.071,1376.37 1936.2,1380.157C1936.311,1383.43 1936.425,1386.901 1936.541,1390.582C1932.615,1389.858 1925.684,1385.449 1915.905,1380.459C1912.712,1378.831 1914.287,1374.361 1914.437,1361.935C1914.473,1358.893 1914.424,1355.374 1914.199,1351.303C1913.664,1341.63 1912.989,1341.103 1915.034,1317.953L1916.501,1317.332C1920.908,1315.471 1924.438,1314.039 1927.537,1312.825C1928.767,1315.369 1931.502,1317.4 1935.507,1317.438C1938.71,1317.469 1940.921,1315.561 1941.789,1313.105C1945.26,1314.356 1947.14,1314.756 1948.386,1314.725C1949.692,1314.692 1950.3,1314.184 1951.311,1313.685C1961.914,1308.45 1961.59,1307.825 1961.672,1307.391C1961.725,1307.11 1961.759,1306.862 1961.775,1306.631ZM1969.814,1372.373C1969.77,1373.445 1969.724,1374.539 1969.677,1375.656C1965.89,1377.436 1960.815,1379.828 1955.773,1382.224C1955.762,1378.88 1955.851,1375.672 1955.945,1371.503C1961.566,1369.079 1966.593,1366.938 1970.086,1365.457C1970.004,1367.654 1969.914,1369.957 1969.814,1372.373ZM1936.541,1390.582C1936.425,1386.901 1936.311,1383.43 1936.2,1380.157C1942.65,1377.269 1949.668,1374.21 1955.945,1371.503C1955.851,1375.672 1955.762,1378.88 1955.773,1382.224C1949.015,1385.436 1942.318,1388.654 1938.87,1390.412C1938.273,1390.716 1937.496,1390.758 1936.541,1390.582ZM1970.442,1355.026C1970.344,1358.22 1970.227,1361.683 1970.086,1365.457C1966.593,1366.938 1961.566,1369.079 1955.945,1371.503C1956.011,1368.574 1956.079,1365.171 1956.115,1360.912C1960.679,1358.97 1965.461,1356.98 1970.442,1355.026ZM1935.827,1369.567C1941.975,1367.045 1948.763,1364.041 1956.115,1360.912C1956.079,1365.171 1956.011,1368.574 1955.945,1371.503C1949.668,1374.21 1942.65,1377.269 1936.2,1380.157C1936.071,1376.37 1935.946,1372.846 1935.827,1369.567ZM1971.548,1310.446C1971.174,1316.097 1971.088,1321.068 1970.999,1327.764C1970.94,1332.158 1970.88,1337.295 1970.736,1343.855C1970.663,1347.183 1970.568,1350.877 1970.442,1355.026C1965.461,1356.98 1960.679,1358.97 1956.115,1360.912C1956.156,1356.053 1956.156,1350.079 1956.064,1342.426C1955.887,1327.649 1955.788,1319.798 1955.738,1315.559C1960.645,1313.846 1965.924,1312.032 1970.907,1310.171L1971.548,1310.446ZM1955.738,1315.559C1955.788,1319.798 1955.887,1327.649 1956.064,1342.426C1956.156,1350.079 1956.156,1356.053 1956.115,1360.912C1948.763,1364.041 1941.975,1367.045 1935.827,1369.567C1934.695,1338.33 1934.097,1329.253 1935.715,1324.924C1935.782,1324.746 1935.852,1324.576 1935.926,1324.414C1936.912,1322.244 1945.52,1319.123 1955.738,1315.559Z" style="fill:rgb(255,178,117);"/>
                                <path d="M1936.464,1390.567C1932.525,1389.8 1925.621,1385.417 1915.905,1380.459C1912.712,1378.831 1914.287,1374.361 1914.437,1361.935C1914.473,1358.893 1914.424,1355.374 1914.199,1351.303C1913.664,1341.63 1912.989,1341.103 1915.034,1317.953L1915.905,1317.584C1916.226,1317.697 1916.563,1317.829 1916.917,1317.981C1930.512,1323.795 1932.675,1321.826 1934.171,1327.37C1935.04,1330.588 1933.443,1332.567 1935.338,1363.374C1935.953,1373.384 1936.318,1384.694 1936.464,1390.567Z" style="fill:rgb(247,136,88);"/>
                            </g>
                            <path d="M1937.665,1303.833C1941.788,1305.841 1942.91,1309.931 1941.789,1313.105C1940.921,1315.561 1938.71,1317.469 1935.507,1317.438C1931.502,1317.4 1928.767,1315.369 1927.537,1312.825C1925.589,1308.796 1927.414,1303.48 1933.937,1302.756C1935.381,1302.948 1936.62,1303.324 1937.665,1303.833Z" style="fill:rgb(231,165,96);"/>
                            <g>
                                <path d="M1952.042,1296.339C1954.631,1297.36 1958.119,1298.697 1960.798,1299.718L1960.809,1299.821C1957.23,1301.427 1955.452,1302.438 1952.891,1303.616C1951.935,1304.055 1950.87,1304.518 1949.561,1305.043C1949.052,1305.248 1948.688,1305.33 1948.132,1305.259L1948.135,1305.104L1947.848,1305.213C1946.534,1304.961 1944.139,1304.015 1937.557,1302.094L1937.553,1302.029C1943.166,1299.547 1947.774,1297.963 1952.042,1296.339Z" style="fill:rgb(96,76,74);"/>
                                <path d="M1961.775,1306.631C1961.759,1306.862 1961.725,1307.11 1961.672,1307.391C1961.59,1307.825 1961.914,1308.45 1951.311,1313.685C1950.3,1314.184 1949.692,1314.692 1948.386,1314.725C1947.14,1314.756 1945.26,1314.356 1941.789,1313.105C1942.91,1309.931 1941.788,1305.841 1937.665,1303.833C1937.62,1303.151 1937.584,1302.577 1937.557,1302.094C1944.139,1304.015 1946.534,1304.961 1947.848,1305.213C1947.949,1305.233 1948.043,1305.248 1948.132,1305.259C1948.688,1305.33 1949.052,1305.248 1949.561,1305.043C1950.87,1304.518 1951.935,1304.055 1952.891,1303.616C1955.452,1302.438 1957.23,1301.427 1960.809,1299.821C1961.297,1304.327 1961.878,1305.157 1961.775,1306.631Z" style="fill:rgb(107,90,90);"/>
                            </g>
                        </g>
                        <g>
                            <path id="_-" serif:id=" " d="M2000.918,1323.611C2001.678,1327.199 2004.103,1331.323 2007.442,1335.239C2001.799,1338.224 1998.825,1338.013 1991.04,1332.169L1990.79,1331.981C1989.594,1331.076 1988.854,1328.507 2000.918,1323.611ZM2019.386,1374.076C2022.24,1373.442 2024.149,1376.825 2022.302,1379.055C2019.269,1382.717 2012.812,1383.048 2011.088,1382.703C2003.324,1381.15 2012.915,1374.456 2019.386,1374.076ZM2009.07,1369.366C2012.419,1368.808 2013.471,1371.447 2012.852,1372.715C2012.44,1373.561 2011.684,1376.496 2001.041,1377.604C1996.254,1378.103 1998.196,1370.382 2009.07,1369.366Z" style="fill:rgb(222,105,116);"/>
                            <path d="M2003.097,1370.883C2004.659,1370.154 2006.641,1369.593 2009.07,1369.366C2012.419,1368.808 2013.471,1371.447 2012.852,1372.715C2012.691,1373.046 2012.477,1373.698 2011.636,1374.435C2009.604,1373.056 2007.189,1371.883 2004.295,1371.172C2003.875,1371.068 2003.474,1370.971 2003.097,1370.883ZM2013.398,1375.754C2015.318,1374.843 2017.487,1374.188 2019.386,1374.076C2022.24,1373.442 2024.149,1376.825 2022.302,1379.055C2021.38,1380.168 2020.142,1380.973 2018.817,1381.545C2017.452,1379.762 2015.714,1377.653 2013.398,1375.754Z" style="fill:rgb(223,80,80);"/>
                        </g>
                        <g>
                            <g>
                                <path d="M1976.016,1326.816C1978.486,1327.511 1980.625,1330.39 1984.428,1335.67C1984.781,1336.16 1985.147,1336.67 1985.53,1337.2C1984.128,1338.813 1981.959,1340.447 1979.366,1341.693C1978.054,1342.324 1976.632,1342.855 1975.147,1343.233C1973.723,1343.596 1972.24,1343.819 1970.736,1343.855C1970.88,1337.295 1970.94,1332.158 1970.999,1327.764C1973.041,1326.743 1974.584,1326.413 1976.016,1326.816Z" style="fill:rgb(237,237,235);"/>
                                <path d="M1979.498,1343.013C1979.73,1346.167 1979.237,1348.131 1978.531,1348.454C1977.082,1349.116 1975.833,1345.708 1975.147,1343.233C1976.632,1342.855 1978.054,1342.324 1979.366,1341.693C1979.424,1342.153 1979.467,1342.594 1979.498,1343.013Z" style="fill:rgb(228,114,63);"/>
                            </g>
                            <g>
                                <path d="M1969.814,1372.373C1969.914,1369.957 1970.004,1367.654 1970.086,1365.457C1970.227,1361.683 1970.344,1358.22 1970.442,1355.026C1970.568,1350.877 1970.663,1347.183 1970.736,1343.855C1972.24,1343.819 1973.723,1343.596 1975.147,1343.233C1975.833,1345.708 1977.082,1349.116 1978.531,1348.454C1979.237,1348.131 1979.73,1346.167 1979.498,1343.013C1983.31,1344.153 1987.706,1345.343 1992.11,1346.25C1994.311,1346.703 1995.569,1346.939 1996.747,1347.225L1996.75,1347.469C1987.166,1351.371 1985.642,1351.836 1976.723,1355.317L1975.339,1355.858C1975.285,1359.478 1975.243,1361.373 1975.096,1364.27C1975.008,1366.013 1974.881,1368.119 1974.691,1371.182C1974.617,1372.374 1974.577,1373.198 1974.563,1373.817L1974.171,1374.029C1972.332,1373.376 1971.373,1373.063 1969.814,1372.373ZM1996.849,1355.309C1996.883,1358.121 1996.917,1361.116 1996.945,1363.858C1988.762,1367.894 1987.489,1368.422 1986.465,1368.846C1980.141,1371.466 1978.993,1371.444 1974.563,1373.817C1974.577,1373.198 1974.617,1372.374 1974.691,1371.182C1974.881,1368.119 1975.008,1366.013 1975.096,1364.27C1978.429,1362.762 1984.838,1360.012 1996.849,1355.309ZM1996.845,1355.044C1996.847,1355.132 1996.848,1355.22 1996.849,1355.309C1984.838,1360.012 1978.429,1362.762 1975.096,1364.27C1975.243,1361.373 1975.285,1359.478 1975.339,1355.858L1976.723,1355.317C1985.642,1351.836 1987.166,1351.371 1996.75,1347.469C1996.761,1348.308 1996.773,1349.27 1996.787,1350.319C1996.805,1351.761 1996.825,1353.367 1996.845,1355.044Z" style="fill:rgb(252,224,166);"/>
                                <path d="M1974.563,1373.817L1974.171,1374.029C1972.332,1373.376 1971.373,1373.063 1969.814,1372.373C1969.914,1369.957 1970.004,1367.654 1970.086,1365.457C1970.227,1361.683 1970.344,1358.22 1970.442,1355.026C1970.467,1354.209 1970.49,1353.409 1970.513,1352.626C1972.711,1353.425 1975.204,1354.507 1975.625,1355.396C1975.629,1355.405 1975.627,1355.528 1975.62,1355.748C1975.583,1356.844 1975.417,1360.356 1975.217,1364.215C1975.042,1367.59 1974.84,1371.231 1974.675,1373.757C1974.638,1373.777 1974.601,1373.797 1974.563,1373.817Z" style="fill:rgb(253,207,139);"/>
                            </g>
                        </g>
                        <path d="M2026.941,1323.502C2026.217,1324.087 2025.192,1324.865 2024.095,1325.641C2022.78,1326.572 2021.361,1327.501 2020.232,1328.09C2019.374,1328.537 2018.683,1328.789 2018.333,1328.696C2017.649,1328.515 2016.557,1321.449 2016.659,1321.379C2017.035,1321.306 2017.907,1320.831 2018.993,1320.176C2021.964,1318.385 2026.531,1315.252 2026.885,1315.351C2027.001,1315.384 2027.696,1319.453 2027.998,1322.538C2028.004,1322.605 2027.596,1322.974 2026.941,1323.502ZM2017.047,1344.01C2017.92,1341.52 2018.89,1336.337 2020.232,1328.09C2021.361,1327.501 2022.78,1326.572 2024.095,1325.641C2024.705,1326.226 2025.347,1326.81 2026.025,1327.387C2027.004,1328.219 2028.154,1329.063 2029.385,1329.921C2029.746,1330.172 2030.113,1330.424 2030.484,1330.677C2038.209,1335.944 2047.904,1341.732 2038.842,1348.417C2033.466,1352.383 2024.777,1349.5 2017.047,1344.01ZM2018.993,1320.176C2017.907,1320.831 2017.035,1321.306 2016.659,1321.379C2016.557,1321.449 2017.649,1328.515 2018.333,1328.696C2018.683,1328.789 2019.374,1328.537 2020.232,1328.09C2018.89,1336.337 2017.92,1341.52 2017.047,1344.01C2016.026,1343.285 2015.022,1342.514 2014.044,1341.708C2011.633,1339.72 2009.383,1337.515 2007.442,1335.239C2004.103,1331.323 2001.678,1327.199 2000.918,1323.611C1999.937,1318.984 2001.728,1315.251 2007.901,1314.013C2012.546,1313.082 2015.364,1316.071 2018.993,1320.176Z" style="fill:rgb(237,237,235);"/>
                    </g>
                    <g id="outline1" serif:id="outline">
                        <path d="M1948.135,1305.104L1948.132,1305.259M1915.034,1317.953L1916.501,1317.332C1920.908,1315.471 1924.438,1314.039 1927.537,1312.825M1947.848,1305.213L1948.135,1305.104M1952.416,1303.447C1952.575,1303.504 1952.733,1303.56 1952.891,1303.616M1961.775,1306.631C1966.499,1308.321 1969.097,1309.396 1970.907,1310.171L1971.548,1310.446M1915.034,1317.953C1912.989,1341.103 1913.664,1341.63 1914.199,1351.303C1915.344,1372.002 1911.93,1378.432 1915.905,1380.459C1925.684,1385.449 1932.615,1389.858 1936.541,1390.582C1937.496,1390.758 1938.273,1390.716 1938.87,1390.412C1942.318,1388.654 1949.015,1385.436 1955.773,1382.224C1960.815,1379.828 1965.89,1377.436 1969.677,1375.656M1971.584,1309.918L1971.548,1310.446C1970.805,1321.688 1971.2,1330.237 1970.442,1355.026C1970.344,1358.22 1970.227,1361.683 1970.086,1365.457C1969.967,1368.629 1969.832,1372.021 1969.677,1375.656M1971.584,1309.918L1970.907,1310.171C1965.924,1312.032 1960.645,1313.846 1955.738,1315.559C1945.52,1319.123 1936.912,1322.244 1935.926,1324.414C1935.852,1324.576 1935.782,1324.746 1935.715,1324.924C1934.097,1329.253 1934.695,1338.33 1935.827,1369.567C1935.946,1372.846 1936.071,1376.37 1936.2,1380.157C1936.311,1383.43 1936.425,1386.901 1936.541,1390.582M1955.738,1315.559C1955.788,1319.798 1955.887,1327.649 1956.064,1342.426C1956.156,1350.079 1956.156,1356.053 1956.115,1360.912C1956.079,1365.171 1956.011,1368.574 1955.945,1371.503C1955.851,1375.672 1955.762,1378.88 1955.773,1382.224M1935.827,1369.567C1941.975,1367.045 1948.763,1364.041 1956.115,1360.912C1960.679,1358.97 1965.461,1356.98 1970.442,1355.026M1936.2,1380.157C1942.65,1377.269 1949.668,1374.21 1955.945,1371.503C1961.566,1369.079 1966.593,1366.938 1970.086,1365.457M1950.107,1342.122C1949.577,1347.875 1949.843,1347.799 1949.85,1347.893M1961.321,1340.37C1960.876,1340.751 1961.176,1345.099 1961.204,1345.51M1933.937,1302.756C1923.294,1303.938 1925.159,1317.34 1935.507,1317.438C1943.9,1317.518 1945.48,1304.295 1933.937,1302.756ZM1941.789,1313.105C1945.26,1314.356 1947.14,1314.756 1948.386,1314.725C1949.692,1314.692 1950.3,1314.184 1951.311,1313.685C1961.914,1308.45 1961.59,1307.825 1961.672,1307.391C1961.725,1307.11 1961.759,1306.862 1961.775,1306.631C1961.878,1305.157 1961.297,1304.327 1960.809,1299.821L1960.798,1299.718M1937.466,1302.067C1944.117,1304.006 1946.528,1304.96 1947.848,1305.213C1947.949,1305.233 1948.043,1305.248 1948.132,1305.259C1948.688,1305.33 1949.052,1305.248 1949.561,1305.043C1950.87,1304.518 1951.935,1304.055 1952.891,1303.616C1955.452,1302.438 1957.23,1301.427 1960.809,1299.821L1960.928,1299.768M1937.466,1302.067C1937.495,1302.054 1937.524,1302.042 1937.553,1302.029C1943.166,1299.547 1947.774,1297.963 1952.042,1296.339M1952.042,1296.339C1954.631,1297.36 1958.119,1298.697 1960.798,1299.718L1960.928,1299.768M1937.553,1302.029L1937.557,1302.094C1937.584,1302.577 1937.62,1303.151 1937.665,1303.833" style="fill:none;stroke:rgb(82,72,72);stroke-width:0.95px;stroke-linecap:round;stroke-linejoin:round;stroke-miterlimit:1.5;"/>
                        <path d="M2009.07,1369.366C1998.196,1370.382 1996.254,1378.103 2001.041,1377.604C2011.684,1376.496 2012.44,1373.561 2012.852,1372.715C2013.471,1371.447 2012.419,1368.808 2009.07,1369.366ZM2019.386,1374.076C2012.915,1374.456 2003.324,1381.15 2011.088,1382.703C2012.812,1383.048 2019.269,1382.717 2022.302,1379.055C2024.149,1376.825 2022.24,1373.442 2019.386,1374.076Z" style="fill:none;stroke:rgb(82,72,72);stroke-width:0.95px;stroke-linecap:round;stroke-linejoin:round;stroke-miterlimit:1.5;"/>
                        <path d="M1975.339,1355.858L1976.723,1355.317C1985.642,1351.836 1987.166,1351.371 1996.75,1347.469M1979.498,1343.013C1983.31,1344.153 1987.706,1345.343 1992.11,1346.25C1994.311,1346.703 1995.569,1346.939 1996.747,1347.225M1975.096,1364.27C1978.429,1362.762 1984.838,1360.012 1996.849,1355.309M1975.339,1355.858C1975.285,1359.478 1975.243,1361.373 1975.096,1364.27C1975.008,1366.013 1974.881,1368.119 1974.691,1371.182C1974.617,1372.374 1974.577,1373.198 1974.563,1373.817L1974.557,1374.166M1969.814,1372.373C1971.373,1373.063 1972.332,1373.376 1974.171,1374.029L1974.557,1374.166M1996.747,1347.225L1996.75,1347.469C1996.777,1349.521 1996.812,1352.311 1996.849,1355.309C1996.883,1358.121 1996.917,1361.116 1996.945,1363.858M1974.171,1374.029L1974.563,1373.817C1978.993,1371.444 1980.141,1371.466 1986.465,1368.846C1987.489,1368.422 1988.762,1367.894 1996.945,1363.858M1984.372,1365.575C1984.711,1364.728 1985.228,1365.442 1989.418,1363.108M1982.69,1356.604C1985.119,1355.481 1985.111,1355.577 1987.699,1354.922M1970.736,1343.855C1972.24,1343.819 1973.723,1343.596 1975.147,1343.233C1976.632,1342.855 1978.054,1342.324 1979.366,1341.693C1981.959,1340.447 1984.128,1338.813 1985.53,1337.2M1970.999,1327.764C1976.893,1324.819 1978.626,1327.623 1985.53,1337.2M1975.147,1343.233C1975.833,1345.708 1977.082,1349.116 1978.531,1348.454C1979.237,1348.131 1979.73,1346.167 1979.498,1343.013C1979.467,1342.594 1979.424,1342.153 1979.366,1341.693" style="fill:none;stroke:rgb(82,72,72);stroke-width:0.95px;stroke-linecap:round;stroke-linejoin:round;stroke-miterlimit:1.5;"/>
                        <path d="M1975.619,1316.545C1975.649,1317.716 1975.709,1319.13 1975.784,1320.897C1975.836,1322.119 1975.813,1324.611 1975.831,1326.768M1991.04,1332.169C1989.319,1332.932 1986.572,1334.5 1984.476,1335.736M2012.81,1301.346C2015.071,1302.083 2018.597,1302.665 2019.737,1303.44C2019.825,1303.499 2019.898,1303.56 2019.956,1303.621C2020.987,1304.724 2019.779,1314.759 2019.914,1319.611M2000.918,1323.611C1988.854,1328.507 1989.594,1331.076 1990.79,1331.981L1991.04,1332.169C1998.825,1338.013 2001.799,1338.224 2007.442,1335.239M1996.787,1350.319C2000.542,1351.885 2008.695,1355.274 2036.806,1367.217M1996.845,1355.044C2005.296,1358.858 2026.93,1368.37 2036.802,1372.645M2036.837,1354.198C2036.836,1355.599 2036.834,1356.93 2036.832,1358.194C2036.825,1361.681 2036.813,1364.664 2036.806,1367.217C2036.8,1369.299 2036.797,1371.094 2036.802,1372.645C2036.825,1379.206 2036.842,1380.045 2037.549,1380.87C2037.798,1381.16 2042.081,1381.854 2042.081,1381.854C2050.55,1378.259 2068.829,1371.172 2081.679,1364.902M2081.806,1341.943L2081.855,1341.925M2081.806,1341.906L2081.806,1341.943C2081.711,1347.731 2082.003,1357.145 2081.679,1364.902M2036.837,1354.198C2038.265,1353.553 2039.993,1352.814 2041.984,1351.999C2047.92,1349.569 2056.194,1346.456 2065.823,1343.108C2069.038,1341.99 2072.403,1340.846 2075.883,1339.692M1975.619,1316.545C1976.778,1316.014 1978.004,1315.457 1979.295,1314.878C1987.825,1311.051 1999.204,1306.239 2012.81,1301.346M2075.883,1339.692C2077.383,1340.21 2079.317,1340.916 2081.806,1341.906L2081.855,1341.925M2025.936,1326.098L2026.268,1326.241L2029.479,1327.622C2030.823,1328.199 2032.203,1328.79 2033.611,1329.392L2035.175,1330.061L2039.33,1331.833L2043.436,1333.581C2051.216,1336.892 2059.148,1340.255 2065.823,1343.108" style="fill:none;stroke:rgb(82,72,72);stroke-width:0.95px;stroke-linecap:round;stroke-linejoin:round;stroke-miterlimit:1.5;"/>
                        <g transform="matrix(1.052618,-0.083376,0.081661,1.030972,-218.468275,129.325615)">
                            <path d="M2023.311,1318.704C2020.192,1314.469 2017.755,1311.374 2013.3,1311.916C2000.121,1313.523 2006.518,1328.705 2017.029,1339.081C2017.891,1339.933 2018.781,1340.752 2019.691,1341.528C2026.579,1347.411 2034.566,1350.853 2039.938,1347.441C2048.993,1341.689 2040.274,1335.37 2033.374,1329.703C2033.042,1329.431 2032.715,1329.159 2032.393,1328.89C2031.295,1327.969 2030.272,1327.068 2029.411,1326.191C2028.813,1325.583 2028.251,1324.971 2027.719,1324.361M2030.566,1322.517C2030.945,1324.056 2032.091,1327.884 2032.393,1328.89C2032.422,1328.984 2032.442,1329.053 2032.455,1329.094M2016.45,1329.776C2016.462,1330.441 2016.547,1335.398 2017.029,1339.081C2017.329,1341.382 2017.784,1343.186 2018.472,1343.137C2018.836,1343.111 2019.233,1342.585 2019.691,1341.528C2020.701,1339.195 2022.005,1334.273 2023.889,1326.426M2021.017,1319.685C2020.915,1319.745 2021.419,1326.639 2022.051,1326.866C2023.476,1327.377 2031.64,1321.955 2031.635,1321.668C2031.581,1318.671 2031.229,1314.696 2031.122,1314.656C2030.676,1314.488 2022.363,1319.53 2021.017,1319.685ZM2031.45,1341.286C2030.023,1335.087 2031.404,1338.395 2029.963,1330.943C2030.896,1330.631 2038.532,1328.081 2041.004,1325.529C2041.573,1324.942 2041.661,1324.524 2041.396,1322.072M2037.939,1333.23C2039.925,1327.638 2041.14,1325.435 2041.471,1325.286C2042.792,1324.692 2043.087,1325.604 2047.414,1342.388C2048.357,1346.041 2049.245,1345.569 2053.021,1345.733M2013.965,1320.17C2014.209,1320.427 2015.046,1321.308 2016.907,1323.483M2017.912,1318.196C2018.291,1318.386 2019.662,1320.113 2019.802,1320.289" style="fill:none;stroke:rgb(82,72,72);stroke-width:1.55px;stroke-linecap:round;stroke-linejoin:round;stroke-miterlimit:1.5;"/>
                        </g>
                    </g>
                </g>
            </g>
            <g id="sushi-top" transform="matrix(1,0,0,1,0,-2.317523)">
                <g id="color2" serif:id="color">
                    <path d="M2149.045,1366.328C2151.752,1369.188 2154.463,1371.811 2157.375,1374.17C2195.128,1404.763 2144.324,1414.141 2114.992,1386.918C2083.126,1357.345 2064.528,1383.342 2012.909,1407.166C1948.102,1437.077 1883.841,1411.069 1880.252,1408.962C1848.859,1390.536 1846.266,1375.156 1850.243,1364.516C1853.19,1356.631 1859.745,1351.349 1860.86,1349.36C1881.85,1311.907 1899.089,1309.048 1936.575,1292.695C1948.646,1290.233 2026.847,1274.832 2079.878,1306.084C2093.725,1314.244 2104.492,1322.047 2113.216,1329.372C2130.494,1343.879 2139.753,1356.51 2149.045,1366.328Z" style="fill:rgb(255,178,117);"/>
                    <path d="M1863.651,1379.265C1873.482,1346.717 1900.884,1316.814 1940.967,1307.106C1989.002,1295.473 2046.156,1297.409 2090.789,1312.84M1892.986,1394.098C1901.995,1372.838 1919.295,1348.148 1951.918,1330.81C2013.343,1298.164 2071.613,1310.587 2107.198,1324.506M1945.266,1400.587C1962.602,1374.199 1990.643,1347.416 2019.905,1338.362C2061.39,1325.525 2098.692,1331.281 2124.11,1339.215M2025.901,1378.509C2035.943,1368.984 2048.121,1360.709 2062.168,1356.556C2097.43,1346.132 2121.545,1348.354 2137.065,1352.884" style="fill:none;stroke:rgb(250,216,175);stroke-width:5.04px;stroke-linecap:round;stroke-linejoin:round;stroke-miterlimit:1.5;"/>
                    <path d="M1850.243,1364.516C1862.346,1385.661 1905.936,1411.006 1982.7,1396.306C2019.3,1389.298 2071.234,1338.05 2146.036,1365.079C2146.966,1365.415 2147.974,1365.833 2149.045,1366.328C2151.752,1369.188 2154.463,1371.811 2157.375,1374.17C2195.128,1404.763 2144.324,1414.141 2114.992,1386.918C2083.126,1357.345 2064.528,1383.342 2012.909,1407.166C1948.102,1437.077 1883.841,1411.069 1880.252,1408.962C1848.859,1390.536 1846.266,1375.156 1850.243,1364.516Z" style="fill:rgb(247,136,88);"/>
                </g>
                <path id="outline2" serif:id="outline" d="M2149.045,1366.328C2151.752,1369.188 2154.463,1371.811 2157.375,1374.17C2195.128,1404.763 2144.324,1414.141 2114.992,1386.918C2083.126,1357.345 2064.528,1383.342 2012.909,1407.166C1948.102,1437.077 1883.841,1411.069 1880.252,1408.962C1848.859,1390.536 1846.266,1375.156 1850.243,1364.516C1853.19,1356.631 1859.745,1351.349 1860.86,1349.36C1881.85,1311.907 1899.089,1309.048 1936.575,1292.695C1948.646,1290.233 2026.847,1274.832 2079.878,1306.084C2093.725,1314.244 2104.492,1322.047 2113.216,1329.372C2130.494,1343.879 2139.753,1356.51 2149.045,1366.328Z" style="fill:none;stroke:rgb(82,72,72);stroke-width:1.62px;stroke-linecap:round;stroke-linejoin:round;stroke-miterlimit:1.5;"/>
            </g>
            <g id="connectors" transform="matrix(1.231873,0,0,1.231873,-466.020603,130.756883)">
                <g id="connector2-start" transform="matrix(0.525327,0,0,0.525327,1176.195158,668.740692)">
                    <circle cx="1676.335" cy="689.818" r="8.708" style="current-color;"/>
                </g>
                <g id="connector1-start" transform="matrix(0.525327,0,0,0.525327,1041.28311,618.571563)">
                    <circle cx="1676.335" cy="689.818" r="8.708" style="current-color;"/>
                </g>
            </g>
        </g>
    </g>
    </svg>