<?xml version="1.0" encoding="UTF-8" standalone="no"?>
<!DOCTYPE svg PUBLIC "-//W3C//DTD SVG 1.1//EN" "http://www.w3.org/Graphics/SVG/1.1/DTD/svg11.dtd">
<svg width="100%" height="100%" viewBox="0 0 598 333" version="1.1" xmlns="http://www.w3.org/2000/svg" xmlns:xlink="http://www.w3.org/1999/xlink" xml:space="preserve" xmlns:serif="http://www.serif.com/" style="fill-rule:evenodd;clip-rule:evenodd;">
    <g transform="matrix(1,0,0,1,-788.895404,-1140.330954)">
        <g id="tuna" transform="matrix(1.53029,0,0,1.53029,-1230.203047,-852.831137)">
            <g id="plate-shadow" transform="matrix(0.656695,0,0,0.656695,1320.119248,1377.849705)">
                <g id="plate-shadow1" serif:id="plate-shadow">
                    <ellipse id="plate-shadow2" serif:id="plate-shadow" cx="295.704" cy="110.569" rx="295.704" ry="105.987" style="fill:rgb(55,48,48);"/>
                </g>
            </g>
            <g id="sushi-base">
                <g id="plate-base" transform="matrix(0.656695,0,0,0.656695,1320.446282,1377.262981)">
                    <g id="plate-base1" serif:id="plate-base">
                        <path id="plate-base2" serif:id="plate-base" d="M295.706,0.5C377.321,0.5 451.187,12.358 504.632,31.514C531.356,41.092 552.949,52.486 567.85,65.113C582.753,77.742 590.91,91.557 590.91,105.987C590.91,120.417 582.753,134.231 567.85,146.86C552.949,159.488 531.356,170.882 504.632,180.461C451.187,199.617 377.32,211.475 295.706,211.475C214.092,211.475 140.225,199.617 86.78,180.461C60.056,170.882 38.465,159.488 23.564,146.86C8.66,134.231 0.502,120.418 0.502,105.987C0.502,91.557 8.66,77.742 23.564,65.113C38.465,52.486 60.056,41.092 86.78,31.514C140.225,12.358 214.092,0.5 295.706,0.5Z" style="fill:rgb(239,234,231);fill-rule:nonzero;stroke:rgb(55,48,48);stroke-width:1px;"/>
                    </g>
                </g>
                <g id="sushi-shadow" transform="matrix(0.558192,0,0,0.558192,915.468289,690.842642)">
                    <path d="M922.035,1330.949C906.793,1335.667 824.95,1342.073 869.813,1376.06C870.601,1376.657 986.153,1424.648 1074.897,1411.11C1155.433,1398.825 1227.555,1322.478 1267.207,1315.043C1268.338,1314.831 1294.285,1314.993 1296.874,1298.599C1299.354,1282.889 1262.464,1268.367 1227.034,1267.616C1187.981,1266.787 1125.071,1213.141 1003.813,1290.394C962.543,1316.686 926.565,1325.221 922.035,1330.949Z" style="fill: current-color;"/>
                </g>
                <g id="base" transform="matrix(0.854196,0,0,0.854196,228.778388,214.798845)">
                    <g id="color" transform="matrix(0.653471,0,0,0.653471,803.901922,557.300352)">
                        <path d="M923.047,1264.474C923.015,1264.399 922.985,1264.323 922.956,1264.245C918.297,1251.664 951.463,1248.689 954.257,1248.438C952.808,1248.022 916.087,1237.466 948.861,1230.38C950.899,1229.939 952.913,1229.602 954.886,1229.35C955.928,1230.067 957.121,1229.75 959.025,1228.935C964.243,1228.552 969.056,1228.715 973.101,1229.06C973.824,1229.436 974.621,1229.797 975.502,1230.138C973.814,1236.69 977.378,1238.197 978.082,1238.494C980.155,1239.371 983.067,1240.617 986.514,1241.971C986.753,1246.35 985.668,1253.658 988.259,1255.818C990.393,1257.596 1003.935,1262.501 1008.804,1262.334C1010.202,1262.286 1017.847,1262.023 1025.922,1258.761C1026.754,1258.425 1027.656,1258.06 1027.116,1249.612C1031.163,1248.819 1034.684,1247.151 1037.3,1244.279C1037.877,1243.644 1039.803,1241.529 1036.934,1233.56C1036.831,1233.274 1036.592,1232.93 1036.242,1232.544C1033.558,1229.581 1024.302,1224.091 1019.186,1222.68C1017.787,1222.294 1011.031,1220.43 1002.706,1218.685C1002.545,1218.651 1002.384,1218.618 1002.222,1218.584C1002.911,1216.919 1002.631,1212.449 1003.982,1197.391C1004.111,1195.957 1004.237,1194.757 1004.284,1193.74C1005.53,1193.169 1007.014,1192.526 1008.448,1191.914C1011.007,1202.001 1006.583,1219.049 1013.39,1219.466C1015.867,1219.617 1026.631,1216.944 1027.027,1212.419C1027.121,1211.342 1027.296,1193.959 1024.287,1185.513C1025.343,1185.122 1026.443,1184.701 1027.33,1184.324C1027.688,1203 1028.525,1206.323 1029.741,1225.038C1040.408,1230.139 1056.181,1237.288 1058.216,1238.21C1061.306,1239.611 1073.629,1244.842 1083.674,1249.344L1083.67,1249.701L1084.053,1249.514L1086.566,1248.292C1093.458,1244.943 1098.913,1242.196 1104.632,1239.275C1105.648,1240.991 1107.225,1242.322 1109.352,1242.887C1109.391,1244.159 1109.454,1245.826 1109.532,1248.067C1109.59,1249.733 1109.656,1251.717 1109.727,1254.092C1095.14,1250.451 1095.038,1260.454 1096.147,1264.058C1098.547,1271.858 1130.468,1289.194 1140.084,1275.498C1143.722,1270.317 1138.424,1263.109 1126.122,1259.626C1126.101,1258.95 1126.068,1258.254 1126.018,1257.539C1125.993,1257.176 1125.969,1256.821 1125.945,1256.473C1140.781,1263.712 1151.618,1267.99 1158.967,1270.904C1159.557,1271.138 1160.133,1271.366 1160.693,1271.589L1160.698,1271.739L1160.887,1271.666C1175.084,1266.218 1206.347,1253.652 1207.045,1252.618C1208.516,1250.435 1208.22,1240.54 1207.702,1230.184C1210.81,1230.11 1213.266,1231.241 1215.591,1230.659C1215.606,1230.656 1234.407,1205.579 1233.7,1238.877C1252.878,1234.034 1252.212,1246.382 1247.13,1255.249C1253.981,1259.376 1255.857,1272.24 1238.832,1277.229C1243.299,1285.148 1245.099,1290.076 1229.346,1295.271C1233.235,1304.254 1234.995,1306.329 1226.623,1311.656C1218.926,1316.554 1218.255,1314.789 1210.001,1310.721C1210.952,1331.467 1198.441,1328.752 1183.615,1314.163C1193.825,1329.35 1187.119,1338.32 1169.847,1331.743C1178.57,1347.279 1170.952,1352.554 1153.438,1348.408C1150.936,1361.791 1148.041,1362.672 1134.543,1359.873C1117.786,1373.464 1115.757,1370.651 1115.253,1370.658C1112.634,1370.693 1109.308,1369.493 1106.356,1367.912C1107.558,1375.379 1099.709,1377.683 1088.222,1372.918C1089.432,1386.109 1085.607,1388.615 1067.635,1385.587C1066.553,1388.28 1065.777,1398.187 1049.758,1396.423C1043.539,1395.738 1038.305,1392.174 1034.555,1388.817C1028.05,1392.208 1016.265,1382.761 1014.97,1381.722C1014.162,1383.49 1007.624,1397.792 995.015,1395.585C981.351,1393.194 990.579,1375.724 991.201,1374.066C990.454,1374.563 982.95,1379.561 980.771,1378.199C975.555,1374.939 978.07,1373.669 978.486,1367.435C976.614,1368.758 960.969,1380.891 955.507,1361.872C954.379,1362.454 953.199,1362.758 952.143,1362.698C926.597,1361.238 920.095,1336.605 919.192,1333.183C893.963,1354.553 911.5,1315.486 907.106,1315.776C885.241,1317.214 908.141,1292.927 909.479,1291.507C907.433,1289.504 892.923,1275.292 923.047,1264.474Z" style="fill:rgb(244,244,243);"/>
                    </g>
                    <path id="outline" d="M1439.795,1360.455C1437.152,1360.23 1434.007,1360.123 1430.597,1360.374M1427.892,1360.645C1426.603,1360.809 1425.287,1361.03 1423.955,1361.318C1402.538,1365.949 1426.534,1372.846 1427.481,1373.118C1425.655,1373.282 1403.982,1375.226 1407.027,1383.448C1407.046,1383.499 1407.066,1383.548 1407.086,1383.597C1408.545,1387.026 1414.754,1385.752 1414.282,1388.512C1412.968,1396.194 1415.511,1399.267 1421.993,1394.946M1618.865,1377.569C1622.186,1371.775 1622.621,1363.706 1610.089,1366.87C1610.551,1345.111 1598.265,1361.498 1598.255,1361.5C1596.736,1361.88 1595.131,1361.142 1593.1,1361.19M1407.086,1383.597C1387.401,1390.667 1396.883,1399.954 1398.22,1401.263C1397.345,1402.19 1382.381,1418.061 1396.669,1417.121C1399.541,1416.933 1388.081,1442.461 1404.567,1428.497C1405.157,1430.733 1409.406,1446.83 1426.1,1447.784C1426.79,1447.823 1427.561,1447.624 1428.298,1447.244M1479.953,1464.852C1482.404,1467.045 1485.824,1469.375 1489.888,1469.822C1500.356,1470.975 1500.863,1464.501 1501.57,1462.741C1513.314,1464.72 1515.814,1463.083 1515.023,1454.462C1522.53,1457.576 1527.659,1456.07 1526.873,1451.191C1526.64,1449.746 1525.889,1448.005 1524.527,1446.002C1529.269,1442.177 1530.759,1440.618 1525.93,1436.829C1540.204,1442.13 1541.939,1429.467 1535.288,1424.696M1526.873,1451.191C1528.803,1452.224 1530.976,1453.008 1532.687,1452.985C1533.017,1452.981 1534.342,1454.819 1545.293,1445.938C1554.113,1447.767 1556.005,1447.191 1557.64,1438.446C1569.085,1441.155 1574.063,1437.708 1568.363,1427.556C1579.649,1431.853 1584.032,1425.992 1577.36,1416.068C1587.048,1425.601 1595.224,1427.376 1594.602,1413.818C1599.996,1416.477 1600.435,1417.63 1605.465,1414.429C1610.935,1410.948 1609.785,1409.593 1607.243,1403.722C1617.538,1400.328 1616.362,1397.107 1613.443,1391.933C1624.568,1388.672 1623.342,1380.266 1618.865,1377.569C1616.676,1376.251 1613.711,1376.297 1611.031,1378.976M1427.24,1440.848C1428.867,1462 1441.922,1451.864 1443.314,1450.879C1443.043,1454.953 1441.399,1455.783 1444.807,1457.913C1446.231,1458.803 1451.135,1455.538 1451.623,1455.212C1451.216,1456.296 1445.186,1467.712 1454.115,1469.275C1462.355,1470.717 1466.627,1461.371 1467.155,1460.216C1468.013,1460.903 1475.911,1467.235 1480.124,1464.757C1485.1,1461.83 1484.101,1460.042 1479.85,1456.134C1488.422,1457.609 1489.45,1457.707 1493.173,1454.628C1496.136,1452.178 1494.245,1449.063 1493.995,1448.651M1493.851,1397.654C1493.637,1397.6 1491.074,1394.559 1488.537,1394.412C1484.407,1394.174 1485.032,1395.593 1482.48,1398.876C1473.906,1390.676 1468.358,1399.778 1471.833,1403.669M1582.772,1401.158C1583.804,1400.996 1594.615,1399.3 1590.744,1390.82C1589.885,1388.939 1585.061,1385.476 1583.152,1392.397M1465.817,1422.183C1464.176,1421.691 1457.737,1425.379 1459.364,1429.484C1460.664,1432.767 1467.847,1434.588 1475.016,1428.462" style="fill:none;stroke:rgb(82,72,72);stroke-width:1.72px;stroke-linecap:round;stroke-linejoin:round;stroke-miterlimit:1.5;"/>
                </g>
                <g id="room" transform="matrix(0.854196,0,0,0.854196,228.778388,214.798845)">
                    <g id="color1" serif:id="color">
                        <g>
                            <path d="M1497.113,1291.807C1499.782,1292.95 1503.445,1288.701 1511.273,1298.251C1513.07,1300.443 1507.505,1303.49 1504.335,1302.886C1498.066,1301.692 1502.674,1297.62 1501.808,1295.888C1501.435,1295.143 1497.887,1295.538 1497.756,1295.53C1495.326,1295.381 1496.978,1292.077 1497.113,1291.807Z" style="fill:rgb(237,237,235);"/>
                            <path d="M1511.613,1280.979C1520.356,1284.804 1538.18,1292.797 1549.235,1298.427C1537.301,1303.381 1521.176,1309.009 1511.962,1312.351L1511.949,1312.356C1507.645,1310.783 1502.306,1308.779 1494.878,1305.39C1493.744,1304.873 1483.479,1299.838 1475.62,1295.953C1486.021,1291.334 1501.918,1284.914 1511.613,1280.979ZM1497.113,1291.807C1496.978,1292.077 1495.326,1295.381 1497.756,1295.53C1497.887,1295.538 1501.435,1295.143 1501.808,1295.888C1502.674,1297.62 1498.066,1301.692 1504.335,1302.886C1507.505,1303.49 1513.07,1300.443 1511.273,1298.251C1503.445,1288.701 1499.782,1292.95 1497.113,1291.807ZM1474.592,1296.412L1475.62,1295.953C1483.479,1299.838 1493.744,1304.873 1494.878,1305.39C1502.306,1308.779 1507.645,1310.783 1511.949,1312.356L1511.962,1312.361C1511.581,1335.17 1511.201,1336.139 1511.418,1347.699C1511.694,1362.409 1512.145,1365.824 1512.052,1373.71C1505.488,1370.769 1497.435,1367.35 1495.415,1366.435C1494.085,1365.832 1483.778,1361.16 1476.808,1357.827C1476.013,1345.598 1475.466,1343.426 1475.232,1331.222C1475.232,1331.201 1475.231,1331.179 1475.231,1331.158C1475.203,1329.699 1475.176,1328.291 1475.151,1326.931C1474.855,1311.27 1474.697,1302.068 1474.592,1296.412ZM1549.463,1298.543C1549.445,1305.119 1549.576,1316.988 1549.591,1318.379C1549.68,1326.39 1550.001,1331.185 1550.127,1334.855C1548.951,1335.328 1547.575,1336.003 1545.917,1336.931C1544.898,1330.913 1543.38,1326.129 1541.876,1325.244C1540.949,1324.496 1539.444,1322.518 1538.135,1322.179C1526.258,1319.105 1525.958,1344.08 1527.453,1358.112C1524.679,1360.225 1524.139,1364.414 1525.747,1367.13C1522.01,1369.039 1518.445,1370.834 1513.941,1373.023L1512.299,1373.821L1512.052,1373.71C1512.145,1365.824 1511.694,1362.409 1511.418,1347.699C1511.201,1336.139 1511.581,1335.17 1511.962,1312.361L1511.962,1312.351C1521.176,1309.009 1537.301,1303.381 1549.235,1298.427L1549.463,1298.543Z" style="fill:rgb(190,234,255);"/>
                            <path d="M1549.588,1318.064C1549.589,1318.198 1549.59,1318.304 1549.591,1318.379C1549.68,1326.39 1550.001,1331.185 1550.127,1334.855C1548.951,1335.328 1547.575,1336.003 1545.917,1336.931C1544.898,1330.913 1543.38,1326.129 1541.876,1325.244C1541.847,1325.221 1541.818,1325.197 1541.788,1325.171C1543.344,1322.385 1544.446,1320.109 1545.061,1319.598C1547.042,1317.953 1548.499,1317.634 1549.588,1318.064ZM1527.202,1337.94C1526.526,1344.705 1526.837,1352.336 1527.453,1358.112C1524.679,1360.225 1524.139,1364.414 1525.747,1367.13C1522.01,1369.039 1518.445,1370.834 1513.941,1373.023L1512.299,1373.821L1512.052,1373.71C1505.488,1370.769 1497.435,1367.35 1495.415,1366.435C1494.085,1365.832 1483.778,1361.16 1476.808,1357.827C1476.013,1345.598 1475.466,1343.426 1475.232,1331.222L1475.231,1331.158L1475.185,1328.742C1476.358,1331.304 1477.365,1333.987 1477.381,1334.024C1479.422,1338.744 1482.36,1329.626 1483.973,1328.38C1490.601,1323.258 1494.431,1342.509 1501.333,1345.379C1508.207,1348.237 1510.495,1344.309 1511.355,1341.343C1511.722,1340.079 1511.829,1338.989 1511.921,1338.674C1515.109,1327.785 1521.688,1335.93 1523.886,1337.004C1525.032,1337.563 1526.137,1337.861 1527.202,1337.94Z" style="fill:rgb(0,144,196);"/>
                            <path d="M1470.047,1328.478C1470.89,1328.695 1471.567,1329.168 1472.163,1329.904C1472.58,1330.419 1472.937,1331.138 1473.244,1331.999C1475.21,1337.518 1475.096,1348.877 1475.034,1349.581C1474.776,1352.538 1467.742,1354.285 1466.123,1354.186C1461.675,1353.913 1464.566,1342.773 1462.893,1336.182C1462.508,1334.665 1461.882,1333.389 1460.869,1332.542C1460.382,1332.135 1459.807,1331.827 1459.126,1331.639C1464.725,1329.022 1467.914,1327.93 1470.047,1328.478Z" style="fill:rgb(220,87,90);"/>
                        </g>
                        <g>
                            <path d="M1448.56,1368.893C1455.942,1371.793 1467.089,1375.455 1475.092,1373.885C1475.445,1379.406 1474.856,1379.644 1474.312,1379.864C1469.035,1381.996 1464.039,1382.167 1463.126,1382.199C1459.944,1382.308 1451.095,1379.103 1449.701,1377.941C1448.007,1376.53 1448.716,1371.754 1448.56,1368.893Z" style="fill:rgb(200,211,219);"/>
                            <path d="M1427.892,1360.645C1427.442,1360.335 1427.036,1359.731 1426.567,1358.731C1425.374,1356.186 1426.434,1356.232 1426.472,1356.219C1429.375,1355.18 1432.756,1353.413 1435.245,1352.899C1437.397,1352.455 1438.882,1352.948 1438.815,1355.657C1438.804,1356.117 1438.796,1356.443 1436.409,1357.668C1435.364,1358.204 1433.865,1358.912 1431.711,1359.879C1431.301,1360.063 1430.932,1360.23 1430.597,1360.374C1429.353,1360.906 1428.573,1361.113 1427.892,1360.645ZM1475.092,1373.885C1467.089,1375.455 1455.942,1371.793 1448.56,1368.893C1446.307,1368.007 1444.405,1367.193 1443.05,1366.62C1442.59,1366.426 1440.261,1365.442 1441.364,1361.16C1441.489,1361.208 1441.616,1361.256 1441.746,1361.303C1443.079,1361.785 1442.698,1360.179 1458.025,1354.305C1458.424,1354.153 1458.665,1353.997 1458.825,1353.61C1464.41,1354.769 1468.979,1356.029 1469.91,1356.286C1473.689,1357.329 1480.925,1361.776 1481.508,1363.396C1483.383,1368.604 1482.125,1369.986 1481.747,1370.4C1480.038,1372.277 1477.737,1373.367 1475.092,1373.885ZM1457.834,1333.766C1459.902,1334.515 1460.259,1335.443 1460.172,1337.375C1460.142,1338.04 1460.059,1338.824 1459.975,1339.76C1459.092,1349.601 1459.275,1352.521 1458.825,1353.61C1458.665,1353.997 1458.424,1354.153 1458.025,1354.305C1442.698,1360.179 1443.079,1361.785 1441.746,1361.303C1441.616,1361.256 1441.489,1361.208 1441.364,1361.16C1440.789,1360.937 1440.267,1360.701 1439.795,1360.455C1438.127,1359.587 1437.074,1358.6 1436.409,1357.668C1438.796,1356.443 1438.804,1356.117 1438.815,1355.657C1438.882,1352.948 1437.397,1352.455 1435.245,1352.899C1435.149,1346.762 1434.921,1342.679 1435.526,1339.437C1435.99,1336.956 1449.536,1334.14 1453.025,1331.998C1453.483,1332.821 1455.675,1333.156 1456.303,1333.313C1456.896,1333.462 1457.402,1333.61 1457.834,1333.766Z" style="fill:rgb(230,233,235);"/>
                            <path d="M1458.66,1353.898C1458.818,1353.825 1458.978,1353.751 1459.141,1353.676C1464.582,1354.816 1468.996,1356.034 1469.91,1356.286C1473.254,1357.208 1479.302,1360.796 1481.056,1362.732C1480.789,1363.711 1480.111,1364.728 1478.924,1365.776C1472.748,1371.226 1455.901,1365.469 1446.055,1359.591C1449.261,1358.901 1450.785,1357.67 1456.781,1354.786C1457.363,1354.506 1457.988,1354.21 1458.66,1353.898Z" style="fill:rgb(200,211,219);"/>
                        </g>
                        <g>
                            <g>
                                <path d="M1551.335,1350.644C1550.85,1349.307 1549.792,1346.936 1547.766,1342.341C1549.69,1341.211 1552.481,1339.65 1554.499,1338.531C1556.768,1339.558 1558.851,1340.485 1560.766,1341.323C1560.266,1346.583 1563.961,1345.017 1565.062,1343.177C1576.556,1348.056 1580.733,1349.156 1583.979,1350.517C1575.571,1353.275 1569.514,1356.215 1566.5,1357.47C1562.761,1355.768 1556.132,1352.867 1551.335,1350.644Z" style="fill:rgb(218,225,227);"/>
                                <path d="M1565.062,1343.177C1563.961,1345.017 1560.266,1346.583 1560.766,1341.323C1560.792,1341.049 1560.829,1340.756 1560.879,1340.444C1560.912,1340.235 1560.92,1340.252 1561.428,1337.856C1562.421,1337.537 1563.34,1337.233 1564.19,1336.951C1571.28,1334.598 1573.565,1333.757 1573.629,1338.573C1573.631,1338.742 1573.643,1339.609 1573.597,1340.564C1573.536,1341.812 1573.378,1343.21 1572.971,1343.394C1572.658,1343.535 1570.4,1343.76 1570.017,1341.588C1569.789,1340.298 1570.261,1338.176 1567.505,1338.992C1565.32,1339.639 1565.234,1339.977 1565.364,1342.162C1565.383,1342.481 1565.268,1342.834 1565.062,1343.177Z" style="fill:rgb(237,237,235);"/>
                                <path d="M1550.127,1334.855C1554.378,1333.147 1556.036,1334.064 1559.029,1335.107L1559.967,1335.434C1560.931,1335.773 1562.384,1336.288 1564.19,1336.951C1563.34,1337.233 1562.421,1337.537 1561.428,1337.856C1560.92,1340.252 1560.912,1340.235 1560.879,1340.444C1560.829,1340.756 1560.792,1341.049 1560.766,1341.323C1558.851,1340.485 1556.768,1339.558 1554.499,1338.531C1552.481,1339.65 1549.69,1341.211 1547.766,1342.341C1547.301,1341.285 1546.784,1340.112 1546.212,1338.808C1546.119,1338.171 1546.021,1337.545 1545.917,1336.931C1547.575,1336.003 1548.951,1335.328 1550.127,1334.855ZM1561.582,1369.097C1556.237,1367.438 1548.153,1364.891 1547.045,1364.542C1546.345,1364.322 1545.71,1364.124 1545.134,1363.946C1545.231,1363.736 1545.327,1363.52 1545.422,1363.299C1546.201,1361.491 1546.687,1359.05 1546.939,1356.271C1551.605,1357.957 1555.964,1359.165 1561.139,1360.919C1561.281,1363.046 1561.432,1365.913 1561.582,1369.097ZM1539.674,1378.369C1539.433,1374.832 1539.291,1372.462 1539.214,1370.747C1541.246,1369.913 1543.313,1367.9 1545.134,1363.946C1545.71,1364.124 1546.345,1364.322 1547.045,1364.542C1548.153,1364.891 1556.237,1367.438 1561.582,1369.097C1561.875,1375.326 1562.165,1382.766 1562.381,1388.247C1557.587,1386.337 1550.158,1383.484 1539.674,1378.369ZM1592.54,1349.165C1592.614,1352.491 1592.886,1356.901 1593.1,1361.19C1593.438,1367.957 1593.632,1374.423 1592.67,1375.849C1592.215,1376.526 1571.785,1384.737 1562.508,1388.297L1562.381,1388.247C1562.165,1382.766 1561.875,1375.326 1561.582,1369.097C1561.432,1365.913 1561.281,1363.046 1561.139,1360.919C1555.964,1359.165 1551.605,1357.957 1546.939,1356.271C1547.097,1354.519 1547.162,1352.632 1547.147,1350.686C1550.46,1352.874 1550.877,1353.707 1551.444,1352.762C1551.726,1352.293 1551.827,1352.004 1551.335,1350.644C1556.132,1352.867 1562.761,1355.768 1566.5,1357.47C1569.514,1356.215 1575.571,1353.275 1583.979,1350.517C1580.733,1349.156 1576.556,1348.056 1565.062,1343.177C1565.268,1342.834 1565.383,1342.481 1565.364,1342.162C1565.234,1339.977 1565.32,1339.639 1567.505,1338.992C1570.261,1338.176 1569.789,1340.298 1570.017,1341.588C1570.4,1343.76 1572.658,1343.535 1572.971,1343.394C1573.378,1343.21 1573.536,1341.812 1573.597,1340.564C1577.758,1342.237 1582.357,1344.192 1586.8,1346.299C1588.761,1347.229 1590.691,1348.188 1592.54,1349.165Z" style="fill:rgb(255,178,117);"/>
                                <path d="M1561.253,1387.799C1561.104,1384.621 1561.704,1381.113 1561.934,1377.117C1562.06,1374.934 1562.076,1372.605 1561.798,1370.105C1560.699,1360.212 1565.617,1362.48 1584.689,1353.016C1587.178,1351.781 1589.848,1350.225 1592.372,1349.076C1592.428,1349.106 1592.484,1349.135 1592.54,1349.165C1592.614,1352.491 1592.886,1356.901 1593.1,1361.19C1593.438,1367.957 1593.632,1374.423 1592.67,1375.849C1592.215,1376.526 1571.785,1384.737 1562.508,1388.297L1562.381,1388.247C1562.02,1388.103 1561.644,1387.954 1561.253,1387.799Z" style="fill:rgb(247,136,88);"/>
                            </g>
                            <path d="M1529.076,1376.813C1531.121,1377.323 1533.601,1378.244 1536.602,1379.704C1537.733,1379.904 1538.796,1380.148 1539.79,1380.429C1547.829,1382.706 1551.291,1387.416 1548.914,1390.801C1542.63,1399.751 1521.771,1388.422 1520.202,1383.325C1519.478,1380.971 1519.544,1374.434 1529.076,1376.813Z" style="fill:rgb(220,87,90);"/>
                            <g>
                                <path d="M1559.967,1335.434C1558.139,1323.88 1556.502,1310.316 1567.987,1305.184C1570.946,1303.862 1575.592,1304.889 1578.827,1307.838C1587.403,1315.658 1587.001,1340.61 1586.8,1346.299C1582.357,1344.192 1577.758,1342.237 1573.597,1340.564C1573.643,1339.609 1573.631,1338.742 1573.629,1338.573C1573.565,1333.757 1571.28,1334.598 1564.19,1336.951C1562.384,1336.288 1560.931,1335.773 1559.967,1335.434Z" style="fill:rgb(229,250,255);"/>
                                <path d="M1580.724,1310.035C1582.436,1312.494 1583.681,1315.758 1584.583,1319.337C1577.244,1323.155 1566.081,1328.096 1559.163,1329.83C1558.815,1326.95 1558.597,1324.049 1558.692,1321.275C1564.89,1317.223 1574.117,1312.86 1580.724,1310.035ZM1585.495,1323.672C1585.776,1325.287 1586.002,1326.925 1586.183,1328.546C1582.666,1330.104 1578.698,1331.162 1576.666,1331.004C1571.117,1330.573 1579.653,1326.299 1585.495,1323.672Z" style="fill:rgb(190,234,255);"/>
                            </g>
                        </g>
                        <g>
                            <path d="M1527.453,1358.112C1525.958,1344.08 1526.258,1319.105 1538.135,1322.179C1539.444,1322.518 1540.949,1324.496 1541.876,1325.244C1543.533,1326.22 1545.208,1331.929 1546.212,1338.808C1546.767,1342.61 1547.118,1346.77 1547.147,1350.686C1547.185,1355.72 1546.692,1360.351 1545.422,1363.299C1543.533,1367.683 1541.354,1369.868 1539.214,1370.747C1536.804,1371.736 1534.445,1371.069 1532.608,1370.017C1532.385,1369.858 1532.182,1369.688 1532,1369.507L1531.843,1369.538C1530.701,1369.757 1529.696,1369.721 1528.831,1369.491C1524.074,1368.228 1523.533,1361.098 1527.453,1358.112Z" style="fill:rgb(237,237,235);"/>
                            <path d="M1531.843,1369.538C1532.086,1369.703 1532.341,1369.864 1532.608,1370.017C1536.077,1372.004 1541.407,1372.618 1545.422,1363.299C1549.467,1353.911 1545.628,1327.453 1541.876,1325.244C1540.949,1324.496 1539.444,1322.518 1538.135,1322.179C1526.258,1319.105 1525.958,1344.08 1527.453,1358.112M1533.91,1359.26C1531.866,1358.352 1526.255,1370.533 1536.573,1371.245M1528.924,1357.285C1528.378,1357.5 1527.888,1357.781 1527.453,1358.112C1522.82,1361.641 1524.419,1370.957 1531.843,1369.538C1531.895,1369.528 1531.947,1369.518 1532,1369.507M1539.265,1363.552C1539.14,1367.764 1538.898,1367.101 1539.722,1379.066C1540.166,1385.516 1538.674,1389.644 1539.393,1390.409C1540.054,1391.113 1540.297,1389.472 1545.09,1386.601M1528.831,1369.491C1528.908,1371.962 1529.12,1376.719 1529.32,1386.835C1532.144,1384.773 1532.091,1384.772 1534.534,1382.262M1540.485,1346.868C1550.109,1351.739 1550.618,1354.14 1551.444,1352.762C1552.071,1351.717 1551.805,1351.568 1546.077,1338.498M1542.055,1332.533C1542.332,1334.686 1542.354,1334.648 1542.638,1336.809" style="fill:none;stroke:rgb(82,72,72);stroke-width:1.63px;stroke-linecap:round;stroke-linejoin:round;stroke-miterlimit:1.5;"/>
                        </g>
                    </g>
                    <g id="outline1" serif:id="outline">
                        <path d="M1536.602,1379.704C1519.609,1371.437 1519.322,1380.465 1520.202,1383.325C1521.771,1388.422 1542.63,1399.751 1548.914,1390.801C1551.584,1386.997 1546.884,1381.521 1536.602,1379.704Z" style="fill:none;stroke:rgb(82,72,72);stroke-width:0.81px;stroke-linecap:round;stroke-linejoin:round;stroke-miterlimit:1.5;"/>
                        <path d="M1475.62,1295.953C1483.479,1299.838 1493.744,1304.873 1494.878,1305.39C1502.306,1308.779 1507.645,1310.783 1511.949,1312.356L1511.962,1312.361M1474.592,1296.412C1474.706,1302.56 1474.883,1312.895 1475.231,1331.158C1475.464,1343.418 1476.012,1345.576 1476.808,1357.827M1511.949,1312.356L1511.962,1312.351C1521.176,1309.009 1537.301,1303.381 1549.235,1298.427L1549.463,1298.332M1511.962,1312.351L1511.962,1312.361C1511.581,1335.17 1511.201,1336.139 1511.418,1347.699C1511.694,1362.409 1512.145,1365.824 1512.052,1373.71L1512.049,1373.943M1476.808,1357.827C1483.778,1361.16 1494.085,1365.832 1495.415,1366.435C1497.435,1367.35 1505.488,1370.769 1512.052,1373.71L1512.299,1373.821M1512.049,1373.943L1512.299,1373.821L1513.941,1373.023C1518.445,1370.834 1522.01,1369.039 1525.747,1367.13M1549.463,1298.332L1549.463,1298.543C1549.445,1305.119 1549.576,1316.988 1549.591,1318.379C1549.68,1326.39 1550.001,1331.185 1550.127,1334.855M1511.613,1280.979C1520.356,1284.804 1538.18,1292.797 1549.235,1298.427L1549.463,1298.543M1474.592,1296.412L1475.62,1295.953C1486.021,1291.334 1501.918,1284.914 1511.613,1280.979" style="fill:none;stroke:rgb(82,72,72);stroke-width:0.81px;stroke-linecap:round;stroke-linejoin:round;stroke-miterlimit:1.5;"/>
                        <path d="M1547.102,1348.602C1548.134,1349.139 1549.617,1349.848 1551.335,1350.644C1556.132,1352.867 1562.761,1355.768 1566.5,1357.47M1545.917,1336.931C1547.575,1336.003 1548.951,1335.328 1550.127,1334.855C1554.378,1333.147 1556.036,1334.064 1559.029,1335.107C1559.252,1335.184 1559.568,1335.294 1559.967,1335.434C1560.931,1335.773 1562.384,1336.288 1564.19,1336.951M1573.597,1340.564C1577.758,1342.237 1582.357,1344.192 1586.8,1346.299C1588.761,1347.229 1590.691,1348.188 1592.54,1349.165M1592.54,1349.165C1592.73,1357.738 1594.241,1373.519 1592.67,1375.849C1592.215,1376.526 1571.785,1384.737 1562.508,1388.297L1562.385,1388.345M1528.949,1372.876C1532.83,1374.954 1536.401,1376.772 1539.674,1378.369C1550.158,1383.484 1557.587,1386.337 1562.381,1388.247L1562.508,1388.297M1546.939,1356.271C1551.605,1357.957 1555.964,1359.165 1561.139,1360.919M1561.139,1360.919C1561.281,1363.046 1561.432,1365.913 1561.582,1369.097C1561.875,1375.326 1562.165,1382.766 1562.381,1388.247L1562.385,1388.345M1545.134,1363.946C1545.71,1364.124 1546.345,1364.322 1547.045,1364.542C1548.153,1364.891 1556.237,1367.438 1561.582,1369.097M1554.499,1338.531C1556.768,1339.558 1558.851,1340.485 1560.766,1341.323M1565.062,1343.177C1576.556,1348.056 1580.733,1349.156 1583.979,1350.517M1547.766,1342.341C1549.69,1341.211 1552.481,1339.65 1554.499,1338.531M1566.5,1357.47C1569.514,1356.215 1575.571,1353.275 1583.979,1350.517M1559.967,1335.434C1558.139,1323.88 1556.502,1310.316 1567.987,1305.184C1570.946,1303.862 1575.592,1304.889 1578.827,1307.838C1587.403,1315.658 1587.001,1340.61 1586.8,1346.299M1561.428,1337.856C1570.701,1334.882 1573.557,1333.179 1573.629,1338.573C1573.634,1338.962 1573.689,1343.069 1572.971,1343.394C1572.658,1343.535 1570.4,1343.76 1570.017,1341.588C1569.789,1340.298 1570.261,1338.176 1567.505,1338.992C1565.32,1339.639 1565.234,1339.977 1565.364,1342.162C1565.489,1344.286 1559.696,1347.861 1560.879,1340.444C1560.912,1340.235 1560.92,1340.252 1561.428,1337.856Z" style="fill:none;stroke:rgb(82,72,72);stroke-width:0.81px;stroke-linecap:round;stroke-linejoin:round;stroke-miterlimit:1.5;"/>
                        <path d="M1441.364,1361.16C1440.261,1365.442 1442.59,1366.426 1443.05,1366.62C1444.405,1367.193 1446.307,1368.007 1448.56,1368.893C1455.942,1371.793 1467.089,1375.455 1475.092,1373.885C1477.737,1373.367 1480.038,1372.277 1481.747,1370.4C1482.125,1369.986 1483.383,1368.604 1481.508,1363.396C1480.925,1361.776 1473.689,1357.329 1469.91,1356.286C1468.979,1356.029 1464.41,1354.769 1458.825,1353.61M1448.56,1368.893C1448.716,1371.754 1448.007,1376.53 1449.701,1377.941C1451.095,1379.103 1459.944,1382.308 1463.126,1382.199C1464.039,1382.167 1469.035,1381.996 1474.312,1379.864C1474.856,1379.644 1475.445,1379.406 1475.092,1373.885M1457.834,1333.766C1459.238,1333.187 1460.179,1332.808 1460.869,1332.542M1460.172,1337.375C1460.987,1337.002 1461.957,1336.582 1462.893,1336.182M1426.472,1356.219C1431.885,1354.282 1438.958,1349.814 1438.815,1355.657C1438.799,1356.318 1438.79,1356.702 1431.711,1359.879C1428.775,1361.197 1427.937,1361.653 1426.567,1358.731C1425.374,1356.186 1426.434,1356.232 1426.472,1356.219ZM1459.126,1331.639C1467.386,1333.924 1460.16,1353.821 1466.123,1354.186C1467.742,1354.285 1474.776,1352.538 1475.034,1349.581C1475.105,1348.767 1475.247,1333.713 1472.163,1329.904C1470.06,1327.305 1466.938,1327.987 1459.126,1331.639ZM1436.409,1357.668C1437.303,1358.921 1438.898,1360.273 1441.746,1361.303C1443.079,1361.785 1442.698,1360.179 1458.025,1354.305C1459.541,1353.724 1458.777,1353.107 1459.975,1339.76C1460.354,1335.535 1460.71,1334.415 1456.303,1333.313C1455.675,1333.156 1453.483,1332.821 1453.025,1331.998C1449.536,1334.14 1435.99,1336.956 1435.526,1339.437C1434.921,1342.679 1435.149,1346.762 1435.245,1352.899M1497.113,1291.807C1496.978,1292.077 1495.326,1295.381 1497.756,1295.53C1497.887,1295.538 1501.435,1295.143 1501.808,1295.888C1502.674,1297.62 1498.066,1301.692 1504.335,1302.886C1507.505,1303.49 1513.07,1300.443 1511.273,1298.251C1503.445,1288.701 1499.782,1292.95 1497.113,1291.807ZM1470.047,1328.478C1473.172,1327.411 1474.512,1326.994 1475.151,1326.931M1475.232,1331.222C1474.653,1331.468 1473.934,1331.743 1473.244,1331.999" style="fill:none;stroke:rgb(82,72,72);stroke-width:0.81px;stroke-linecap:round;stroke-linejoin:round;stroke-miterlimit:1.5;"/>
                    </g>
                </g>
            </g>
            <g id="sushi-top" transform="matrix(0.854196,0,0,0.854196,234.179664,214.871832)">
                <g id="color2" serif:id="color">
                    <path d="M1651.938,1336.82C1650.849,1352.312 1638.901,1371.045 1608.416,1376.155C1564.04,1383.594 1563.647,1387.383 1527.86,1407.372C1457.539,1446.65 1409.819,1421.01 1406.388,1420.026C1386.343,1414.274 1387.352,1412.154 1371.865,1397.98C1344.637,1373.06 1341.598,1330.802 1350.473,1321.14C1352.388,1319.056 1354.856,1318.488 1357.756,1319.938C1361.237,1321.464 1371.218,1320.101 1384.147,1317.966C1472.594,1303.361 1483.257,1244.777 1592.984,1292.469C1619.855,1304.149 1617.172,1310.663 1640.029,1314.647C1647.775,1315.997 1652.729,1325.552 1651.938,1336.82Z" style="fill:rgb(220,87,90);"/>
                    <path d="M1350.473,1321.14C1354.182,1335.532 1361.653,1355.603 1366.536,1362.17C1391.253,1395.41 1413.447,1396.8 1418.24,1397.824C1471.108,1409.124 1547.021,1368.988 1577.073,1360.957C1593.889,1356.463 1601.558,1366.722 1632.518,1352.855C1641.324,1348.911 1647.335,1343.281 1651.938,1336.82C1650.849,1352.312 1638.901,1371.045 1608.416,1376.155C1564.04,1383.594 1563.647,1387.383 1527.86,1407.372C1457.539,1446.65 1409.819,1421.01 1406.388,1420.026C1386.343,1414.274 1387.352,1412.154 1371.865,1397.98C1344.637,1373.06 1341.598,1330.802 1350.473,1321.14Z" style="fill:rgb(222,53,74);"/>
                    <path d="M1371.965,1325.479C1370.963,1325.329 1353.135,1322.664 1359.622,1328.045C1368.722,1335.593 1379.723,1326.318 1371.965,1325.479ZM1387.342,1331.123C1380.176,1331.123 1375.644,1335.747 1384.01,1337.11C1385.155,1337.296 1398.706,1336.927 1387.342,1331.123ZM1642.376,1330.054C1640.6,1329.166 1638.146,1334.598 1639.639,1336.545C1640.106,1337.154 1646.145,1336.87 1643.363,1329.8C1643.289,1329.611 1642.558,1330.146 1642.376,1330.054ZM1385.935,1354.236C1382.884,1355.593 1384.99,1362.854 1388.959,1365.259C1389.576,1365.633 1400.254,1370.758 1394.173,1358.745C1393.423,1357.264 1387.68,1353.459 1385.935,1354.236ZM1401.702,1341.722C1393.457,1343.591 1399.322,1346.116 1401.061,1346.033C1401.643,1346.005 1407.62,1344.859 1403.026,1342.27C1402.782,1342.132 1401.989,1341.657 1401.702,1341.722ZM1489.542,1297.496C1472.201,1299.158 1466.177,1311.86 1478.033,1310.761C1491.437,1309.519 1493.753,1298.912 1489.542,1297.496ZM1492.035,1315.468C1489.353,1313.495 1490.62,1327.184 1495.691,1324.282C1498.766,1322.523 1498.321,1313.451 1492.492,1315.04C1492.372,1315.073 1492.135,1315.542 1492.035,1315.468ZM1501.383,1304.557C1493.371,1308.394 1500.239,1311.155 1501.674,1311.018C1503.736,1310.82 1509.79,1308.593 1505.289,1304.514C1504.703,1303.982 1502.092,1304.217 1501.383,1304.557ZM1586.502,1333.264C1574.295,1335.972 1575.395,1340.735 1579.134,1341.419C1587.309,1342.915 1591.775,1334.333 1586.502,1333.264ZM1590.815,1323.4C1587.279,1322.268 1584.766,1328.128 1590.636,1327.28C1593.757,1326.829 1595.647,1322.7 1590.6,1323.4C1590.557,1323.406 1590.856,1323.413 1590.815,1323.4ZM1578.955,1329.812C1574.459,1329.275 1572.047,1333.007 1574.57,1333.988C1576.431,1334.711 1581.709,1332.825 1577.625,1330.535C1577.361,1330.387 1579.261,1329.848 1578.955,1329.812ZM1456.222,1361.264C1446.446,1359.206 1446.119,1367.62 1451.945,1368.143C1460.361,1368.898 1462.293,1363.1 1456.222,1361.264ZM1462.175,1346.714C1458.555,1345.939 1455.371,1352.959 1462.219,1352.226C1467.202,1351.692 1468.609,1348.486 1468.083,1347.243C1466.602,1343.744 1461.424,1346.079 1460.896,1346.317C1460.652,1346.427 1462.436,1346.77 1462.175,1346.714ZM1543.444,1282.011C1540.255,1279.885 1531.761,1282.198 1534.121,1284.494C1535.571,1285.906 1544.803,1286.841 1543.444,1282.011ZM1525.158,1281.334C1522.996,1279.711 1518.262,1282.675 1520.395,1284.043C1523.175,1285.825 1531.279,1282.026 1525.158,1281.334ZM1443.618,1391.115C1439.131,1389.192 1431.548,1394.352 1437.139,1394.885C1444.253,1395.562 1447.514,1391.921 1443.618,1391.115Z" style="fill:rgb(230,159,150);"/>
                </g>
                <path id="outline2" serif:id="outline" d="M1651.938,1336.82C1652.729,1325.552 1647.775,1315.997 1640.029,1314.647C1617.172,1310.663 1619.855,1304.149 1592.984,1292.469C1483.257,1244.777 1472.594,1303.361 1384.147,1317.966C1371.218,1320.101 1361.237,1321.464 1357.756,1319.938C1354.856,1318.488 1352.388,1319.056 1350.473,1321.14C1341.598,1330.802 1344.637,1373.06 1371.865,1397.98C1387.352,1412.154 1386.343,1414.274 1406.388,1420.026C1409.819,1421.01 1457.539,1446.65 1527.86,1407.372C1563.647,1387.383 1564.04,1383.594 1608.416,1376.155C1638.901,1371.045 1650.849,1352.312 1651.938,1336.82Z" style="fill:none;stroke:rgb(82,72,72);stroke-width:1.72px;stroke-linecap:round;stroke-linejoin:round;stroke-miterlimit:1.5;"/>
            </g>
            <g id="connectors" transform="matrix(1,0,0,1,-484.464385,369.640545)">
                <g id="connector2-start" transform="matrix(0.525327,0,0,0.525327,1175.582886,684.187686)">
                    <circle cx="1676.335" cy="689.818" r="8.708" style="current-color;"/>
                </g>
                <g id="connector1-start" transform="matrix(0.525327,0,0,0.525327,1041.615836,622.206595)">
                    <circle cx="1676.335" cy="689.818" r="8.708" style="current-color;"/>
                </g>
            </g>
        </g>
    </g>
    </svg>