<?xml version="1.0" encoding="UTF-8" standalone="no"?>
<!DOCTYPE svg PUBLIC "-//W3C//DTD SVG 1.1//EN" "http://www.w3.org/Graphics/SVG/1.1/DTD/svg11.dtd">
<svg width="100%" height="100%" viewBox="0 0 598 366" version="1.1" xmlns="http://www.w3.org/2000/svg" xmlns:xlink="http://www.w3.org/1999/xlink" xml:space="preserve" xmlns:serif="http://www.serif.com/" style="fill-rule:evenodd;clip-rule:evenodd;">
    <g transform="matrix(1,0,0,1,-772.001441,-565.637693)">
        <g id="uni" transform="matrix(0.862455,0,0,0.862455,636.625371,447.587613)">
            <g id="plate-shadow" transform="matrix(1.165202,0,0,1.165202,159.368027,308.345469)">
                <g id="plate-shadow1" serif:id="plate-shadow">
                    <ellipse id="plate-shadow2" serif:id="plate-shadow" cx="295.704" cy="110.569" rx="295.704" ry="105.987" style="fill:rgb(55,48,48);"/>
                </g>
            </g>
            <g id="sushi-base">
                <g id="plate-base" transform="matrix(1.165202,0,0,1.165202,158.783096,307.30442)">
                    <g id="plate-base1" serif:id="plate-base">
                        <path id="plate-base2" serif:id="plate-base" d="M295.706,0.5C377.321,0.5 451.187,12.358 504.632,31.514C531.356,41.092 552.949,52.486 567.85,65.113C582.753,77.742 590.91,91.557 590.91,105.987C590.91,120.417 582.753,134.231 567.85,146.86C552.949,159.488 531.356,170.882 504.632,180.461C451.187,199.617 377.32,211.475 295.706,211.475C214.092,211.475 140.225,199.617 86.78,180.461C60.056,170.882 38.465,159.488 23.564,146.86C8.66,134.231 0.502,120.418 0.502,105.987C0.502,91.557 8.66,77.742 23.564,65.113C38.465,52.486 60.056,41.092 86.78,31.514C140.225,12.358 214.092,0.5 295.706,0.5Z" style="fill:rgb(239,234,231);fill-rule:nonzero;stroke:rgb(55,48,48);stroke-width:1px;"/>
                    </g>
                </g>
                <g id="sushi-shadow" transform="matrix(1.062717,0,0,1.062717,-639.736687,-469.35909)">
                    <path d="M957.589,840.415C946.047,845.275 922.161,861.409 921.749,867.793C921.519,871.361 922.058,873.85 946.601,875.409C902.832,938.747 985.505,890.829 1042.922,883.65C1092.674,877.431 1137.378,869.997 1191.046,836.362C1191.507,836.073 1221.813,815.425 1227.455,783.029C1235.577,736.395 1178.064,720.764 1114.247,749.962C998.576,802.883 987.655,815.372 957.589,840.415Z" style="fill: current-color;"/>
                </g>
                <g id="base" transform="matrix(0.916546,0,0,0.916546,39.749159,14.234719)">
                    <g id="color">
                        <g>
                            <g>
                                <path d="M394.089,265.061C394.596,265.586 394.963,265.95 395.122,266.108C374.91,280.288 376.083,282.349 375.015,284.176C374.267,285.456 373.583,286.858 372.963,288.325C371.528,287.176 369.458,287.383 365.742,289.41C359.605,292.758 358.316,305.495 357.417,311.122C356.785,310.489 352.629,306.334 348.045,304.15C349.978,302.248 351.834,300.557 353.553,299.137C366.057,287.275 378.75,275.865 394.089,265.061ZM482.551,223.105C483.43,224.322 484.417,225.669 485.508,227.171C458.55,230.225 452.471,236.24 443.946,242.794C443.987,242.281 444.169,240.007 444.155,237.284C455.553,232.354 468.24,227.621 482.551,223.105ZM610.076,201.875C610.979,206.089 612.31,209.499 612.605,210.253C610.443,209.107 602.689,201.99 588.697,205.865C587.859,204.183 586.908,202.499 585.699,201.164C595.433,200.57 603.189,200.938 610.076,201.875ZM708.806,230.549C709.002,232.611 708.482,234.682 707.565,236.645C704.768,242.633 698.275,247.631 697.109,248.382L696.343,248.876C697.216,244.535 698.313,236.22 694.614,233.261C685.933,226.317 681.145,237.646 675.443,246.84C675.082,243.731 676.243,236.335 667.478,231.953C665.741,231.084 657.688,229.806 660.595,227.174C676.173,213.065 653.411,212.653 651.374,211.5C657.507,212.733 664.468,213.826 672.753,214.604C699.86,217.149 708.163,223.805 708.806,230.549ZM338.501,360.661C329.669,363.264 323.913,363.373 320.532,361.714C310.228,356.658 321.963,335.181 335.825,317.822C337.91,324.47 344.259,329.184 345.32,329.971C346.821,331.086 336.743,344.649 338.501,360.661ZM320.532,361.714C323.913,363.373 329.669,363.264 338.501,360.661C339.671,360.316 340.896,359.927 342.175,359.493C384.692,345.069 385.156,341.602 429.553,346.337C460.616,349.651 483.364,319.25 512.842,325.448C594.158,342.546 619.295,298.673 696.343,248.876L697.109,248.382C698.275,247.631 704.768,242.633 707.565,236.645C706.074,242.255 704.366,244.422 704.287,245.901C703.478,260.989 683.834,275.575 687.247,303.5C687.569,306.13 683.346,328.051 680.766,334.447C674.737,349.401 675.212,349.55 674.65,350.831C667.749,366.571 660.776,377.685 659.649,379.958C638.036,423.567 599.013,413.837 563.676,429.219C522.209,447.27 508.535,475.743 449.898,481.357C442.462,482.069 372.528,488.765 357.711,466.538C351.673,457.481 356.527,441.186 360.668,431.051C355.912,424.879 349.284,415.369 341.873,402.313C338.177,395.803 325.514,372.108 320.532,361.714Z" style="fill:rgb(91,85,73);"/>
                                <g transform="matrix(0.995464,-0.095136,0.095136,0.995464,-24.434716,54.385567)">
                                    <path d="M486.657,403.582C466.773,436.638 455.771,453.41 445.417,466.438M514.656,388.916C489.115,429.027 480.782,442.785 464.193,463.697M547.989,372.916C520.742,416.285 514.473,429.284 496.569,451.86M574.656,364.916C568.97,373.894 564.555,389.573 551.1,414.338C548.766,418.633 545.81,423.484 542.511,428.577M597.322,358.25C590.703,376.244 577.29,400.637 564.33,422.342M619.988,346.25C622.826,352.633 610.324,379.52 609.055,382.249C602.934,395.414 596.069,407.967 589.455,419.098M649.321,322.25C634.887,369.602 627.288,387.451 610.971,415.452M673.321,310.25C657.478,358.184 653.868,367.474 633.145,405.159" style="fill:none;stroke:rgb(105,100,87);stroke-width:4.94px;stroke-linecap:round;stroke-linejoin:round;stroke-miterlimit:1.5;"/>
                                </g>
                            </g>
                            <path d="M335.825,317.822C321.963,335.181 310.228,356.658 320.532,361.714C325.514,372.108 338.177,395.803 341.873,402.313C349.284,415.369 355.912,424.879 360.668,431.051C356.527,441.186 351.673,457.481 357.711,466.538C372.528,488.765 442.462,482.069 449.898,481.357C508.535,475.743 522.209,447.27 563.676,429.219C599.013,413.837 638.036,423.567 659.649,379.958C660.776,377.685 667.749,366.571 674.65,350.831C675.212,349.55 674.737,349.401 680.766,334.447C683.346,328.051 687.569,306.13 687.247,303.5C683.834,275.575 703.478,260.989 704.287,245.901C704.366,244.422 706.074,242.255 707.565,236.645C708.482,234.682 709.002,232.611 708.806,230.549C708.163,223.805 699.86,217.149 672.753,214.604C664.468,213.826 657.507,212.733 651.374,211.5C653.411,212.653 676.173,213.065 660.595,227.174C657.688,229.806 665.741,231.084 667.478,231.953C676.243,236.335 675.082,243.731 675.443,246.84C681.145,237.646 685.933,226.317 694.614,233.261C698.313,236.22 697.216,244.535 696.343,248.876C619.295,298.673 594.158,342.546 512.842,325.448C483.364,319.25 460.616,349.651 429.553,346.337C385.156,341.602 384.692,345.069 342.175,359.493C340.896,359.927 339.671,360.316 338.501,360.661C336.743,344.649 346.821,331.086 345.32,329.971C344.259,329.184 337.91,324.47 335.825,317.822ZM320.532,361.714C325.514,372.108 338.177,395.803 341.873,402.313C349.284,415.369 355.912,424.879 360.668,431.051C356.527,441.186 351.673,457.481 357.711,466.538C372.528,488.765 442.462,482.069 449.898,481.357C508.535,475.743 522.209,447.27 563.676,429.219C599.013,413.837 638.036,423.567 659.649,379.958C660.776,377.685 667.749,366.571 674.65,350.831C675.212,349.55 674.737,349.401 680.766,334.447C683.346,328.051 687.569,306.13 687.247,303.5C683.834,275.575 703.478,260.989 704.287,245.901C704.366,244.422 706.074,242.255 707.565,236.645C704.768,242.633 698.275,247.631 697.109,248.382L696.343,248.876C619.295,298.673 594.158,342.546 512.842,325.448C483.364,319.25 460.616,349.651 429.553,346.337C385.156,341.602 384.692,345.069 342.175,359.493C340.896,359.927 339.671,360.316 338.501,360.661C329.669,363.264 323.913,363.373 320.532,361.714ZM707.565,236.645C708.482,234.682 709.002,232.611 708.806,230.549C708.163,223.805 699.86,217.149 672.753,214.604C664.468,213.826 657.507,212.733 651.374,211.5C653.411,212.653 676.173,213.065 660.595,227.174C657.688,229.806 665.741,231.084 667.478,231.953C676.243,236.335 675.082,243.731 675.443,246.84C681.145,237.646 685.933,226.317 694.614,233.261C698.313,236.22 697.216,244.535 696.343,248.876L697.109,248.382C698.275,247.631 704.768,242.633 707.565,236.645ZM610.076,201.875C603.189,200.938 595.433,200.57 585.699,201.164C586.908,202.499 587.859,204.183 588.697,205.865C602.689,201.99 610.443,209.107 612.605,210.253C612.31,209.499 610.979,206.089 610.076,201.875ZM570.118,202.738C568.232,202.994 566.283,203.278 564.267,203.593C564.451,204.683 564.565,205.953 564.607,207.42C566.611,205.524 568.442,203.978 570.118,202.738ZM482.551,223.105C468.24,227.621 455.553,232.354 444.155,237.284C444.169,240.007 443.987,242.281 443.946,242.794C452.471,236.24 458.55,230.225 485.508,227.171C484.417,225.669 483.43,224.322 482.551,223.105ZM394.089,265.061C378.75,275.865 366.057,287.275 353.553,299.137C351.834,300.557 349.978,302.248 348.045,304.15C352.629,306.334 356.785,310.489 357.417,311.122C358.316,305.495 359.605,292.758 365.742,289.41C369.458,287.383 371.528,287.176 372.963,288.325C373.583,286.858 374.267,285.456 375.015,284.176C376.083,282.349 374.91,280.288 395.122,266.108C394.963,265.95 394.596,265.586 394.089,265.061ZM708.806,230.549L708.847,230.271M360.668,431.051C365.279,437.034 368.131,439.88 368.233,439.778M708.806,230.549L708.847,230.271M360.668,431.051C365.279,437.034 368.131,439.88 368.233,439.778M708.806,230.549L708.847,230.271M360.668,431.051C365.279,437.034 368.131,439.88 368.233,439.778M708.806,230.549L708.847,230.271M360.668,431.051C365.279,437.034 368.131,439.88 368.233,439.778M360.668,431.051C365.279,437.034 368.131,439.88 368.233,439.778M708.806,230.549L708.847,230.271M320.532,361.714C325.514,372.108 338.177,395.803 341.873,402.313C349.284,415.369 355.912,424.879 360.668,431.051C365.279,437.034 368.131,439.88 368.233,439.778M360.668,431.051C356.527,441.186 351.673,457.481 357.711,466.538C372.528,488.765 442.462,482.069 449.898,481.357C508.535,475.743 522.209,447.27 563.676,429.219C599.013,413.837 638.036,423.567 659.649,379.958C660.776,377.685 667.749,366.571 674.65,350.831C675.212,349.55 674.737,349.401 680.766,334.447C683.346,328.051 687.569,306.13 687.247,303.5C683.834,275.575 703.478,260.989 704.287,245.901C704.366,244.422 706.074,242.255 707.565,236.645M708.806,230.549L708.847,230.271" style="fill:none;stroke:rgb(82,72,72);stroke-width:2.84px;stroke-linecap:round;stroke-linejoin:round;stroke-miterlimit:1.5;"/>
                        </g>
                        <path d="M486.947,212.818C474.508,195.338 482.001,178.512 503.493,192.091C503.536,191.063 503.917,181.966 508.475,180.241C516.181,177.326 525.19,187.291 526.24,188.453C544.169,180.661 546.845,188.028 545.893,202.644C556.631,197.694 562.774,194.782 564.267,203.593C564.451,204.683 564.565,205.953 564.607,207.42C566.611,205.524 568.442,203.978 570.118,202.738C578.252,196.721 582.744,197.9 585.699,201.164C586.908,202.499 587.859,204.183 588.697,205.865C602.689,201.99 610.443,209.107 612.605,210.253C612.31,209.499 610.979,206.089 610.076,201.875C608.382,193.979 608.189,183.258 619.123,181.891C629.007,180.656 629.275,193.12 630.55,201.995C650.769,182.346 648.485,208.13 651.265,211.416C651.289,211.445 651.326,211.473 651.374,211.5C653.411,212.653 676.173,213.065 660.595,227.174C657.688,229.806 665.741,231.084 667.478,231.953C676.243,236.335 675.082,243.731 675.443,246.84C681.145,237.646 685.933,226.317 694.614,233.261C698.313,236.22 697.216,244.535 696.343,248.876C619.295,298.673 594.158,342.546 512.842,325.448C483.364,319.25 460.616,349.651 429.553,346.337C385.156,341.602 384.692,345.069 342.175,359.493C340.896,359.927 339.671,360.316 338.501,360.661C336.743,344.649 346.821,331.086 345.32,329.971C344.259,329.184 337.91,324.47 335.825,317.822C334.743,314.373 334.808,310.404 337.355,306.192C339.971,301.867 344.162,302.3 348.045,304.15C352.629,306.334 356.785,310.489 357.417,311.122C358.316,305.495 359.605,292.758 365.742,289.41C369.458,287.383 371.528,287.176 372.963,288.325C373.583,286.858 374.267,285.456 375.015,284.176C376.083,282.349 374.91,280.288 395.122,266.108C394.963,265.95 394.596,265.586 394.089,265.061C390.764,261.623 381.43,251.308 385.426,247.313C391.167,241.571 404.346,249.848 405.742,250.724C405.573,248.508 403.852,225.93 415.065,224.557C422.357,223.664 425.171,236.784 425.457,238.121C426.063,236.667 432.044,222.302 441.006,226.036C443.582,227.11 444.133,232.805 444.155,237.284C444.169,240.007 443.987,242.281 443.946,242.794C452.471,236.24 458.55,230.225 485.508,227.171C484.417,225.669 483.43,224.322 482.551,223.105C478.327,217.262 476.607,214.435 477.926,211.928C480.664,206.727 482.116,209.656 486.947,212.818L487.011,212.908L487.044,212.881L486.947,212.818Z" style="fill:rgb(237,237,235);"/>
                    </g>
                    <path id="outline" d="M610.076,201.875C608.382,193.979 608.189,183.258 619.123,181.891C629.007,180.656 629.275,193.12 630.55,201.995C650.769,182.346 648.485,208.13 651.265,211.416C651.289,211.445 651.326,211.473 651.374,211.5C653.411,212.653 676.173,213.065 660.595,227.174C657.688,229.806 665.741,231.084 667.478,231.953C676.243,236.335 675.082,243.731 675.443,246.84C681.145,237.646 685.933,226.317 694.614,233.261C698.313,236.22 697.216,244.535 696.343,248.876C619.295,298.673 594.158,342.546 512.842,325.448C483.364,319.25 460.616,349.651 429.553,346.337C385.156,341.602 384.692,345.069 342.175,359.493C340.896,359.927 339.671,360.316 338.501,360.661C336.743,344.649 346.821,331.086 345.32,329.971C344.259,329.184 337.91,324.47 335.825,317.822C334.743,314.373 334.808,310.404 337.355,306.192C339.971,301.867 344.162,302.3 348.045,304.15C352.629,306.334 356.785,310.489 357.417,311.122C358.316,305.495 359.605,292.758 365.742,289.41C369.458,287.383 371.528,287.176 372.963,288.325C373.583,286.858 374.267,285.456 375.015,284.176C376.083,282.349 374.91,280.288 395.122,266.108C394.963,265.95 394.596,265.586 394.089,265.061C390.764,261.623 381.43,251.308 385.426,247.313C391.167,241.571 404.346,249.848 405.742,250.724C405.573,248.508 403.852,225.93 415.065,224.557C422.357,223.664 425.171,236.784 425.457,238.121C426.063,236.667 432.044,222.302 441.006,226.036C443.582,227.11 444.133,232.805 444.155,237.284C444.169,240.007 443.987,242.281 443.946,242.794C452.471,236.24 458.55,230.225 485.508,227.171C484.417,225.669 483.43,224.322 482.551,223.105C478.327,217.262 476.607,214.435 477.926,211.928C480.664,206.727 482.116,209.656 486.947,212.818L487.011,212.908L487.044,212.881L486.947,212.818C474.508,195.338 482.001,178.512 503.493,192.091C503.536,191.063 503.917,181.966 508.475,180.241C516.181,177.326 525.19,187.291 526.24,188.453C544.169,180.661 546.845,188.028 545.893,202.644C556.631,197.694 562.774,194.782 564.267,203.593C564.451,204.683 564.565,205.953 564.607,207.42C566.611,205.524 568.442,203.978 570.118,202.738C578.252,196.721 582.744,197.9 585.699,201.164C586.908,202.499 587.859,204.183 588.697,205.865C602.689,201.99 610.443,209.107 612.605,210.253C612.31,209.499 610.979,206.089 610.076,201.875ZM561.538,292.928C562.522,294.485 569.936,306.224 580.926,305.352C589.343,304.684 580.807,291.065 580.155,290.025C581.884,290.111 598.139,290.923 599.267,279.866C599.392,278.641 599.814,267.62 583.884,279.229M406.575,312.725C404.703,312.252 387.112,307.808 383.319,319.187C382.738,320.931 380.761,328.33 405.346,325.695M628.439,261.525C630.437,258.438 642.088,264.004 641.319,271.31C640.366,280.359 630.015,273.228 629.213,272.676" style="fill:none;stroke:rgb(82,72,72);stroke-width:2.84px;stroke-linecap:round;stroke-linejoin:round;stroke-miterlimit:1.5;"/>
                </g>
                <g id="room" transform="matrix(0.916546,0,0,0.916546,39.749159,14.234719)">
                    <g id="color1" serif:id="color">
                        <g>
                            <g transform="matrix(1,0,0,1,-947.843354,-587.286373)">
                                <path d="M1321.528,888.741C1325.868,890.026 1329.659,890.622 1333.56,890.857C1335.103,890.95 1336.662,890.987 1338.28,890.987C1339.374,890.987 1340.411,890.9 1341.387,890.751C1344.187,890.324 1346.486,889.38 1348.21,888.482C1348.712,891.821 1347.905,898.748 1342.962,913.262C1341.99,916.117 1330.43,914.451 1329.581,914.001C1327.61,912.955 1322.708,893.974 1321.528,888.741ZM1328.241,885.217C1329.719,886.83 1331.461,888.677 1333.56,890.857C1329.659,890.622 1325.868,890.026 1321.528,888.741C1321.358,887.988 1321.266,887.52 1321.27,887.431C1321.326,886.226 1324.316,885.555 1328.241,885.217ZM1348.21,888.482C1346.486,889.38 1344.187,890.324 1341.387,890.751C1342.453,889.457 1343.652,887.614 1345.192,885.227C1345.406,885.245 1345.604,885.263 1345.786,885.281C1346.334,885.386 1347.772,885.562 1348.21,888.482Z" style="fill:rgb(237,237,235);"/>
                            </g>
                            <g transform="matrix(1,0,0,1,-947.843354,-587.286373)">
                                <path d="M1328.241,885.217C1320.536,876.804 1320.052,874.726 1313.958,864.569C1314.88,864.675 1318.831,865.129 1325.427,866.33C1323.917,848.961 1324.819,848.974 1324.84,848.753C1328.912,856.233 1328.585,856.253 1331.816,864.248C1336.141,843.883 1336.596,842.959 1337.432,841.26C1339.747,852.959 1338.188,853.099 1340.397,864.908C1348.731,855.048 1350.325,855.507 1351.932,854.311C1349.616,864.235 1348.484,863.752 1344.195,872.935C1350.064,870.693 1350.679,870.466 1355.333,868.601C1355.206,869.411 1355.098,870.203 1355.017,870.952C1350.531,876.91 1347.484,881.673 1345.192,885.227C1343.652,887.614 1342.453,889.457 1341.387,890.751C1340.411,890.9 1339.374,890.987 1338.28,890.987C1336.662,890.987 1335.103,890.95 1333.56,890.857C1331.461,888.677 1329.719,886.83 1328.241,885.217Z" style="fill:rgb(132,215,108);"/>
                            </g>
                        </g>
                        <g>
                            <g>
                                <g transform="matrix(1,0,0,1,-947.843354,-587.286373)">
                                    <path d="M1352.248,820.842C1360.56,814.971 1369.533,810.843 1374.823,808.849L1377.901,810.027C1404.574,820.241 1496.892,855.795 1498.823,856.917C1499.227,857.152 1501.747,858.617 1502.845,861.03C1502.911,861.175 1502.972,861.323 1503.027,861.474C1503.445,862.629 1503.362,866.13 1503.234,868.683C1502.708,868.998 1502.187,869.309 1501.671,869.616C1498.796,871.321 1496.07,872.875 1493.557,874.27C1489,876.799 1485.144,878.806 1482.364,880.245C1482.091,877.971 1481.748,875.494 1480.663,873.377C1479.805,871.701 1478.481,870.25 1476.361,869.304C1423.709,845.805 1373.905,829.132 1355.05,821.934C1354.023,821.542 1353.087,821.177 1352.248,820.842Z" style="fill:rgb(252,224,166);"/>
                                </g>
                                <g transform="matrix(1,0,0,1,-947.843354,-587.286373)">
                                    <path d="M1407.876,809.911C1414.511,811.755 1422.263,815.415 1425.847,816.887C1428.972,818.171 1431.148,818.873 1432.978,819.361C1435.118,819.932 1436.786,820.209 1438.947,820.78C1440.741,821.254 1442.875,821.931 1445.902,823.144C1456.262,827.298 1461.235,828.908 1466.577,830.496C1468.557,831.085 1470.589,831.67 1472.965,832.382C1476.291,833.378 1480.292,834.62 1485.773,836.461C1489.728,837.79 1493.429,838.876 1496.73,839.865C1507.866,843.201 1514.456,845.439 1510.923,852.185C1507.875,858.003 1506.042,859.424 1502.845,861.03C1501.747,858.617 1499.227,857.152 1498.823,856.917C1496.892,855.795 1404.574,820.241 1377.901,810.027C1385.737,807.063 1391.669,807.383 1405.029,809.226C1405.942,809.406 1406.897,809.639 1407.876,809.911ZM1355.05,821.934C1373.905,829.132 1423.709,845.805 1476.361,869.304C1478.481,870.25 1479.805,871.701 1480.663,873.377C1475.678,876.096 1470.74,878.59 1468.204,879.3C1464.82,880.248 1461.498,880.68 1458.091,880.653C1454.848,880.628 1451.529,880.187 1448.008,879.378C1447.398,879.238 1446.782,879.087 1446.16,878.925C1441.838,877.802 1437.194,876.159 1432.01,874.082C1426.212,859.162 1417.879,847.29 1412.164,847.743C1407.972,848.076 1405.982,854.908 1405.423,862.574C1404.4,862.126 1403.359,861.67 1402.3,861.209C1390.396,835.146 1383.162,840.485 1382.426,841.254C1380.169,843.609 1378.999,847.244 1378.473,851.21C1377.588,850.855 1376.693,850.498 1375.788,850.139L1375.629,850.078C1370.454,837.943 1365.08,831.515 1360.431,831.632C1355.511,831.757 1353.614,836.574 1353.077,842.685C1343.78,838.233 1338.752,831.655 1355.05,821.934Z" style="fill:rgb(214,121,39);"/>
                                </g>
                                <g transform="matrix(1,0,0,1,-947.843354,-587.286373)">
                                    <path d="M1353.418,840.026C1353.269,840.875 1353.158,841.766 1353.077,842.685C1348.992,840.729 1345.732,838.363 1344.742,835.5C1347.027,837.335 1349.618,838.594 1353.418,840.026ZM1378.831,849.066C1378.688,849.765 1378.57,850.482 1378.473,851.21C1377.588,850.855 1376.693,850.498 1375.788,850.139L1375.629,850.078C1375.239,849.165 1374.849,848.284 1374.458,847.437C1375.846,847.946 1377.302,848.488 1378.831,849.066ZM1405.704,859.728C1405.586,860.656 1405.493,861.609 1405.423,862.574C1404.4,862.126 1403.359,861.67 1402.3,861.209C1401.756,860.016 1401.22,858.889 1400.695,857.824C1402.501,858.549 1404.161,859.177 1405.704,859.728ZM1478.654,870.759C1479.52,871.521 1480.169,872.412 1480.663,873.377C1475.678,876.096 1470.74,878.59 1468.204,879.3C1464.82,880.248 1461.498,880.68 1458.091,880.653C1454.848,880.628 1451.529,880.187 1448.008,879.378C1447.398,879.238 1446.782,879.087 1446.16,878.925C1441.838,877.802 1437.194,876.159 1432.01,874.082C1430.99,871.457 1429.891,868.925 1428.742,866.539C1432.538,867.951 1436.98,869.997 1443.032,873.406C1454.943,880.118 1469.33,874.563 1471.451,873.744C1474.045,872.742 1476.441,871.746 1478.654,870.759ZM1510.324,845.552C1512.092,847.228 1512.438,849.292 1510.923,852.185C1507.875,858.003 1506.042,859.424 1502.845,861.03C1502.14,859.481 1500.849,858.323 1499.908,857.63C1505.957,852.05 1507.551,847.662 1510.324,845.552ZM1493.557,874.27C1496.07,872.875 1498.796,871.321 1501.671,869.616C1502.402,877.341 1502.069,880.751 1498.502,879.562C1495.402,878.529 1494.099,877.065 1493.557,874.27ZM1448.008,879.378C1451.529,880.187 1454.848,880.628 1458.091,880.653C1457.433,901.399 1458.374,901.84 1457.12,903.705C1454.032,908.298 1448.294,903.969 1447.775,903.115C1446.648,901.258 1447.336,887.396 1448.008,879.378Z" style="fill:rgb(178,88,25);"/>
                                </g>
                            </g>
                            <g>
                                <g transform="matrix(1,0,0,1,-947.843354,-587.286373)">
                                    <path d="M1356.354,863.472C1357.421,864.225 1358.76,864.971 1360.264,865.681C1358.141,872.097 1356.297,877.835 1355.176,875.769C1354.77,875.022 1354.776,873.181 1355.017,870.952C1355.797,869.916 1356.62,868.844 1357.49,867.736C1356.68,868.061 1355.969,868.347 1355.333,868.601C1355.604,866.882 1355.966,865.087 1356.354,863.472ZM1371.757,869.601C1373.072,869.908 1374.339,870.153 1375.51,870.323C1375.63,875.051 1375.726,882.13 1375.28,883.529C1374.465,886.091 1372.84,882.821 1371.757,869.601ZM1382.939,874.305C1384.08,874.835 1385.456,875.408 1386.975,875.989C1386.713,880.35 1386.566,884.349 1385.256,886.884C1383.369,883.254 1383.007,881.496 1382.939,874.305ZM1402.812,880.614C1404.342,880.89 1405.705,881.053 1406.798,881.062C1406.973,881.651 1407.16,882.173 1407.358,882.615C1407.463,882.851 1407.619,883.087 1407.819,883.321C1408.117,891.301 1408.093,897.534 1406.295,895.916C1405.34,895.056 1403.734,886.022 1402.812,880.614ZM1411.185,885.602C1412.682,886.316 1414.501,886.981 1416.468,887.564C1415.339,893.006 1413.735,900.439 1412.148,898.853C1410.916,897.621 1410.908,890.128 1411.185,885.602ZM1428.787,889.808C1430.529,889.913 1432.093,889.886 1433.337,889.7C1433.107,897.581 1433.372,904.743 1431.473,904.11C1430.252,903.703 1429.127,895.468 1428.787,889.808Z" style="fill:rgb(195,100,64);"/>
                                </g>
                                <g transform="matrix(1,0,0,1,-947.843354,-587.286373)">
                                    <path d="M1356.354,863.472C1354.828,862.395 1353.857,861.303 1353.756,860.282C1353.245,855.102 1352.579,848.34 1353.077,842.685C1353.614,836.574 1355.511,831.757 1360.431,831.632C1365.08,831.515 1370.454,837.943 1375.629,850.078C1376.464,852.038 1377.295,854.147 1378.117,856.401C1378.035,862.179 1378.867,867.808 1379.348,870.584C1378.285,870.631 1376.973,870.536 1375.51,870.323C1374.339,870.153 1373.072,869.908 1371.757,869.601C1367.914,868.706 1363.668,867.287 1360.264,865.681C1358.76,864.971 1357.421,864.225 1356.354,863.472ZM1402.812,880.614C1398.103,879.764 1391.815,877.838 1386.975,875.989C1385.456,875.408 1384.08,874.835 1382.939,874.305C1380.984,873.396 1379.724,872.615 1379.633,872.141C1379.578,871.857 1379.475,871.321 1379.348,870.584C1378.867,867.808 1378.035,862.179 1378.117,856.401C1378.141,854.66 1378.248,852.905 1378.473,851.21C1378.999,847.244 1380.169,843.609 1382.426,841.254C1383.162,840.485 1390.396,835.146 1402.3,861.209C1403.256,863.302 1404.242,865.597 1405.257,868.113C1405.309,873.176 1405.894,878.021 1406.798,881.062C1405.705,881.053 1404.342,880.89 1402.812,880.614ZM1436.029,886.569C1436.098,886.839 1436.166,887.109 1436.233,887.38C1436.55,888.662 1435.374,889.395 1433.337,889.7C1432.093,889.886 1430.529,889.913 1428.787,889.808C1425.03,889.581 1420.445,888.741 1416.468,887.564C1414.501,886.981 1412.682,886.316 1411.185,885.602C1409.674,884.88 1408.492,884.109 1407.819,883.321C1407.619,883.087 1407.463,882.851 1407.358,882.615C1407.16,882.173 1406.973,881.651 1406.798,881.062C1405.894,878.021 1405.309,873.176 1405.257,868.113C1405.238,866.27 1405.29,864.399 1405.423,862.574C1405.982,854.908 1407.972,848.076 1412.164,847.743C1417.879,847.29 1426.212,859.162 1432.01,874.082C1433.565,878.085 1434.938,882.307 1436.029,886.569ZM1436.029,886.569C1434.938,882.307 1433.565,878.085 1432.01,874.082C1437.194,876.159 1441.838,877.802 1446.16,878.925C1443.404,881.463 1439.53,884.727 1436.029,886.569Z" style="fill:rgb(253,207,139);"/>
                                </g>
                                <g transform="matrix(1,0,0,1,-947.843354,-587.286373)">
                                    <path d="M1407.876,809.911C1408.281,807.115 1409.622,802.794 1411.462,798.777C1412.189,797.191 1412.993,795.652 1413.848,794.273C1416.359,790.224 1419.307,787.554 1422.011,789.12C1425.181,790.955 1427.45,794.709 1429.073,799.049C1429.758,800.882 1430.328,802.819 1430.802,804.761C1432.183,810.416 1432.75,816.108 1432.978,819.361C1431.148,818.873 1428.972,818.171 1425.847,816.887C1422.263,815.415 1414.511,811.755 1407.876,809.911ZM1497.052,823.932C1497.436,829.638 1497.09,835.729 1496.73,839.865C1493.429,838.876 1489.728,837.79 1485.773,836.461C1480.292,834.62 1476.291,833.378 1472.965,832.382C1473.844,828.819 1475.662,823.287 1478.207,818.459C1478.424,818.048 1478.646,817.642 1478.873,817.242C1479.539,816.072 1480.249,814.959 1481,813.946C1482.789,811.533 1484.81,809.686 1487.019,808.969C1487.951,808.666 1488.916,808.564 1489.911,808.707C1491.051,808.869 1492.023,809.382 1492.848,810.17C1495.512,812.712 1496.661,818.122 1497.052,823.932ZM1438.947,820.78C1440.139,817.629 1442.168,812.877 1444.666,808.864C1445.71,807.187 1446.835,805.64 1448.015,804.391C1448.077,804.326 1448.138,804.262 1448.2,804.199C1450.384,801.958 1452.748,800.761 1455.127,801.673C1458.052,802.794 1460.234,805.377 1461.863,808.611C1462.762,810.396 1463.493,812.379 1464.086,814.425C1465.811,820.368 1466.381,826.837 1466.577,830.496C1461.235,828.908 1456.262,827.298 1445.902,823.144C1442.875,821.931 1440.741,821.254 1438.947,820.78Z" style="fill:rgb(252,224,166);"/>
                                </g>
                            </g>
                        </g>
                        <g>
                            <g>
                                <g transform="matrix(1,0,0,1,-947.843354,-587.286373)">
                                    <path d="M1577.652,762.647C1589.279,765.608 1606.718,769.858 1622.244,774.613L1622.246,775.132C1622.284,788.682 1623.175,814.254 1622.957,834.346C1614.952,839.344 1602.973,847.128 1594.476,852.744C1594.379,847.035 1593.938,842.006 1593.844,828.053C1593.767,816.725 1594.265,806.68 1594.178,787.688L1594.767,787.427L1594.176,787.278C1588.78,785.915 1580.868,783.914 1571.369,781.507C1565.296,779.968 1558.573,778.262 1551.443,776.451C1551.588,775.964 1551.788,775.546 1552.056,775.077L1552.193,774.841C1553.742,772.233 1567.855,766.41 1577.652,762.647ZM1552.31,840.415C1552.101,835.412 1552.129,831.39 1552.18,826.95C1552.229,822.833 1552.298,818.355 1552.218,812.401C1552.218,812.35 1552.217,812.298 1552.216,812.247C1552.189,810.252 1552.145,808.091 1552.078,805.724C1552.007,803.211 1551.935,800.925 1551.863,798.844C1551.862,798.816 1551.861,798.787 1551.86,798.759C1551.294,782.307 1550.788,778.664 1551.443,776.451C1558.573,778.262 1565.296,779.968 1571.369,781.507C1570.721,797.921 1570.907,826.81 1571.072,845.986C1565.596,844.368 1559.378,842.522 1552.31,840.415ZM1571.072,845.986C1570.907,826.81 1570.721,797.921 1571.369,781.507C1580.868,783.914 1588.78,785.915 1594.176,787.278L1594.178,787.688C1594.265,806.68 1593.767,816.725 1593.844,828.053C1593.938,842.006 1594.379,847.035 1594.476,852.744L1594.379,852.809C1588.644,851.153 1581.1,848.95 1571.072,845.986Z" style="fill:rgb(107,90,90);"/>
                                </g>
                                <g transform="matrix(1,0,0,1,-947.843354,-587.286373)">
                                    <path d="M1620.816,774.179C1621.294,774.323 1621.77,774.468 1622.244,774.613L1622.246,775.132C1622.284,788.682 1623.175,814.254 1622.957,834.346C1614.952,839.344 1602.973,847.128 1594.476,852.744L1594.452,852.76C1594.415,852.069 1594.404,851.319 1594.422,850.506C1594.422,850.48 1594.423,850.454 1594.424,850.428C1595.297,813.754 1592.067,791.616 1596.233,787.361C1597.94,785.617 1599.98,781.751 1620.816,774.179Z" style="fill:rgb(96,76,74);"/>
                                </g>
                            </g>
                            <g>
                                <g transform="matrix(1,0,0,1,-947.843354,-587.286373)">
                                    <path d="M1461.863,808.611C1463.73,809.2 1464.997,809.594 1465.213,809.656C1465.939,809.867 1466.635,810.067 1467.305,810.258C1467.246,812.033 1467.194,813.734 1467.15,815.297C1466.113,815.002 1465.092,814.711 1464.086,814.425C1463.493,812.379 1462.762,810.396 1461.863,808.611ZM1503.509,764.218L1510.531,766.018C1510.573,767.202 1510.61,768.472 1510.64,769.834L1500.905,767.58C1502.003,766.625 1502.869,765.455 1503.509,764.218ZM1443.771,772.396C1452.641,768.395 1459.523,765.475 1464.942,763.255C1464.573,768.058 1464.604,773.096 1465.029,777.884C1457.651,776.004 1450.517,774.162 1443.771,772.396ZM1513.693,766.827C1522.521,769.086 1531.345,771.337 1539.813,773.492L1551.443,776.451C1550.788,778.664 1551.294,782.307 1551.86,798.759C1544.445,797.093 1535.911,795.205 1528.098,793.366C1516.333,790.596 1504.21,787.665 1492.258,784.713L1487.716,783.589C1487.807,782.446 1487.878,781.271 1487.933,780.072L1490.058,780.542C1491.025,782.025 1491.967,783.035 1492.768,783.152C1493.449,783.252 1494.061,782.626 1494.615,781.538C1502.139,783.172 1509.933,784.837 1515.949,786.302C1525.65,780.897 1529.363,779.224 1536.693,775.218C1532.675,774.292 1528.597,773.989 1515.069,770.859L1512.751,770.322C1512.986,770.287 1513.222,770.233 1513.458,770.158C1513.558,769.213 1513.641,768.081 1513.693,766.827ZM1478.207,818.459C1474.27,817.328 1470.615,816.284 1467.15,815.297C1467.194,813.734 1467.246,812.033 1467.305,810.258C1472.335,811.69 1475.855,812.581 1478.847,813.37C1478.849,814.695 1478.858,815.994 1478.873,817.242C1478.646,817.642 1478.424,818.048 1478.207,818.459ZM1441.219,807.858C1441.353,804.218 1441.633,800.317 1441.869,793.031C1441.995,789.149 1442.156,778.868 1442.352,772.024L1443.771,772.396C1450.517,774.162 1457.651,776.004 1465.029,777.884C1465.189,779.683 1465.405,781.446 1465.675,783.149C1460.369,781.778 1453.822,780.208 1448.137,778.828C1448.073,784.739 1448.034,792.952 1448.016,804.137L1448.015,804.391C1446.835,805.64 1445.71,807.187 1444.666,808.864C1443.523,808.532 1442.376,808.197 1441.219,807.858ZM1487.716,783.589L1492.258,784.713C1492.478,791.363 1492.735,800.562 1492.848,810.17C1492.023,809.382 1491.051,808.869 1489.911,808.707C1488.916,808.564 1487.951,808.666 1487.019,808.969C1487.088,804.915 1487.068,800.672 1486.874,792.569L1486.822,790.429C1487.235,788.339 1487.522,786.036 1487.716,783.589ZM1527.898,833.112C1527.869,829.143 1527.845,824.668 1527.836,820.09C1528.597,820.303 1529.402,820.525 1530.254,820.757C1541.982,823.945 1544.173,824.444 1552.18,826.95C1552.129,831.39 1552.101,835.412 1552.31,840.415C1545.097,838.265 1536.999,835.843 1527.898,833.112ZM1552.216,812.247C1552.217,812.298 1552.218,812.35 1552.218,812.401C1552.298,818.355 1552.229,822.833 1552.18,826.95C1544.173,824.444 1541.982,823.945 1530.254,820.757C1529.402,820.525 1528.597,820.303 1527.836,820.09C1527.828,815.607 1527.834,811.025 1527.866,806.723C1528.444,806.859 1529.036,807.002 1529.637,807.153C1540.92,809.981 1545.658,810.564 1552.216,812.247ZM1528.098,793.366C1535.911,795.205 1544.445,797.093 1551.86,798.759C1551.861,798.787 1551.862,798.816 1551.863,798.844C1551.935,800.925 1552.007,803.211 1552.078,805.724C1552.145,808.091 1552.189,810.252 1552.216,812.247C1545.658,810.564 1540.92,809.981 1529.637,807.153C1529.036,807.002 1528.444,806.859 1527.866,806.723C1527.904,801.686 1527.975,797.031 1528.098,793.366ZM1497.052,823.932C1496.661,818.122 1495.512,812.712 1492.848,810.17C1492.735,800.562 1492.478,791.363 1492.258,784.713C1504.21,787.665 1516.333,790.596 1528.098,793.366C1527.975,797.031 1527.904,801.686 1527.866,806.723C1527.834,811.025 1527.828,815.607 1527.836,820.09C1527.845,824.668 1527.869,829.143 1527.898,833.112L1522.736,831.562C1512.996,828.636 1504.544,826.13 1497.052,823.932Z" style="fill:rgb(191,227,199);"/>
                                </g>
                                <g transform="matrix(1,0,0,1,-947.843354,-587.286373)">
                                    <path d="M1499.689,746.62C1512.388,737.748 1514.12,756.471 1513.693,766.827C1513.641,768.081 1513.558,769.213 1513.458,770.158C1513.222,770.233 1512.986,770.287 1512.751,770.322C1511.995,770.437 1511.262,770.36 1510.648,770.209C1510.646,770.083 1510.643,769.958 1510.64,769.834C1510.61,768.472 1510.573,767.202 1510.531,766.018C1509.997,750.956 1508.575,749.782 1507.462,748.863C1506.074,747.717 1503.55,747.735 1501.641,748.476L1501.645,748.553C1501.651,748.824 1501.028,751.075 1500.311,753.5C1499.642,753.574 1498.928,753.791 1498.189,754.153C1496.269,754.29 1494.436,755.776 1493.036,757.787C1491.729,756.881 1490.683,756.038 1490.619,755.966C1489.928,755.196 1489.44,753.52 1499.375,746.519C1499.405,746.532 1499.522,746.563 1499.689,746.62Z" style="fill:rgb(237,237,235);"/>
                                </g>
                                <g transform="matrix(1,0,0,1,-947.843354,-587.286373)">
                                    <path d="M1486.822,790.429L1486.874,792.569C1487.068,800.672 1487.088,804.915 1487.019,808.969C1484.81,809.686 1482.789,811.533 1481,813.946C1480.305,813.756 1479.592,813.566 1478.847,813.37C1478.842,809.478 1478.893,805.355 1478.987,801.6C1483.293,800.881 1485.606,796.573 1486.822,790.429ZM1478.987,801.6C1478.893,805.355 1478.842,809.478 1478.847,813.37C1475.855,812.581 1472.335,811.69 1467.305,810.258C1467.498,804.463 1467.766,797.885 1468.084,792.761C1469.855,797.497 1472.312,800.781 1475.435,801.454C1476.748,801.737 1477.928,801.777 1478.987,801.6ZM1500.905,767.58L1510.64,769.834C1510.643,769.958 1510.646,770.083 1510.648,770.209C1511.262,770.36 1511.995,770.437 1512.751,770.322L1515.069,770.859C1528.597,773.989 1532.675,774.292 1536.693,775.218C1529.363,779.224 1525.65,780.897 1515.949,786.302C1509.933,784.837 1502.139,783.172 1494.615,781.538C1495.943,778.927 1496.935,773.663 1497.727,769.419C1498.945,769.006 1500.003,768.366 1500.905,767.58ZM1448.2,804.199L1448.016,804.137C1448.034,792.952 1448.073,784.739 1448.137,778.828C1453.822,780.208 1460.369,781.778 1465.675,783.149C1466.239,786.697 1467.044,789.979 1468.084,792.761C1467.766,797.885 1467.498,804.463 1467.305,810.258C1466.635,810.067 1465.939,809.867 1465.213,809.656C1464.997,809.594 1463.73,809.2 1461.863,808.611C1460.234,805.377 1458.052,802.794 1455.127,801.673C1452.748,800.761 1450.384,801.958 1448.2,804.199ZM1488.02,764.468C1488.816,763.886 1489.792,763.2 1490.848,762.519C1489.669,766.987 1490.962,771.255 1497.145,769.596C1497.343,769.543 1497.537,769.484 1497.727,769.419C1496.935,773.663 1495.943,778.927 1494.615,781.538C1493.079,781.204 1491.554,780.872 1490.058,780.542C1489.384,779.508 1488.698,778.243 1488.04,776.891C1488.133,772.862 1488.085,768.639 1488.02,764.468Z" style="fill:rgb(200,211,219);"/>
                                </g>
                            </g>
                        </g>
                        <g transform="matrix(1,0,0,1,-947.843354,-587.286373)">
                            <path d="M1497.727,769.419C1497.537,769.484 1497.343,769.543 1497.145,769.596C1490.962,771.255 1489.669,766.987 1490.848,762.519C1491.9,758.532 1494.919,754.387 1498.189,754.153C1501.666,752.451 1504.583,753.959 1504.864,758.415C1505.094,762.067 1502.784,767.703 1497.727,769.419ZM1488.02,764.468C1488.085,768.639 1488.133,772.862 1488.04,776.891C1487.746,789.62 1486.039,800.422 1478.987,801.6C1477.928,801.777 1476.748,801.737 1475.435,801.454C1472.312,800.781 1469.855,797.497 1468.084,792.761C1461.477,775.097 1464.398,737.226 1477.79,739.179C1479.412,739.987 1487.726,744.126 1487.939,759.311C1487.963,761.01 1487.993,762.734 1488.02,764.468Z" style="fill:rgb(237,237,235);"/>
                        </g>
                    </g>
                    <g id="outline1" serif:id="outline" transform="matrix(0.951868,0,0,0.951868,33.470539,-374.970802)">
                        <g transform="matrix(1,0,0,1,-5.227639,-712.502892)">
                            <path d="M528.887,1317.933C528.529,1319.364 528.233,1324.924 528.066,1331.585C527.933,1336.873 527.882,1342.855 527.946,1348.018M526.808,1266.007C508.966,1263.405 508.816,1328.086 524.334,1331.431C539.02,1334.598 537.775,1308.835 537.47,1287.157C537.246,1271.205 528.512,1266.856 526.808,1266.007ZM516.611,1322.298C515.853,1334.533 515.364,1354.65 515.456,1355.086C516.016,1357.745 518.631,1355.387 520.375,1354.115M533.256,1293.66C532.87,1293.853 535.02,1300.37 537.577,1305.626C539.258,1309.083 541.115,1311.994 542.544,1312.204C544.975,1312.562 546.574,1304.093 547.754,1297.777M548.239,1281.738C540.954,1282.26 534.851,1301.261 547.142,1297.962C552.88,1296.422 555.502,1290.197 555.252,1286.217C554.957,1281.534 551.891,1279.951 548.239,1281.738ZM546.591,1287.407C544.676,1288.03 542.47,1289.273 540.527,1290.527C539.417,1291.243 538.392,1291.964 537.555,1292.575" style="fill:none;stroke:rgb(82,72,72);stroke-width:2.67px;stroke-linecap:round;stroke-linejoin:round;stroke-miterlimit:1.5;"/>
                        </g>
                        <g transform="matrix(1.050565,0,0,1.050565,-1043.684211,-210.83286)">
                            <path d="M1499.852,771.959L1504.394,773.083C1516.346,776.034 1528.469,778.965 1540.234,781.735C1548.048,783.575 1556.581,785.463 1563.996,787.128M1540.002,795.092C1540.58,795.229 1541.172,795.372 1541.774,795.523C1553.056,798.351 1557.794,798.934 1564.352,800.616M1539.972,808.459C1540.733,808.673 1541.538,808.895 1542.39,809.127C1554.118,812.314 1556.309,812.813 1564.317,815.32M1589.788,751.017C1579.991,754.78 1565.878,760.603 1564.33,763.211L1564.192,763.446C1563.924,763.916 1563.724,764.333 1563.58,764.82C1562.923,767.037 1563.432,770.689 1563.999,787.214C1564.071,789.295 1564.143,791.581 1564.214,794.093C1564.283,796.522 1564.327,798.733 1564.354,800.771C1564.434,806.725 1564.365,811.202 1564.317,815.32C1564.265,819.76 1564.237,823.781 1564.446,828.785M1500.088,748.589L1503.445,749.454M1455.907,760.766C1464.777,756.765 1471.66,753.845 1477.078,751.625M1454.488,760.394C1454.959,760.517 1455.432,760.641 1455.907,760.766C1462.653,762.531 1469.787,764.373 1477.166,766.253M1368.49,851.842C1368.102,853.456 1367.741,855.252 1367.469,856.971M1367.153,859.321C1366.912,861.55 1366.906,863.392 1367.312,864.139C1368.433,866.204 1370.277,860.467 1372.4,854.05M1460.152,792.507L1460.336,792.568M1473.999,796.98C1475.866,797.569 1477.133,797.963 1477.349,798.026C1478.075,798.237 1478.771,798.437 1479.441,798.628C1484.471,800.059 1487.991,800.951 1490.983,801.739C1491.729,801.936 1492.441,802.126 1493.136,802.316M1453.355,796.227C1454.512,796.566 1455.659,796.901 1456.802,797.233M1504.394,773.083C1504.614,779.733 1504.871,788.931 1504.985,798.539M1509.188,812.301C1516.68,814.499 1525.132,817.006 1534.872,819.932L1540.034,821.481C1558.055,826.889 1572.144,831.085 1583.208,834.356C1593.236,837.32 1600.78,839.523 1606.515,841.178L1606.614,841.207M1476.223,802.795C1480.589,804.037 1485.227,805.359 1490.343,806.829M1515.645,752.588L1522.667,754.387M1525.829,755.197C1534.658,757.455 1543.481,759.706 1551.949,761.862C1555.916,762.872 1559.805,763.861 1563.58,764.82C1570.709,766.632 1577.432,768.338 1583.506,769.877C1593.004,772.284 1600.916,774.284 1606.312,775.647L1606.903,775.797M1606.314,776.057L1606.903,775.797M1589.788,751.017C1601.416,753.978 1618.854,758.227 1634.381,762.983M1606.312,775.647L1606.314,776.057C1606.401,795.049 1605.904,805.095 1605.98,816.422C1606.074,830.376 1606.515,835.404 1606.613,841.114L1606.614,841.207M1634.381,762.983L1634.382,763.502C1634.42,777.052 1635.311,802.623 1635.093,822.715M1606.515,841.178L1606.613,841.114C1615.11,835.498 1627.088,827.713 1635.093,822.715M1583.506,769.877C1582.858,786.29 1583.043,815.18 1583.208,834.356M1579.727,790.499C1577.582,790.109 1577.667,789.665 1575.521,789.844C1575.463,797.732 1574.982,809.247 1575.169,809.599C1575.574,810.365 1577.101,809.994 1578.402,809.899M1592.03,790.972C1587.13,790.71 1588.89,793.21 1588.954,795.467C1589.081,799.918 1588.229,809.642 1589.065,810.735C1589.666,811.521 1591.735,811.33 1591.888,811.334M1454.488,760.394C1454.292,767.238 1454.131,777.518 1454.005,781.4C1453.769,788.686 1453.489,792.587 1453.355,796.227M1517.414,783.372C1513.836,784.838 1512.299,784.241 1512.651,788.103C1513.297,795.208 1512.541,795.225 1513.423,802.338C1514.852,801.366 1514.997,801.626 1517.272,799.554M1540.234,781.735C1540.112,785.401 1540.04,790.055 1540.002,795.092C1539.971,799.395 1539.964,803.977 1539.972,808.459C1539.981,813.038 1540.005,817.513 1540.034,821.481M1547.565,791.999C1551.58,792.784 1551.509,792.815 1555.574,793.625M1547.195,805.307C1551.045,806.59 1551.014,806.451 1554.884,807.525M1546.086,817.875C1548.906,818.815 1553.82,820.147 1554.564,820.364M1512.447,741.87C1513.164,739.445 1513.787,737.193 1513.781,736.922L1513.777,736.845M1511.825,734.989C1511.658,734.933 1511.541,734.901 1511.511,734.889C1501.576,741.889 1502.064,743.565 1502.755,744.336C1502.819,744.408 1503.865,745.251 1505.172,746.156M1510.546,735.948C1510.984,735.598 1511.41,735.279 1511.825,734.989C1526.062,725.043 1526.515,749.78 1525.594,758.527M1513.777,736.845C1515.686,736.105 1518.21,736.087 1519.598,737.233C1520.807,738.231 1522.38,739.529 1522.784,758.579M1522.784,758.579C1523.588,758.777 1524.596,758.847 1525.594,758.527M1500.069,768.442L1502.194,768.912C1503.69,769.241 1505.215,769.574 1506.751,769.907C1514.275,771.542 1522.069,773.207 1528.085,774.672M1548.829,763.587C1541.499,767.593 1537.786,769.266 1528.085,774.672M1524.887,758.692L1527.205,759.228C1540.733,762.359 1544.811,762.662 1548.829,763.587M1513.042,755.95L1522.776,758.203M1460.273,767.198C1465.958,768.577 1472.505,770.148 1477.811,771.518M1460.273,767.198C1460.209,773.109 1460.17,781.322 1460.152,792.507L1460.152,792.761M1498.958,778.799L1499.01,780.938C1499.204,789.041 1499.224,793.285 1499.155,797.338M1514.981,849.4C1518.178,847.793 1520.011,846.372 1523.059,840.555C1527.64,831.808 1515.203,830.641 1497.909,824.831C1477.955,818.127 1477.618,819.365 1458.039,811.514C1448.245,807.587 1447.797,809.286 1437.983,805.257C1433.87,803.568 1424.269,798.997 1417.165,797.595C1403.805,795.753 1397.873,795.432 1390.037,798.396M1367.187,810.303C1350.889,820.024 1355.916,826.603 1365.213,831.055M1444.146,862.452C1458.918,868.371 1469.305,870.76 1480.34,867.67C1482.876,866.96 1487.814,864.466 1492.799,861.746M1387.765,838.447L1387.924,838.509C1388.829,838.868 1389.724,839.225 1390.609,839.58M1414.436,849.579C1415.495,850.04 1416.536,850.495 1417.559,850.944M1391.484,858.954C1384.415,859.268 1366.346,853.25 1365.893,848.651C1365.382,843.471 1364.716,836.709 1365.213,831.055C1365.75,824.943 1367.647,820.127 1372.567,820.002C1377.216,819.884 1382.59,826.313 1387.765,838.447C1388.601,840.407 1389.431,842.516 1390.253,844.771M1418.934,869.432C1411.608,869.369 1392.137,862.426 1391.769,860.511C1391.714,860.226 1391.612,859.69 1391.484,858.954C1391.003,856.177 1390.172,850.549 1390.253,844.771C1390.277,843.029 1390.384,841.274 1390.609,839.58C1391.135,835.613 1392.305,831.978 1394.562,829.623C1395.298,828.855 1402.532,823.515 1414.436,849.579C1415.392,851.671 1416.378,853.966 1417.393,856.482M1419.494,870.985C1416.347,863.935 1415.839,836.784 1424.3,836.113C1431.645,835.53 1443.316,855.309 1448.369,875.749C1449.774,881.431 1421.88,876.329 1419.494,870.985ZM1364.384,809.211C1365.223,809.547 1366.159,809.911 1367.187,810.303C1386.041,817.501 1435.846,834.175 1488.497,857.673C1490.617,858.62 1491.941,860.07 1492.799,861.746C1493.884,863.864 1494.227,866.341 1494.5,868.614M1494.5,868.614C1499.088,866.24 1506.609,862.317 1515.37,857.052M1386.959,797.219C1381.669,799.213 1372.696,803.341 1364.384,809.211M1386.959,797.219L1390.037,798.396C1416.71,808.611 1509.029,844.164 1510.959,845.287C1511.364,845.522 1513.883,846.987 1514.981,849.4C1515.047,849.544 1515.108,849.692 1515.163,849.843C1515.581,850.999 1515.498,854.499 1515.37,857.052M1383.893,857.971C1384.976,871.191 1386.601,874.46 1387.416,871.899C1387.862,870.499 1387.766,863.421 1387.646,858.692M1395.076,862.675C1395.143,869.865 1395.505,871.623 1397.392,875.254C1398.703,872.718 1398.849,868.72 1399.111,864.358M1448.165,874.939C1451.666,873.096 1455.54,869.833 1458.296,867.295M1423.321,873.971C1423.044,878.498 1423.052,885.991 1424.284,887.222C1425.871,888.809 1427.475,881.376 1428.605,875.933M1440.923,878.177C1441.263,883.838 1442.388,892.073 1443.609,892.48C1445.508,893.112 1445.243,885.95 1445.473,878.07M1460.144,867.748C1459.472,875.765 1458.784,889.628 1459.912,891.485C1460.43,892.339 1466.168,896.667 1469.256,892.075C1470.51,890.21 1469.57,889.769 1470.227,869.023M1505.693,862.639C1506.235,865.435 1507.538,866.899 1510.638,867.932C1514.205,869.121 1514.538,865.711 1513.807,857.985M1420.012,798.28C1420.417,795.485 1421.758,791.164 1423.598,787.147C1424.325,785.561 1425.129,784.022 1425.984,782.643C1428.495,778.593 1431.443,775.924 1434.147,777.489C1437.318,779.325 1439.586,783.078 1441.209,787.419C1441.894,789.251 1442.464,791.189 1442.938,793.13C1444.319,798.786 1444.886,804.478 1445.114,807.73M1451.083,809.15C1452.275,805.999 1454.304,801.247 1456.802,797.233C1459.822,792.383 1463.526,788.61 1467.263,790.042C1471.802,791.782 1474.553,797.042 1476.223,802.795C1477.947,808.737 1478.517,815.206 1478.713,818.865M1485.101,820.751C1485.98,817.189 1487.799,811.657 1490.343,806.829C1490.56,806.417 1490.782,806.011 1491.009,805.612C1493.932,800.474 1497.704,796.456 1502.047,797.076C1503.187,797.239 1504.159,797.751 1504.985,798.539C1507.648,801.081 1508.797,806.492 1509.188,812.301C1509.572,818.008 1509.226,824.099 1508.866,828.235M1414.948,868.984C1415.87,874.391 1417.476,883.426 1418.431,884.285C1420.229,885.904 1420.253,879.67 1419.955,871.691" style="fill:none;stroke:rgb(82,72,72);stroke-width:1.5px;stroke-linecap:round;stroke-linejoin:round;stroke-miterlimit:1.5;"/>
                        </g>
                        <g transform="matrix(1,0,0,1,27.364588,-708.552319)">
                            <path d="M337.105,1415.479C332.981,1415.835 329.84,1416.539 329.781,1417.805C329.777,1417.899 329.874,1418.391 330.053,1419.182C331.293,1424.679 336.443,1444.62 338.513,1445.718C339.405,1446.192 351.549,1447.941 352.57,1444.943C357.763,1429.695 358.611,1422.417 358.084,1418.909C357.624,1415.841 356.113,1415.657 355.537,1415.546C355.346,1415.527 355.138,1415.508 354.913,1415.49M330.053,1419.182C334.612,1420.531 338.595,1421.158 342.693,1421.405C344.314,1421.502 345.952,1421.541 347.651,1421.541C348.801,1421.541 349.89,1421.45 350.915,1421.293C353.858,1420.844 356.273,1419.853 358.084,1418.909M342.693,1421.405C340.488,1419.114 338.657,1417.174 337.105,1415.479C329.011,1406.64 328.502,1404.458 322.099,1393.787C323.068,1393.899 327.219,1394.376 334.149,1395.637C332.562,1377.39 333.51,1377.404 333.532,1377.172C337.81,1385.029 337.466,1385.051 340.86,1393.449C345.404,1372.055 345.882,1371.084 346.761,1369.3C349.193,1381.59 347.555,1381.737 349.876,1394.143C358.631,1383.785 360.306,1384.267 361.994,1383.011C359.561,1393.436 358.372,1392.929 353.866,1402.577C360.874,1399.899 360.751,1399.957 367.833,1397.115C361.659,1404.975 357.74,1411.107 354.913,1415.49C353.296,1417.998 352.036,1419.933 350.915,1421.293" style="fill:none;stroke:rgb(82,72,72);stroke-width:1.73px;stroke-linecap:round;stroke-linejoin:round;stroke-miterlimit:1.5;"/>
                        </g>
                    </g>
                </g>
            </g>
            <g id="sushi-top" transform="matrix(0.959816,0,0,0.959816,21.745539,9.813818)">
                <g id="color2" serif:id="color">
                    <g transform="matrix(1,0,0,1,10.416391,-348.660431)">
                        <path d="M303.124,658.134C298.279,652.37 297.24,645.07 300.704,637.468C305.772,630.31 311.424,625.804 322.74,619.853C337.928,611.865 354.032,604.743 367.999,585.176C374.165,576.539 379.566,569.181 389.804,558.327C413.379,533.334 444.798,515.57 451.672,511.771C480.301,495.948 494.485,491.887 502.209,489.788C526.33,483.231 545.289,485.518 558.449,488.168C566.314,491.545 572.144,495.901 576.417,500.008C569.28,501.146 562.757,503.215 554.882,505.81C543.846,509.447 536.834,511.244 524.673,517.353C519.283,520.06 513.326,523.721 512.419,524.305C498.77,533.083 490.764,540.438 483.613,547.275C482.21,548.616 474.197,556.636 471.977,558.906C452.722,578.606 440.543,588.682 422.128,592.16C423.388,592.108 427.987,591.979 433.624,590.57C454.039,585.468 470.987,569.51 487.642,555.202C503.95,541.19 521.515,524.623 547.76,512.557C555.443,509.026 559.701,506.909 563.16,505.291C571.332,501.47 575.599,500.272 576.442,500.032C577.815,501.354 579.027,502.649 580.094,503.878C621.625,495.663 654.666,510.492 670.404,532.187C670.297,532.842 670.206,533.525 670.13,534.234C669.813,537.191 683.569,593.075 574.933,625.875C559.936,630.402 542.608,634.49 522.588,637.938C505.865,640.818 487.263,643.252 466.575,645.123C408.931,650.335 374.279,696.409 333.842,698.453C333.904,691.429 338.555,682.037 344.185,673.213C345.143,672.08 346.115,670.896 347.099,669.658C346.187,671.489 345.294,673.538 344.386,675.885C341.675,682.894 339.522,691.238 339.426,695.301C341.327,690.36 350.411,678.462 355.332,669.662C357.246,666.241 357.5,664.689 369.911,646.492C369.164,647.02 364.275,650.474 360.79,653.403C358.941,654.957 357.296,656.388 355.803,657.823C356.838,656.315 357.888,654.752 358.954,653.131C360.066,651.779 361.045,650.616 361.837,649.688C362.08,649.572 362.261,649.483 362.373,649.426C363.105,649.055 367.741,646.707 371.183,644.189C378.901,638.544 380.727,635.775 387.541,628.457C395.226,620.206 403.641,613.003 403.923,612.753C403.418,612.948 399.3,614.431 393.185,617.369C392.546,617.676 388.881,619.437 385.409,621.602C375.563,627.743 371.39,632.506 367.538,636.46C362.831,641.292 356.217,650.546 348.192,653.8C338.603,657.689 323.366,660.995 310.005,659.79C307.639,659.577 305.286,658.936 303.124,658.134ZM609.403,608.596C608.223,609.255 602.413,612.628 596.903,614.6C590.431,616.916 584.034,617.77 575.308,619.579C553.301,624.143 553.252,625.372 540.543,627.332C529.633,629.015 484.751,633.841 470.803,636.602C462.109,638.323 433.871,647.703 426.416,653.653C426.455,653.705 426.23,653.727 426.268,653.779C426.306,653.831 426.375,653.706 426.429,653.671C426.734,653.471 427.904,652.705 430.517,651.648C432.205,650.965 437.853,648.679 452.334,645.165C468.858,641.156 474.932,641.011 475.47,640.967C492.122,639.586 515.608,638.803 538.384,634.356C551.249,631.844 551.387,631.039 568.098,625.704C592.435,617.934 594.916,618.965 609.403,608.596ZM300.704,637.468C301.742,635.189 303.184,632.884 305.05,630.584C307.87,627.109 311.655,623.649 316.471,620.317C325.405,614.136 333.016,608.265 339.614,602.661C340.196,602.166 340.77,601.674 341.336,601.184C387.985,560.806 382.545,534.303 443.008,505.354C487.569,484.018 518.708,479.967 540.322,483.147C547.139,484.15 553.009,485.873 558.053,487.999C558.185,488.055 558.317,488.112 558.449,488.168C545.289,485.518 526.33,483.231 502.209,489.788C494.485,491.887 480.301,495.948 451.672,511.771C444.798,515.57 413.379,533.334 389.804,558.327C379.566,569.181 374.165,576.539 367.999,585.176C354.032,604.743 337.928,611.865 322.74,619.853C311.424,625.804 305.772,630.31 300.704,637.468ZM670.404,532.187C684.743,551.953 684.717,577.418 663.661,596.345C603.666,650.273 503.445,660.585 488.827,662.089C437.204,667.4 366.984,713.77 343.136,709.06C336.373,707.724 333.796,703.766 333.842,698.453C374.279,696.409 408.931,650.335 466.575,645.123C487.263,643.252 505.865,640.818 522.588,637.938C542.608,634.49 559.936,630.402 574.933,625.875C683.569,593.075 669.813,537.191 670.13,534.234C670.206,533.525 670.297,532.842 670.404,532.187ZM576.442,500.032C575.599,500.272 571.331,501.47 563.16,505.291C559.701,506.909 555.443,509.026 547.76,512.557C521.515,524.623 503.95,541.19 487.642,555.202C470.987,569.51 454.039,585.468 433.624,590.57C427.987,591.979 423.388,592.108 422.128,592.16C440.543,588.682 452.722,578.606 471.977,558.906C474.197,556.636 482.21,548.616 483.613,547.275C490.764,540.438 498.77,533.083 512.419,524.305C513.326,523.721 519.283,520.06 524.673,517.353C536.834,511.244 543.846,509.447 554.882,505.81C562.757,503.215 569.28,501.146 576.417,500.008L576.442,500.032ZM355.803,657.823C357.296,656.388 358.941,654.957 360.79,653.403C364.275,650.474 369.164,647.02 369.911,646.492C357.5,664.689 357.246,666.241 355.332,669.662C350.411,678.462 341.327,690.36 339.426,695.301C339.522,691.238 341.675,682.894 344.386,675.885C345.294,673.538 346.187,671.489 347.099,669.658C349.885,666.157 352.78,662.226 355.803,657.823ZM358.954,653.131C359.599,652.15 360.25,651.148 360.907,650.124C361.276,649.954 361.589,649.807 361.837,649.688C361.045,650.616 360.066,651.779 358.954,653.131ZM310.005,659.79C323.366,660.995 338.603,657.689 348.192,653.8C356.217,650.546 362.831,641.292 367.538,636.46C371.39,632.506 375.563,627.743 385.409,621.602C375.563,627.743 372.392,633.514 368.54,637.468C363.834,642.3 364.211,645.008 350.482,654.803C340.113,658.348 323.366,660.995 310.005,659.79ZM609.403,608.596C594.916,618.965 592.435,617.934 568.098,625.704C551.387,631.039 551.249,631.844 538.384,634.356C515.608,638.803 492.122,639.586 475.47,640.967C474.932,641.011 468.858,641.156 452.334,645.165C437.853,648.679 432.205,650.965 430.517,651.648C427.904,652.705 426.734,653.471 426.429,653.671C426.375,653.706 426.306,653.831 426.268,653.779C426.23,653.727 426.455,653.705 426.416,653.653C433.871,647.703 462.109,638.323 470.803,636.602C484.751,633.841 529.633,629.015 540.543,627.332C553.252,625.372 553.301,624.143 575.308,619.579C584.034,617.77 590.431,616.916 596.903,614.6C602.413,612.628 608.223,609.255 609.403,608.596Z" style="fill:rgb(255,167,69);"/>
                    </g>
                    <path d="M585.349,277.214C693.986,244.414 680.229,188.53 680.546,185.574C680.622,184.864 680.714,184.182 680.82,183.526C695.159,203.292 695.134,228.758 674.077,247.685C614.083,301.613 513.862,311.924 499.244,313.428C447.62,318.74 377.4,365.11 353.553,360.4C346.79,359.064 344.212,355.105 344.259,349.793C384.695,347.748 419.348,301.675 476.991,296.462C497.68,294.592 516.281,292.158 533.005,289.278C553.024,285.83 570.353,281.742 585.349,277.214ZM432.544,243.499C450.96,240.022 463.138,229.946 482.394,210.246C484.613,207.975 492.627,199.956 494.029,198.615C501.181,191.778 509.186,184.423 522.835,175.644C523.743,175.061 529.7,171.4 535.089,168.692C547.25,162.584 554.262,160.786 565.298,157.149C573.173,154.554 579.696,152.485 586.833,151.348C587.96,151.168 583.859,151.822 573.577,156.631C570.117,158.249 565.859,160.365 558.177,163.897C531.932,175.962 514.367,192.53 498.058,206.541C481.404,220.85 464.455,236.808 444.04,241.909C438.403,243.318 433.804,243.447 432.544,243.499ZM354.602,324.552C355.351,323.379 356.117,322.215 356.892,321.068C335.781,323.027 320.609,317.885 313.54,309.474C315.703,310.275 318.055,310.917 320.421,311.13C333.783,312.335 349.019,309.028 358.608,305.14C366.633,301.886 373.248,292.631 377.954,287.8C381.807,283.845 385.979,279.082 395.826,272.942C399.297,270.777 402.963,269.016 403.601,268.709C409.716,265.771 413.834,264.287 414.34,264.093C414.057,264.342 405.642,271.545 397.958,279.797C391.143,287.115 389.318,289.884 381.6,295.529C378.157,298.046 373.521,300.395 372.79,300.765C372.562,300.881 372.051,301.128 371.323,301.464C365.293,310.859 359.759,318.456 354.602,324.552Z" style="fill:rgb(214,121,39);"/>
                    <path d="M619.82,259.935C605.333,270.305 602.851,269.274 578.514,277.043C561.804,282.378 561.665,283.184 548.8,285.696C526.025,290.142 502.538,290.926 485.887,292.306C485.349,292.351 479.274,292.495 462.75,296.505C448.269,300.018 442.621,302.304 440.933,302.987C438.32,304.045 437.151,304.811 436.846,305.01C436.792,305.046 436.723,305.17 436.684,305.118C436.646,305.066 436.871,305.045 436.833,304.993C444.288,299.042 472.526,289.662 481.219,287.942C495.168,285.181 540.05,280.354 550.96,278.672C563.669,276.712 563.717,275.482 585.725,270.919C594.451,269.109 600.848,268.255 607.32,265.939C612.829,263.968 618.639,260.595 619.82,259.935ZM380.328,297.831C367.917,316.028 367.662,317.581 365.749,321.002C360.828,329.802 351.743,341.7 349.843,346.641C349.939,342.577 352.091,334.233 354.802,327.225C359.302,315.593 363.455,311.257 371.207,304.743C374.692,301.813 379.58,298.36 380.328,297.831ZM315.467,281.924C321.869,273.547 330.488,268.27 340.758,261.05C343.965,258.796 347.055,256.493 350.03,254C350.608,253.515 351.183,253.023 351.753,252.523C398.401,212.145 392.961,185.642 453.424,156.693C497.985,135.358 529.125,131.307 550.738,134.487C558.193,135.89 564.022,137.772 568.469,139.339C568.666,139.409 568.86,139.477 569.052,139.545C568.99,139.533 568.928,139.52 568.865,139.508C555.706,136.858 536.746,134.571 512.625,141.127C504.902,143.226 490.717,147.287 462.089,163.11C455.215,166.91 423.795,184.674 400.22,209.667C389.982,220.521 384.581,227.879 378.416,236.516C364.449,256.083 348.345,263.204 333.156,271.192C321.84,277.143 316.188,281.65 311.12,288.808C312.427,286.271 313.878,284.002 315.467,281.924Z" style="fill:rgb(255,203,108);"/>
                </g>
                <g id="outline2" serif:id="outline" transform="matrix(1,0,0,1,10.416391,-348.660431)">
                    <path d="M536.638,482.187C536.638,482.187 483.277,481.764 442.888,505.842C442.888,505.842 401.333,523.707 379.585,559.047C379.585,559.047 349.293,596.33 328.71,611.476C328.71,611.476 291.727,634.001 300.704,652.253C300.704,652.253 302.69,672.837 347.74,668.953C347.74,668.953 329.487,689.924 335.701,703.517C335.701,703.517 335.312,720.873 391.624,695.301C391.624,695.301 450.192,666.234 505.765,659.632C505.765,659.632 592.795,648.37 638.233,615.359C638.233,615.359 693.898,589.619 677.121,543.948C677.121,543.948 671.839,518.161 629.275,505.112C629.275,505.112 601.002,500.141 579.876,504.801C579.876,504.801 570.761,485.048 536.638,482.187Z" style="fill:none;stroke:rgb(82,72,72);stroke-width:2.29px;stroke-linecap:round;stroke-linejoin:round;stroke-miterlimit:1.5;"/>
                </g>
            </g>
                <g id="connectors" transform="matrix(1.774341,0,0,1.774341,-3024.156127,-1604.508895)">
                <g id="connector2-start" transform="matrix(0.525327,0,0,0.525327,1168.638557,737.525759)">
                    <circle cx="1676.335" cy="689.818" r="8.708" style="current-color;"/>
                </g>
                <g id="connector1-start" transform="matrix(0.525327,0,0,0.525327,1043.508809,688.114061)">
                    <circle cx="1676.335" cy="689.818" r="8.708" style="current-color;"/>
                </g>
            </g>
        </g>
    </g>
    </svg>