<?xml version="1.0" encoding="UTF-8" standalone="no"?>
<!DOCTYPE svg PUBLIC "-//W3C//DTD SVG 1.1//EN" "http://www.w3.org/Graphics/SVG/1.1/DTD/svg11.dtd">
<svg width="100%" height="100%" viewBox="0 0 422 311" version="1.1" xmlns="http://www.w3.org/2000/svg" xmlns:xlink="http://www.w3.org/1999/xlink" xml:space="preserve" xmlns:serif="http://www.serif.com/" style="fill-rule:evenodd;clip-rule:evenodd;stroke-linecap:butt;">
    <g id="brand-logo" transform="matrix(1,0,0,1,33.723479,-29.276521)">
        <path id="sd-logo" d="M169.76,228.991C169.76,264.077 139.532,282.699 103.097,282.699C72.6,282.699 47.5,269.474 32.117,249.503L29.688,280L19.162,280L19.162,219.545L30.497,219.545C37.514,250.582 66.123,272.983 101.208,272.983C127.387,272.983 146.549,261.378 146.549,237.628C146.549,215.227 130.086,204.701 87.444,194.176C47.23,183.92 22.671,169.346 22.671,139.118C22.671,107.002 49.929,88.379 84.205,88.379C111.194,88.379 133.864,100.255 148.169,121.306L150.328,91.078L161.123,91.078L161.123,150.184L148.978,150.184C140.612,115.638 115.782,98.096 85.824,98.096C63.964,98.096 44.801,107.811 44.801,131.831C44.801,151.803 59.645,161.519 97.43,171.505C145.47,183.92 169.76,197.144 169.76,228.991ZM157.962,100.255L157.962,91.078L232.452,91.078C303.972,91.078 343.915,128.323 343.915,184.73C343.915,241.406 306.401,280 238.119,280L157.962,280L157.962,270.824L172.536,270.824C177.394,270.824 180.363,268.125 180.363,261.108L180.363,109.971C180.363,102.953 177.394,100.255 172.536,100.255L157.962,100.255ZM205.193,262.727C205.193,269.204 207.892,270.824 213.559,270.824L236.77,270.824C283.73,270.824 316.657,245.724 316.657,185.269C316.657,115.368 267.807,100.255 230.832,100.255L205.193,100.255L205.193,262.727Z" style="fill:current-color;fill-rule:nonzero;"/>
        <path id="sd-sub" d="M29.925,322.917C29.925,325.446 27.747,326.788 25.121,326.788C22.923,326.788 21.114,325.835 20.005,324.396L19.83,326.594L19.071,326.594L19.071,322.236L19.888,322.236C20.394,324.473 22.456,326.088 24.985,326.088C26.872,326.088 28.253,325.252 28.253,323.54C28.253,321.925 27.066,321.167 23.992,320.408C21.094,319.669 19.324,318.618 19.324,316.44C19.324,314.125 21.289,312.783 23.759,312.783C25.704,312.783 27.338,313.638 28.369,315.156L28.525,312.977L29.303,312.977L29.303,317.237L28.428,317.237C27.825,314.747 26.035,313.483 23.876,313.483C22.3,313.483 20.919,314.183 20.919,315.914C20.919,317.354 21.989,318.054 24.712,318.774C28.175,319.669 29.925,320.622 29.925,322.917ZM54.733,326.788C51.834,326.788 49.636,325.66 49.636,322.042L49.636,314.339C49.636,313.833 49.422,313.638 49.072,313.638L47.983,313.638L47.983,312.977L53.196,312.977L53.196,313.638L52.01,313.638C51.66,313.638 51.446,313.833 51.446,314.339L51.446,321.672C51.446,324.629 52.418,325.913 55.044,325.913C57.573,325.913 58.818,324.804 58.818,321.672L58.818,314.339C58.818,313.833 58.604,313.638 58.254,313.638L57.087,313.638L57.087,312.977L61.308,312.977L61.308,313.638L60.218,313.638C59.888,313.638 59.674,313.833 59.674,314.339L59.674,321.789C59.674,325.855 57.281,326.788 54.733,326.788ZM90.312,322.917C90.312,325.446 88.134,326.788 85.507,326.788C83.309,326.788 81.5,325.835 80.392,324.396L80.216,326.594L79.458,326.594L79.458,322.236L80.275,322.236C80.781,324.473 82.843,326.088 85.371,326.088C87.258,326.088 88.639,325.252 88.639,323.54C88.639,321.925 87.453,321.167 84.379,320.408C81.481,319.669 79.711,318.618 79.711,316.44C79.711,314.125 81.675,312.783 84.146,312.783C86.091,312.783 87.725,313.638 88.756,315.156L88.912,312.977L89.69,312.977L89.69,317.237L88.814,317.237C88.211,314.747 86.422,313.483 84.263,313.483C82.687,313.483 81.306,314.183 81.306,315.914C81.306,317.354 82.376,318.054 85.099,318.774C88.562,319.669 90.312,320.622 90.312,322.917ZM108.642,312.977L113.7,312.977L113.7,313.638L112.688,313.638C112.338,313.638 112.124,313.833 112.124,314.339L112.124,319.163L119.633,319.163L119.633,314.339C119.633,313.833 119.419,313.638 119.049,313.638L118.057,313.638L118.057,312.977L123.095,312.977L123.095,313.638L121.986,313.638C121.636,313.638 121.422,313.833 121.422,314.339L121.422,325.232C121.422,325.738 121.636,325.932 121.986,325.932L123.095,325.932L123.095,326.594L118.057,326.594L118.057,325.932L119.049,325.932C119.419,325.932 119.633,325.738 119.633,325.232L119.633,319.863L112.124,319.863L112.124,325.232C112.124,325.738 112.338,325.932 112.688,325.932L113.7,325.932L113.7,326.594L108.642,326.594L108.642,325.932L109.77,325.932C110.12,325.932 110.334,325.738 110.334,325.232L110.334,314.339C110.334,313.833 110.12,313.638 109.77,313.638L108.642,313.638L108.642,312.977ZM141.011,312.977L146.165,312.977L146.165,313.638L145.057,313.638C144.707,313.638 144.493,313.833 144.493,314.339L144.493,325.232C144.493,325.738 144.707,325.932 145.057,325.932L146.165,325.932L146.165,326.594L141.011,326.594L141.011,325.932L142.139,325.932C142.489,325.932 142.703,325.738 142.703,325.232L142.703,314.339C142.703,313.833 142.489,313.638 142.139,313.638L141.011,313.638L141.011,312.977ZM184.169,313.638L184.169,312.977L189.538,312.977C194.693,312.977 197.572,315.662 197.572,319.727C197.572,323.812 194.868,326.594 189.947,326.594L184.169,326.594L184.169,325.932L185.22,325.932C185.57,325.932 185.784,325.738 185.784,325.232L185.784,314.339C185.784,313.833 185.57,313.638 185.22,313.638L184.169,313.638ZM187.574,325.349C187.574,325.816 187.768,325.932 188.177,325.932L189.849,325.932C193.234,325.932 195.607,324.123 195.607,319.766C195.607,314.728 192.086,313.638 189.421,313.638L187.574,313.638L187.574,325.349ZM215.738,312.977L220.893,312.977L220.893,313.638L219.784,313.638C219.434,313.638 219.22,313.833 219.22,314.339L219.22,325.232C219.22,325.738 219.434,325.932 219.784,325.932L220.893,325.932L220.893,326.594L215.738,326.594L215.738,325.932L216.866,325.932C217.217,325.932 217.431,325.738 217.431,325.232L217.431,314.339C217.431,313.833 217.217,313.638 216.866,313.638L215.738,313.638L215.738,312.977ZM250.586,326.594L250.294,324.746C249.302,326.146 247.765,326.788 245.917,326.788C241.93,326.788 239.187,324.007 239.187,319.785C239.187,315.564 241.988,312.783 245.82,312.783C247.824,312.783 249.575,313.522 250.586,315.214L250.722,312.977L251.481,312.977L251.481,317.393L250.625,317.393C250.08,314.981 248.407,313.483 245.917,313.483C242.922,313.483 241.152,315.739 241.152,319.766C241.152,323.754 243.039,326.088 245.898,326.088C248.505,326.088 250.022,324.785 250.022,322.256L250.022,321.225C250.022,320.739 249.808,320.544 249.438,320.544L246.89,320.544L246.89,319.883L252.92,319.883L252.92,320.544L252.123,320.544C251.773,320.544 251.559,320.739 251.559,321.225L251.559,326.594L250.586,326.594ZM274.307,319.182L276.661,319.182C277.672,319.182 278.197,318.891 278.197,317.782L278.197,317.14L278.898,317.14L278.898,321.847L278.197,321.847L278.197,321.205C278.197,320.116 277.672,319.824 276.661,319.824L274.307,319.824L274.307,325.115C274.307,325.738 274.521,325.932 276.233,325.932L277.594,325.932C280.551,325.932 280.979,325.582 281.174,322.159L281.913,322.159L281.913,326.594L270.825,326.594L270.825,325.932L271.953,325.932C272.303,325.932 272.517,325.738 272.517,325.232L272.517,314.339C272.517,313.833 272.303,313.638 271.953,313.638L270.825,313.638L270.825,312.977L281.913,312.977L281.913,317.315L281.174,317.315C280.979,313.891 280.551,313.638 277.594,313.638L274.307,313.638L274.307,319.182ZM311.799,322.917C311.799,325.446 309.62,326.788 306.994,326.788C304.796,326.788 302.987,325.835 301.878,324.396L301.703,326.594L300.945,326.594L300.945,322.236L301.762,322.236C302.267,324.473 304.329,326.088 306.858,326.088C308.745,326.088 310.126,325.252 310.126,323.54C310.126,321.925 308.94,321.167 305.866,320.408C302.968,319.669 301.198,318.618 301.198,316.44C301.198,314.125 303.162,312.783 305.633,312.783C307.578,312.783 309.212,313.638 310.243,315.156L310.399,312.977L311.177,312.977L311.177,317.237L310.301,317.237C309.698,314.747 307.909,313.483 305.749,313.483C304.174,313.483 302.793,314.183 302.793,315.914C302.793,317.354 303.863,318.054 306.586,318.774C310.048,319.669 311.799,320.622 311.799,322.917ZM338.456,325.932L338.456,326.594L332.815,326.594L332.815,325.932L334.176,325.932C334.526,325.932 334.74,325.738 334.74,325.232L334.74,313.638L333.787,313.638C331.025,313.638 330.675,313.911 330.48,317.412L329.741,317.412L329.741,312.977L341.529,312.977L341.529,317.412L340.79,317.412C340.596,313.911 340.245,313.638 337.483,313.638L336.53,313.638L336.53,325.232C336.53,325.738 336.744,325.932 337.094,325.932L338.456,325.932Z" style="fill:current-color;fill-rule:nonzero;"/>
        <g id="mask">
            <path id="sd-s" d="M154.5,87L154.5,138.307C154.5,139.408 152.923,139.71 152.474,138.704C134.781,99.021 107.768,93 89,93C49,93 30.21,118.573 32,140.5C34,165 72.628,176.962 96.5,184.5C130.011,195.082 157.5,202 157.5,229C157.5,273.5 118.167,278.167 98.5,278.5C60.437,278.5 35.66,249.196 26.062,231.197C25.555,230.244 24,230.612 24,231.691L24,282.5" style="fill:none;fill-rule:nonzero;stroke:rgb(253,253,252);stroke-width:28px;"/>
            <path id="sd-d-curve" d="M153.5,95.5L246.5,95.5C327.7,110.7 334.5,168 329,201.5C319.642,258.5 274,272.5 246.5,275.5L153.5,275.5" style="fill:none;fill-rule:nonzero;stroke:rgb(253,253,252);stroke-width:28px;"/>
            <path id="sd-d-line" d="M193,96L193,269" style="fill:none;fill-rule:nonzero;stroke:rgb(253,253,252);stroke-width:28px;"/>
        </g>
    </g>
</svg>
